<svg width="84" height="84" viewBox="0 0 84 84" fill="none" xmlns="http://www.w3.org/2000/svg">
  <g filter="url(#filter0_d_9000_32065)">
    <rect width="80" height="80" rx="16" fill="#FFF9F9" shape-rendering="crispEdges" />
    <circle cx="31" cy="34" r="10" fill="#F9D3D1" />
    <path
      d="M37.789 20H38.2109C40.557 20.0555 42.839 21.2039 44.2851 23.0508C45.2171 22.6125 46.3148 22.5445 47.289 22.8828C48.6679 23.3375 49.721 24.5977 49.9531 26.0273C51.1077 26.1539 52.2257 26.607 53.1242 27.3461C54.2288 28.2406 54.9976 29.5398 55.2429 30.9414C55.4968 32.3398 55.2327 33.8266 54.5054 35.0484C53.4796 36.8164 51.4992 37.9789 49.4531 37.9977C48.0812 38.0039 46.7093 37.9977 45.3367 38C45.3382 38.3578 45.346 38.7406 45.1484 39.0547C45.0101 39.3031 44.7796 39.4812 44.5351 39.6164C43.2445 40.35 41.9593 41.093 40.6687 41.825C40.6663 42.55 40.6671 43.2742 40.6679 43.9992C44.014 44.0008 47.3593 44 50.7054 44C51.1554 44.0039 51.6234 43.9602 52.0515 44.1328C52.7874 44.407 53.3171 45.1484 53.3304 45.9352C53.3406 46.6805 53.3304 47.4258 53.3343 48.1719C54.6546 48.9297 55.9796 49.6797 57.2992 50.4391C57.7296 50.6734 58.0085 51.1477 57.9992 51.6391C58.0023 53.2016 58.0007 54.7648 57.9999 56.3273C58.0163 56.8195 57.7492 57.3047 57.3195 57.5461C56.0452 58.2828 54.764 59.0078 53.489 59.7422C53.2796 59.8664 53.0515 59.957 52.8124 60H52.5406C52.3468 59.9648 52.1546 59.9117 51.9827 59.8141C50.6726 59.0656 49.3624 58.3156 48.0515 57.5688C47.5445 57.3078 47.2796 56.7281 47.332 56.1719C47.3374 54.6594 47.3304 53.1461 47.3359 51.6336C47.3265 51.1484 47.6031 50.6797 48.0281 50.4477C49.3515 49.6898 50.6773 48.9352 51.9999 48.1758C51.9945 47.4328 52.0124 46.6891 51.9929 45.9461C51.9796 45.5773 51.6187 45.2992 51.2601 45.3336C47.7296 45.3336 44.1984 45.332 40.6671 45.3344C40.6679 46.2812 40.6663 47.2281 40.6687 48.175C41.9929 48.9289 43.3171 49.6844 44.639 50.443C45.0663 50.6781 45.3421 51.1516 45.3327 51.6398C45.3374 53.0477 45.3312 54.4547 45.3351 55.8617C45.3327 56.2555 45.3718 56.6805 45.1609 57.0328C45.0195 57.3031 44.7687 57.4891 44.5077 57.6336C43.264 58.3414 42.0234 59.0547 40.7812 59.7656C40.5827 59.8813 40.3632 59.9602 40.1367 60H39.8749C39.664 59.9641 39.457 59.9 39.2726 59.7914C37.9648 59.0383 36.6523 58.2945 35.3437 57.5437C34.9156 57.3031 34.6507 56.8195 34.6679 56.3297C34.6679 54.7664 34.6656 53.2031 34.6687 51.6406C34.6577 51.1516 34.9351 50.6781 35.3648 50.4461C36.6867 49.6891 38.0101 48.9336 39.3327 48.1773C39.3351 47.2297 39.3343 46.2812 39.3335 45.3336C35.8038 45.3328 32.2742 45.3336 28.7445 45.3336C28.3851 45.2984 28.0202 45.575 28.0085 45.9453C27.989 46.6875 28.007 47.4313 28.0007 48.1742C29.3265 48.9305 30.6538 49.6852 31.9773 50.4461C32.4007 50.682 32.6749 51.1523 32.6656 51.6391C32.671 53.1758 32.6648 54.7125 32.6687 56.25C32.7062 56.7844 32.4242 57.3195 31.9476 57.5703C30.807 58.2258 29.6632 58.8766 28.5218 59.5312C28.1898 59.7227 27.8609 59.943 27.4734 60H27.2085C26.9179 59.9617 26.6546 59.8297 26.4085 59.6781C25.1687 58.9641 23.9234 58.2594 22.6827 57.5469C22.2515 57.3078 21.9843 56.8227 22.0007 56.3313C22.0007 54.7688 21.9992 53.2062 22.0015 51.6445C21.9921 51.1719 22.2468 50.7078 22.6562 50.4703C23.9913 49.7023 25.3327 48.9438 26.6671 48.1742C26.671 47.4297 26.6617 46.6852 26.6702 45.9414C26.6788 45.1102 27.2718 44.3328 28.0656 44.093C28.4374 43.9711 28.8327 44.0031 29.2179 43.9992C32.5898 44 35.9617 44.0008 39.3335 43.9992C39.3343 43.275 39.3343 42.55 39.3335 41.8258C38.0945 41.1141 36.8531 40.407 35.6117 39.7C35.3195 39.5398 35.0163 39.3594 34.8531 39.057C34.6538 38.743 34.6632 38.3586 34.6648 38C33.2671 37.9961 31.8695 38.007 30.4726 37.9953C28.4538 37.95 26.5124 36.7922 25.4976 35.0492C24.6687 33.6609 24.4476 31.9313 24.8882 30.3766C25.2327 29.1398 25.9906 28.025 27.0077 27.2438C27.9374 26.5188 29.0867 26.1 30.2585 26.0078C30.6585 24.4523 31.5351 23.0234 32.7492 21.9711C34.1327 20.7531 35.9499 20.0594 37.789 20ZM34.2742 22.4789C33.0085 23.3242 32.0617 24.6242 31.6265 26.0805C32.3195 26.2016 32.9999 26.4234 33.6117 26.7742C33.9226 26.957 34.0117 27.4109 33.8031 27.7023C33.6249 27.9797 33.2327 28.0773 32.9445 27.9172C32.2335 27.5367 31.432 27.318 30.6226 27.3344C29.3249 27.3437 28.046 27.9297 27.1898 28.9047C26.3945 29.7938 25.9617 30.9977 26.0156 32.1898C26.0648 33.5672 26.7671 34.9031 27.8742 35.725C28.6804 36.3367 29.6906 36.6719 30.7023 36.6664C32.0242 36.6664 33.3452 36.6672 34.6671 36.6664C34.6702 35.6445 34.6632 34.6219 34.6695 33.6C34.671 33.1328 34.9413 32.6844 35.3476 32.4563C36.557 31.7617 37.7695 31.0703 38.9804 30.3766C39.2281 30.2359 39.4726 30.0687 39.7601 30.0227C40.0921 29.9602 40.439 30.0359 40.7273 30.2062C42.0218 30.9453 43.3148 31.6859 44.6085 32.425C45.0351 32.6508 45.3281 33.1086 45.3312 33.5945C45.339 34.618 45.3312 35.6422 45.3343 36.6664C46.6827 36.6664 48.0304 36.668 49.3788 36.6656C50.6632 36.6578 51.9312 36.0875 52.789 35.132C53.5882 34.2555 54.0327 33.0656 53.9976 31.8797C53.971 30.6602 53.4374 29.4625 52.5515 28.6242C51.6507 27.7586 50.389 27.2789 49.1398 27.3391C48.1679 27.3727 47.2148 27.7297 46.4523 28.3312C46.207 28.5469 45.8109 28.5641 45.5648 28.343C45.2663 28.1016 45.2554 27.5977 45.5507 27.35C46.4109 26.6383 47.4827 26.1961 48.5874 26.0508C48.3671 25.1141 47.6132 24.3242 46.6757 24.0898C45.571 23.782 44.3031 24.2938 43.7226 25.2828C43.5726 25.5391 43.4718 25.882 43.1484 25.9672C42.6765 26.143 42.1468 25.6461 42.3031 25.1648C42.4882 24.6586 42.8163 24.2164 43.1882 23.8305C42.0906 22.4539 40.432 21.5437 38.6788 21.3719C37.1413 21.2086 35.5515 21.607 34.2742 22.4789ZM36.6679 33.2336C37.7788 33.8672 38.8898 34.4992 40.0007 35.1328C41.1117 34.5008 42.2226 33.868 43.3335 33.2328C42.2234 32.5984 41.1124 31.9656 40.0007 31.3336C38.8898 31.9672 37.7788 32.6008 36.6679 33.2336ZM36.0015 34.3852C36.0007 35.7164 36.0007 37.0469 36.0007 38.3781C37.1109 39.0156 38.2242 39.6484 39.3335 40.2867C39.3327 38.9523 39.3367 37.618 39.332 36.2836C38.2195 35.6539 37.1132 35.0148 36.0015 34.3852ZM40.6671 36.2906C40.6679 37.6227 40.6663 38.9555 40.6679 40.2875C41.7804 39.6562 42.8913 39.0211 44.0007 38.3844C43.9999 37.0516 44.0015 35.7195 43.9999 34.3867C42.889 35.0211 41.7773 35.6539 40.6671 36.2906ZM24.0054 51.232C25.1156 51.8641 26.2249 52.4984 27.3351 53.132C28.4445 52.5031 29.5531 51.8711 30.6593 51.2352C29.5507 50.6 28.4437 49.9633 27.3327 49.3328C26.2265 49.9703 25.114 50.5992 24.0054 51.232ZM36.6671 51.2336C37.782 51.8617 38.8913 52.4992 40.0023 53.1336C41.1101 52.5008 42.2202 51.8719 43.3257 51.2352C42.2179 50.6008 41.1124 49.9633 40.0015 49.3344C38.8906 49.968 37.7812 50.6047 36.6671 51.2336ZM49.3367 51.2352C50.4507 51.8633 51.5585 52.5016 52.671 53.1328C53.7788 52.5008 54.8874 51.8711 55.9929 51.2352C54.8851 50.6008 53.7781 49.9648 52.6687 49.3336C51.5593 49.9695 50.4476 50.6016 49.3367 51.2352ZM23.3351 52.3844C23.3335 53.7164 23.3343 55.0477 23.3343 56.3797C24.4445 57.0156 25.5554 57.6508 26.6671 58.2836C26.6679 56.9516 26.6679 55.6203 26.6671 54.2883C25.5593 53.6492 24.4468 53.0164 23.3351 52.3844ZM28.0023 54.2859C27.9992 55.6203 28.0007 56.9547 28.0015 58.2898C29.1109 57.6516 30.2249 57.0219 31.3343 56.3828C31.3335 55.0508 31.3351 53.718 31.3335 52.3859C30.2234 53.0203 29.1148 53.6562 28.0023 54.2859ZM36.0015 52.3859C35.9999 53.7164 36.0007 55.0477 36.0007 56.3781C37.1109 57.0156 38.2218 57.6508 39.3343 58.2844C39.3335 56.9531 39.3343 55.6211 39.3335 54.2891C38.2249 53.6508 37.114 53.0172 36.0015 52.3859ZM40.6679 54.2891C40.6671 55.6219 40.6671 56.9555 40.6679 58.2883C41.7796 57.6562 42.8898 57.0211 43.9999 56.3867C44.0007 55.0531 44.0007 53.7203 43.9999 52.3875C42.889 53.0211 41.7796 53.6578 40.6679 54.2891ZM48.6687 52.3852C48.6663 53.7164 48.6671 55.0477 48.6679 56.3789C49.7781 57.0156 50.8898 57.65 52.0007 58.2859C51.9992 56.9531 52.0023 55.6203 51.9999 54.2875C50.8906 53.6508 49.7796 53.0172 48.6687 52.3852ZM53.3343 54.2891C53.3335 55.6219 53.3335 56.9547 53.3343 58.2883C54.4468 57.6578 55.5554 57.0203 56.6663 56.3867C56.6679 55.0539 56.6671 53.7211 56.6671 52.3883C55.5554 53.0203 54.4468 53.6578 53.3343 54.2891Z"
      fill="#CC0D00" stroke="#CC0D00" stroke-width="0.4" />
  </g>
  <defs>
    <filter id="filter0_d_9000_32065" x="0" y="0" width="84" height="84"
      filterUnits="userSpaceOnUse" color-interpolation-filters="sRGB">
      <feFlood flood-opacity="0" result="BackgroundImageFix" />
      <feColorMatrix in="SourceAlpha" type="matrix"
        values="0 0 0 0 0 0 0 0 0 0 0 0 0 0 0 0 0 0 127 0" result="hardAlpha" />
      <feOffset dx="4" dy="4" />
      <feComposite in2="hardAlpha" operator="out" />
      <feColorMatrix type="matrix"
        values="0 0 0 0 0.976471 0 0 0 0 0.827451 0 0 0 0 0.819608 0 0 0 0.3 0" />
      <feBlend mode="normal" in2="BackgroundImageFix" result="effect1_dropShadow_9000_32065" />
      <feBlend mode="normal" in="SourceGraphic" in2="effect1_dropShadow_9000_32065" result="shape" />
    </filter>
  </defs>
</svg>