<svg width="84" height="84" viewBox="0 0 84 84" fill="none" xmlns="http://www.w3.org/2000/svg">
  <g filter="url(#filter0_d_220_1609)">
    <rect y="0.722595" width="80" height="80" rx="16" fill="#FFF9F9" shape-rendering="crispEdges" />
    <circle cx="31" cy="34.7226" r="10" fill="#F9D3D1" />
    <path
      d="M51 39.0001V43.0001M22 27H39M39 27L34 22M39 27L37 29L34 32M59 28.4326V52.6001C59 52.8424 58.8544 53.0608 58.6308 53.154L47.8308 57.6541C47.4356 57.8188 47 57.5284 47 57.1003V24.8327C47 24.4232 47.4012 24.134 47.7897 24.2635L58.5897 27.8634C58.8347 27.9451 59 28.1743 59 28.4326Z"
      stroke="#CC0D00" stroke-width="2" />
    <path
      d="M38.5066 39.7109L31.6631 41.4218L24.8196 39.7109L31.6631 38L38.5066 39.7109ZM38.5066 39.7109V43.1326M27.3859 40.5663V43.9881L27.6966 44.0502M35.9403 40.5663V43.9881L35.6295 44.0502M27.6966 44.0502C27.6966 44.0502 30.0834 44.8435 31.6631 44.8435C33.2428 44.8435 35.6295 44.0502 35.6295 44.0502M27.6966 44.0502C27.3079 45.7404 28.2413 49.1207 31.6631 49.1207C35.0848 49.1207 36.0183 45.7404 35.6295 44.0502M38.5066 43.1326L37.6512 45.6989H39.362L38.5066 43.1326Z"
      stroke="#CC0D00" stroke-width="1.77741" stroke-linejoin="round" />
    <path
      d="M30.8077 49.1206C28.8117 49.4058 23.7931 51.3447 23.1088 56.8195H40.2175C39.9324 54.5384 37.309 49.805 32.5186 49.1206M28.2414 49.976L29.9523 53.3978L31.6631 49.976L33.374 53.3978L35.0849 49.976"
      stroke="#CC0D00" stroke-width="1.77741" stroke-linejoin="round" />
  </g>
  <defs>
    <filter id="filter0_d_220_1609" x="0" y="0" width="84" height="84" filterUnits="userSpaceOnUse"
      color-interpolation-filters="sRGB">
      <feFlood flood-opacity="0" result="BackgroundImageFix" />
      <feColorMatrix in="SourceAlpha" type="matrix"
        values="0 0 0 0 0 0 0 0 0 0 0 0 0 0 0 0 0 0 127 0" result="hardAlpha" />
      <feOffset dx="4" dy="4" />
      <feComposite in2="hardAlpha" operator="out" />
      <feColorMatrix type="matrix"
        values="0 0 0 0 0.976471 0 0 0 0 0.827451 0 0 0 0 0.819608 0 0 0 0.3 0" />
      <feBlend mode="normal" in2="BackgroundImageFix" result="effect1_dropShadow_3701_5479" />
      <feBlend mode="normal" in="SourceGraphic" in2="effect1_dropShadow_3701_5479" result="shape" />
    </filter>
  </defs>
</svg>