<svg width="84" height="85" viewBox="0 0 84 85" fill="none" xmlns="http://www.w3.org/2000/svg">
  <g filter="url(#filter0_d_196_47)">
    <rect y="0.722595" width="80" height="80" rx="16" fill="#FFF9F9" shape-rendering="crispEdges" />
    <circle cx="31" cy="34.7226" r="10" fill="#F9D3D1" />
    <path
      d="M35.5525 22.7232C35.8638 22.6514 36.1839 22.4946 36.5062 22.6045C39.861 23.4959 43.2166 24.3867 46.5714 25.2774C46.9179 25.3308 47.1757 25.703 47.0563 26.0436C46.9838 26.3117 46.7128 26.4325 46.4652 26.4882C46.4622 27.9312 46.4659 29.3742 46.4637 30.8172C46.7699 31.0048 47.0922 31.1674 47.3925 31.3651C47.58 31.486 47.6518 31.7167 47.643 31.9306C47.6401 33.1026 47.6482 34.2753 47.6394 35.4473C47.646 35.7652 47.35 36.0355 47.0365 36.0194C46.849 36.0201 46.6966 35.8986 46.5545 35.7923C46.3311 35.6187 46.1041 35.451 45.8777 35.2825C45.5708 35.5015 45.2851 35.7521 44.9658 35.9528C44.609 36.1615 44.108 35.8671 44.1175 35.4547C44.1087 34.2797 44.1168 33.1041 44.1131 31.9284C44.1051 31.7204 44.171 31.4941 44.3534 31.3747C44.6559 31.1725 44.9826 31.0113 45.2925 30.8209C45.2925 29.479 45.2932 28.1378 45.2917 26.7958C44.8083 26.9255 44.3248 27.0537 43.8414 27.1841C43.845 28.8644 43.8406 30.5455 43.8436 32.2258C43.856 32.4016 43.7952 32.5672 43.7147 32.7203C43.9 34.1904 43.6597 35.7147 42.9953 37.042C42.2709 38.515 41.0476 39.7266 39.5827 40.462C41.8497 40.9989 43.9747 42.1108 45.721 43.652C46.2191 43.3869 46.7391 43.159 47.2848 43.0133C47.4431 42.6544 47.5617 42.2793 47.7177 41.9197C47.8071 41.6992 48.043 41.5629 48.2774 41.5739C48.9842 41.5717 49.6911 41.5725 50.3979 41.5739C50.6345 41.5615 50.8748 41.697 50.9649 41.9197C51.1099 42.2508 51.2191 42.5965 51.3597 42.929C51.3824 43.0294 51.4996 43.0316 51.5765 43.0668C52.0754 43.2147 52.5515 43.4308 53.01 43.6747C53.3594 43.5209 53.7037 43.3561 54.0568 43.2103C54.2846 43.1078 54.5578 43.1862 54.7226 43.3671C55.2207 43.8666 55.7217 44.364 56.2191 44.8643C56.3942 45.0284 56.4593 45.2972 56.3605 45.5199C56.214 45.8729 56.0484 46.2179 55.8983 46.5688C56.1788 47.0801 56.4037 47.6199 56.5656 48.1803C56.9172 48.3239 57.2753 48.4499 57.6269 48.5956C57.8518 48.6777 58.0049 48.9091 57.9976 49.1487C58.002 49.8577 57.9991 50.5682 57.9991 51.278C58.0122 51.5176 57.8797 51.7629 57.6526 51.8545C57.2973 52.0032 56.9355 52.1372 56.5743 52.2706C56.4007 52.8317 56.1817 53.3788 55.8975 53.8938C56.0513 54.2512 56.222 54.6021 56.3678 54.9632C56.4615 55.1859 56.3817 55.4474 56.2096 55.6078C55.7217 56.0993 55.2295 56.5864 54.7409 57.0772C54.5783 57.2596 54.3102 57.3577 54.0765 57.2581C53.7169 57.1146 53.3682 56.9446 53.0137 56.7879C52.4943 57.0618 51.953 57.2955 51.3883 57.4581C51.2469 57.8097 51.1217 58.1671 50.9766 58.5173C50.8916 58.7466 50.6529 58.8989 50.4089 58.8879C49.6969 58.8909 48.9842 58.8909 48.2722 58.8879C48.0269 58.8989 47.7888 58.7444 47.7046 58.5136C47.5617 58.1642 47.4335 57.809 47.2966 57.4574C46.7362 57.2933 46.1942 57.0713 45.6836 56.7879C45.3232 56.9409 44.9694 57.1116 44.6061 57.2581C44.3908 57.3475 44.1351 57.2772 43.9784 57.1109C43.4751 56.6113 42.9756 56.1088 42.4745 55.6085C42.3039 55.4518 42.2218 55.1961 42.3105 54.9764C42.4562 54.6101 42.6298 54.2556 42.7851 53.893C42.717 53.7619 42.6489 53.6308 42.5808 53.4997C35.9341 53.4968 29.2867 53.499 22.64 53.4982C22.3485 53.5224 22.0599 53.3114 22.013 53.0199C21.9925 52.798 22.0438 52.5782 22.0694 52.3592C22.4261 49.8167 23.4912 47.3804 25.1093 45.388C27.0731 42.9452 29.8617 41.1857 32.9111 40.4598C31.2029 39.6116 29.8339 38.1004 29.1798 36.3066C28.7549 35.1668 28.6282 33.9252 28.7783 32.7203C28.7153 32.5877 28.6428 32.4529 28.6509 32.3013C28.648 30.5938 28.6516 28.8864 28.6494 27.1789C27.8158 26.9563 26.9823 26.7321 26.148 26.5138C25.9377 26.4545 25.6916 26.4267 25.5466 26.2435C25.3583 26.0296 25.3649 25.6788 25.5612 25.4729C25.7033 25.3081 25.9311 25.2818 26.1282 25.2246C29.2706 24.3947 32.4115 23.5582 35.5525 22.7232ZM36.0498 23.8021C33.4605 24.4958 30.8682 25.1778 28.278 25.8685C30.7458 26.5204 33.2129 27.176 35.6799 27.8316C35.8711 27.8799 36.0593 27.9481 36.2564 27.973C36.4344 27.9495 36.6043 27.8909 36.7772 27.8462C39.2552 27.1826 41.7362 26.5314 44.2135 25.8663C41.5941 25.1726 38.9776 24.4687 36.3575 23.7787C36.2549 23.7421 36.1494 23.775 36.0498 23.8021ZM29.8214 27.4917C29.8229 28.9413 29.8207 30.3909 29.8221 31.8413C31.5084 32.1445 33.1843 32.5078 34.8771 32.7745C35.8696 32.9341 36.8849 32.907 37.8745 32.7356C39.4779 32.4632 41.0718 32.1416 42.6701 31.8413C42.6716 30.3909 42.6709 28.9406 42.6709 27.491C40.7173 28.0132 38.7623 28.5297 36.808 29.0497C36.5596 29.1091 36.3018 29.2226 36.0454 29.1406C33.9703 28.5934 31.898 28.0345 29.8214 27.4917ZM45.2859 32.1797C45.2851 32.8726 45.2866 33.5656 45.2851 34.2592C45.4602 34.1347 45.6316 33.9633 45.8616 33.9633C46.1033 33.9479 46.2886 34.1266 46.4718 34.257C46.4696 33.5634 46.4725 32.8697 46.4696 32.176C46.2733 32.0617 46.077 31.9482 45.8792 31.8369C45.6821 31.9519 45.4844 32.0661 45.2859 32.1797ZM29.9203 33.0521C29.7738 34.4599 30.1093 35.9132 30.8733 37.1057C31.6314 38.3063 32.8019 39.2402 34.1431 39.709C35.54 40.2049 37.1112 40.1844 38.4956 39.6563C39.9357 39.1149 41.1597 38.0279 41.8739 36.6655C42.4592 35.5645 42.6972 34.29 42.5727 33.0506C41.5223 33.2535 40.4719 33.4506 39.4215 33.6542C38.3308 33.849 37.2343 34.0768 36.1194 34.06C35.228 34.0505 34.3504 33.8754 33.4744 33.7267C32.2892 33.5018 31.1055 33.274 29.9203 33.0521ZM34.327 41.3806C34.965 41.8786 35.6067 42.3723 36.2469 42.8682C36.8871 42.3738 37.5265 41.8779 38.1653 41.382C36.8951 41.196 35.5979 41.196 34.327 41.3806ZM39.6727 41.6963C38.8135 42.3665 37.9492 43.0309 37.0885 43.6996C37.6474 44.3618 38.2056 45.0254 38.7652 45.6869C39.4449 44.4761 40.1254 43.2653 40.8037 42.053C40.4309 41.9211 40.0544 41.7995 39.6727 41.6963ZM31.6864 42.0515C32.3668 43.2638 33.0473 44.4753 33.7263 45.6876C34.2867 45.0262 34.8449 44.3633 35.4038 43.6996C34.5409 43.0294 33.6773 42.3614 32.8129 41.6926C32.4328 41.7966 32.0563 41.916 31.6864 42.0515ZM26.0315 46.0905C24.5753 47.8741 23.6106 50.0511 23.2568 52.3262C29.5577 52.3196 35.8586 52.3394 42.1596 52.316C41.7838 52.1153 41.3648 52.0156 40.9824 51.8303C40.7795 51.7278 40.6719 51.4963 40.6836 51.2751C40.6836 50.5638 40.6799 49.8519 40.6851 49.1406C40.6792 48.9047 40.8316 48.6791 41.0528 48.5964C41.4044 48.4521 41.7633 48.3268 42.1156 48.184C42.2775 47.6229 42.5031 47.0808 42.7851 46.5695C42.6342 46.2194 42.4701 45.8751 42.3236 45.5235C42.2218 45.2994 42.287 45.0254 42.4672 44.8621C42.8906 44.4351 43.3184 44.0124 43.7418 43.5854C43.1536 43.1818 42.5353 42.8206 41.8915 42.513C41.0513 44.0036 40.2192 45.4994 39.3768 46.9885C39.1974 47.3497 38.648 47.4017 38.4063 47.0772C37.6833 46.2275 36.9676 45.3712 36.2469 44.52C35.5305 45.3646 34.82 46.2136 34.1043 47.0581C33.845 47.4295 33.2356 47.3372 33.0752 46.9219C32.2489 45.4496 31.4248 43.9765 30.5964 42.5057C28.8347 43.3436 27.2599 44.5742 26.0315 46.0905ZM48.6517 42.7452C48.5125 43.0843 48.4004 43.4352 48.2473 43.7678C48.1609 43.9582 47.9587 44.0483 47.7676 44.0966C47.2218 44.2373 46.6915 44.4446 46.2051 44.7317C46.0162 44.8401 45.7986 44.9698 45.573 44.8951C45.217 44.772 44.8845 44.5918 44.5358 44.4504C44.2098 44.7749 43.8846 45.1002 43.5601 45.4261C43.6993 45.7528 43.8575 46.0707 43.9871 46.4018C44.0787 46.612 43.9959 46.8398 43.8817 47.0222C43.5835 47.524 43.3572 48.069 43.2122 48.6352C43.1638 48.8396 43.0693 49.0578 42.8635 49.145C42.5331 49.2908 42.1918 49.4087 41.8563 49.5405C41.8578 50.0028 41.8483 50.4657 41.8614 50.9279C42.2021 51.0575 42.5507 51.1718 42.8811 51.3264C43.0891 51.4201 43.1682 51.6487 43.2202 51.8538C43.3653 52.42 43.5967 52.962 43.8956 53.4638C43.9967 53.6308 44.0707 53.8366 43.9974 54.03C43.8699 54.3721 43.7044 54.698 43.5594 55.0328C43.8817 55.3632 44.2113 55.6855 44.5358 56.0129C44.8764 55.87 45.2053 55.7008 45.551 55.5719C45.7905 55.4826 46.0242 55.6254 46.2257 55.7419C46.7267 56.037 47.2768 56.2363 47.8364 56.3872C48.0137 56.4297 48.18 56.5381 48.2554 56.7095C48.4034 57.0384 48.5154 57.3834 48.6517 57.7174C49.1117 57.7174 49.571 57.7174 50.031 57.7174C50.176 57.3687 50.2851 57.0039 50.4514 56.6648C50.5584 56.4568 50.8001 56.3967 51.0074 56.3403C51.515 56.2099 52.0021 56.0041 52.457 55.7441C52.6577 55.6269 52.8906 55.4826 53.1316 55.5726C53.4788 55.6972 53.807 55.8693 54.1469 56.0121C54.4728 55.6862 54.8002 55.3617 55.1233 55.0335C54.979 54.698 54.8127 54.3714 54.6852 54.0293C54.6105 53.8352 54.686 53.6293 54.7885 53.4623C55.0852 52.9613 55.3167 52.4207 55.4617 51.856C55.513 51.6523 55.5899 51.4223 55.7972 51.3293C56.1312 51.1755 56.4806 51.059 56.8234 50.9264C56.8322 50.4635 56.8263 50.0013 56.8271 49.5391C56.4938 49.4028 56.1495 49.2937 55.8221 49.1465C55.6375 49.0681 55.5335 48.8842 55.4888 48.6982C55.3416 48.1283 55.1269 47.5745 54.8266 47.0676C54.7167 46.8831 54.601 46.6662 54.6808 46.4472C54.8068 46.0978 54.979 45.7682 55.1225 45.4261C54.7973 45.1002 54.4728 44.7742 54.1461 44.4497C53.8172 44.5889 53.4986 44.7522 53.1646 44.8789C52.9844 44.9529 52.7822 44.9075 52.6211 44.8094C52.1186 44.5142 51.5831 44.271 51.0176 44.123C50.7957 44.0673 50.5364 43.9978 50.4346 43.767C50.2815 43.4345 50.1701 43.0836 50.031 42.7452C49.571 42.7452 49.111 42.7445 48.6517 42.7452Z"
      fill="#CC0D00" stroke="#CC0D00" stroke-width="0.2" />
    <path
      d="M48.5381 45.9103C49.6376 45.6986 50.8147 45.9374 51.7472 46.5564C53.3279 47.5635 54.1183 49.6453 53.5638 51.4421C53.2759 52.4551 52.6064 53.3517 51.7216 53.9216C50.6895 54.5962 49.3622 54.8072 48.1755 54.4658C47.2548 54.2131 46.4234 53.6513 45.8477 52.891C45.2404 52.0999 44.9145 51.0971 44.9474 50.1009C44.9775 48.9707 45.469 47.8624 46.2835 47.0794C46.8981 46.478 47.6943 46.07 48.5381 45.9103ZM48.8809 47.0413C47.5742 47.2127 46.4483 48.2682 46.189 49.5596C45.9773 50.5331 46.2491 51.5974 46.9105 52.3438C47.5353 53.0682 48.4934 53.4916 49.4508 53.4506C50.4045 53.4257 51.3297 52.943 51.9032 52.1819C52.4006 51.5366 52.635 50.6979 52.5449 49.8878C52.4592 49.0344 52.008 48.2294 51.3341 47.7005C50.6528 47.1563 49.7438 46.9146 48.8809 47.0413Z"
      fill="#CC0D00" stroke="#CC0D00" stroke-width="0.2" />
  </g>
  <defs>
    <filter id="filter0_d_196_47" x="0" y="0.722595" width="84" height="84"
      filterUnits="userSpaceOnUse" color-interpolation-filters="sRGB">
      <feFlood flood-opacity="0" result="BackgroundImageFix" />
      <feColorMatrix in="SourceAlpha" type="matrix"
        values="0 0 0 0 0 0 0 0 0 0 0 0 0 0 0 0 0 0 127 0" result="hardAlpha" />
      <feOffset dx="4" dy="4" />
      <feComposite in2="hardAlpha" operator="out" />
      <feColorMatrix type="matrix"
        values="0 0 0 0 0.976471 0 0 0 0 0.827451 0 0 0 0 0.819608 0 0 0 0.3 0" />
      <feBlend mode="normal" in2="BackgroundImageFix" result="effect1_dropShadow_3701_5370" />
      <feBlend mode="normal" in="SourceGraphic" in2="effect1_dropShadow_3701_5370" result="shape" />
    </filter>
  </defs>
</svg>