<svg width="84" height="84" viewBox="0 0 84 84" fill="none" xmlns="http://www.w3.org/2000/svg">
  <g filter="url(#filter0_d_220_1626)">
    <rect y="0.722595" width="80" height="80" rx="16" fill="#FFF9F9" shape-rendering="crispEdges" />
    <circle cx="31" cy="34.7226" r="10" fill="#F9D3D1" />
    <path
      d="M31.3026 20.7858C31.5439 20.7497 31.7881 20.7662 32.0309 20.7638C33.8843 20.763 35.7385 20.7654 37.5927 20.7622C37.9512 20.7387 38.3397 20.854 38.5577 21.1699C38.8245 21.5894 38.9884 22.0693 39.2326 22.5021C39.3048 22.6526 39.4709 22.6973 39.6197 22.6942C42.4261 22.6973 45.2325 22.6902 48.039 22.6973C48.6042 22.6934 49.1483 23.065 49.373 23.6052C49.5316 23.9667 49.5016 24.3736 49.5031 24.7609C49.5031 28.21 49.5031 31.6591 49.5031 35.1089C49.5001 35.5017 49.5309 35.9102 49.4001 36.2866C49.2302 36.7978 48.8206 37.2126 48.3268 37.3772C48.0179 37.4846 47.6872 37.4682 47.3671 37.4697C42.3314 37.4674 37.2965 37.4713 32.2609 37.4682C31.7152 37.4807 31.1658 37.2188 30.8419 36.7562C30.5931 36.4238 30.4917 35.9965 30.4969 35.5801C30.4969 31.0067 30.4969 26.4333 30.4969 21.8599C30.4684 21.3589 30.8359 20.8822 31.3026 20.7858ZM31.6251 21.9399C31.6243 23.0219 31.6243 24.1039 31.6251 25.1859C32.5638 25.1906 33.5033 25.1796 34.4413 25.1906C34.7494 25.1788 35.0297 25.4556 35.0222 25.7802C35.0252 26.1001 34.7449 26.3722 34.4405 26.3581C33.5018 26.3698 32.563 26.3573 31.6243 26.3643C31.6251 29.3061 31.6251 32.2479 31.6243 35.1905C31.6266 35.4547 31.6649 35.7377 31.8408 35.9424C32.0422 36.2152 32.3872 36.3007 32.7028 36.2936C37.4641 36.2929 42.2254 36.2921 46.9875 36.2936C47.3302 36.2905 47.7173 36.3297 48.0059 36.0945C48.2817 35.8922 48.3855 35.5308 48.3757 35.1936C48.3749 32.2503 48.3749 29.3069 48.3757 26.3635C44.608 26.3612 40.8403 26.3635 37.0726 26.362C36.9012 26.3604 36.7156 26.333 36.5893 26.2012C36.3871 26.0131 36.351 25.6689 36.5126 25.4415C36.6284 25.2502 36.8561 25.182 37.062 25.1867C40.8335 25.1851 44.6042 25.1875 48.3749 25.1859C48.3659 24.8338 48.3967 24.4802 48.3591 24.1298C48.3201 23.9479 48.1322 23.8553 47.9653 23.8718C45.1852 23.8687 42.4043 23.8726 39.6242 23.8695C39.2116 23.8734 38.7884 23.7346 38.4968 23.4194C38.1263 22.9952 37.9579 22.4331 37.6919 21.9391C35.6693 21.9415 33.6468 21.9391 31.6251 21.9399Z"
      fill="#CC0D00" stroke="#CC0D00" stroke-width="0.6" />
    <path
      d="M39.6085 39.0123C39.8279 38.7771 40.2338 38.7975 40.4292 39.0554C40.5683 39.2201 40.5622 39.4521 40.5653 39.6584C40.5592 40.9387 40.5698 42.2183 40.56 43.4987C44.2548 43.5167 47.9511 43.501 51.6459 43.5065C52.0022 43.5112 52.3599 43.4885 52.7147 43.5316C53.4114 43.621 54.0307 44.151 54.2637 44.8402C54.3712 45.1381 54.3817 45.4612 54.3824 45.7764C54.3802 46.5863 54.3809 47.3962 54.3824 48.2062C54.3824 48.4037 54.3629 48.6233 54.2193 48.7691C54.0059 49.013 53.594 49.0004 53.3956 48.744C53.2874 48.6194 53.2566 48.4476 53.2551 48.2853C53.2475 47.3704 53.2618 46.4554 53.249 45.5404C53.2633 45.0676 52.8567 44.6638 52.408 44.6865C48.4599 44.6779 44.5118 44.685 40.5645 44.6826C40.5637 45.8579 40.5637 47.0332 40.5645 48.2085C40.566 48.4069 40.542 48.6272 40.3984 48.773C40.1925 48.9996 39.8144 49.0012 39.6062 48.7777C39.4582 48.6311 39.4334 48.4084 39.4356 48.2077C39.4364 47.0324 39.4364 45.8579 39.4356 44.6826C35.4905 44.6842 31.5447 44.6795 27.5989 44.6857C27.1772 44.6646 26.7729 45.0174 26.7578 45.4659C26.727 46.4295 26.7616 47.3947 26.7421 48.3583C26.7488 48.7009 26.4332 48.9996 26.1055 48.9408C25.8003 48.9079 25.5966 48.5896 25.6199 48.283C25.6237 47.3186 25.6057 46.3526 25.6297 45.3883C25.6665 44.3745 26.5481 43.5057 27.5184 43.5112C31.4906 43.4979 35.4635 43.5128 39.4364 43.5042C39.4356 42.1963 39.4371 40.8885 39.4356 39.5807C39.4349 39.38 39.4574 39.1558 39.6085 39.0123Z"
      fill="#CC0D00" stroke="#CC0D00" stroke-width="0.6" />
    <path
      d="M20.7594 50.423C20.788 49.98 21.1547 49.6076 21.5854 49.6241C22.7413 49.6201 23.8988 49.606 25.0547 49.6319C25.5846 49.6609 25.768 50.2505 25.9671 50.6669C27.4899 50.6708 29.0133 50.6637 30.536 50.6708C31.0607 50.6551 31.5545 51.1028 31.5928 51.6524C31.6191 52.1236 31.6078 52.5972 31.601 53.0692C31.6093 53.3476 31.4162 53.6149 31.1501 53.6628C30.8502 53.7349 30.5203 53.4981 30.4932 53.1751C30.4556 52.7329 30.4895 52.2883 30.4782 51.8461C29.0163 51.843 27.5537 51.8437 26.0919 51.8453C25.8349 51.8437 25.5635 51.8171 25.3478 51.6587C25.0517 51.4619 24.9209 51.1067 24.7669 50.7955C23.8071 50.7962 22.8473 50.7955 21.8868 50.7955C21.8905 53.1218 21.8785 55.4481 21.8928 57.7736C21.8748 57.9884 22.0829 58.0794 22.2566 58.0605C24.8653 58.0605 27.4733 58.059 30.0821 58.0613C30.2309 58.0629 30.4526 58.0394 30.4639 57.8394C30.4992 57.1918 30.4692 56.5402 30.4759 55.8918C30.4849 55.6323 30.4406 55.3289 30.6225 55.1195C30.8224 54.8718 31.2245 54.8584 31.4365 55.096C31.6266 55.2779 31.6033 55.568 31.6078 55.8126C31.595 56.5175 31.6236 57.2232 31.5943 57.928C31.559 58.6517 30.9156 59.2507 30.2256 59.2343C27.5222 59.2374 24.8187 59.2398 22.1153 59.2335C21.4125 59.2413 20.7932 58.6164 20.7594 57.8873V50.423Z"
      fill="#CC0D00" stroke="#CC0D00" stroke-width="0.6" />
    <path
      d="M34.7525 49.9447C34.9186 49.7048 35.211 49.6154 35.4838 49.6201C36.5631 49.6186 37.6431 49.6178 38.7224 49.6201C38.9787 49.6115 39.2462 49.7103 39.4048 49.9283C39.5642 50.1549 39.6611 50.4199 39.7859 50.6676C41.2342 50.6676 42.6825 50.6692 44.1315 50.6669C44.3818 50.6645 44.6471 50.6676 44.8696 50.8041C45.2183 50.9977 45.4363 51.4047 45.4228 51.8163C45.4213 53.8258 45.4288 55.8361 45.4183 57.8465C45.4183 58.5945 44.7727 59.2476 44.0571 59.2335C41.3514 59.2382 38.6465 59.2382 35.9407 59.2335C35.2245 59.2468 34.5789 58.5905 34.5811 57.841C34.5699 55.4904 34.5819 53.1398 34.5751 50.7892C34.5751 50.5014 34.5676 50.18 34.7525 49.9447ZM35.7048 50.7962C35.7048 53.0951 35.704 55.3947 35.7048 57.6944C35.6754 57.8935 35.813 58.0809 36.0137 58.0582C38.6728 58.0613 41.3311 58.0613 43.9902 58.0582C44.1473 58.0691 44.3029 57.9531 44.2909 57.7759C44.3037 55.8009 44.2894 53.8243 44.2976 51.8476C42.8148 51.839 41.3326 51.8469 39.8498 51.8445C39.5957 51.8445 39.3312 51.7951 39.1267 51.6297C38.8554 51.4282 38.7352 51.0918 38.5878 50.7954C37.6266 50.7962 36.666 50.7947 35.7048 50.7962Z"
      fill="#CC0D00" stroke="#CC0D00" stroke-width="0.6" />
    <path
      d="M48.3953 50.5591C48.3645 50.1302 48.6546 49.6833 49.0808 49.6401C49.6587 49.5915 50.2412 49.6331 50.8214 49.6198C51.4708 49.6346 52.1232 49.5876 52.771 49.6433C53.2581 49.7272 53.4039 50.2776 53.6068 50.6688C55.1355 50.6712 56.665 50.6626 58.1938 50.672C58.7304 50.6626 59.2009 51.1377 59.2407 51.6904V57.8822C59.2106 58.6168 58.5838 59.2456 57.8766 59.2339C56.4298 59.2394 54.983 59.2386 53.5362 59.2347C53.1859 59.2629 52.8597 58.9234 52.9296 58.5541C52.9672 58.2585 53.243 58.0476 53.5234 58.0641C54.9033 58.0562 56.284 58.0609 57.6639 58.0633C57.7864 58.057 57.9209 58.0672 58.0284 57.9935C58.1193 57.8916 58.1081 57.7434 58.1148 57.6156C58.1103 55.6915 58.1156 53.7682 58.1126 51.8441C56.6598 51.8457 55.2069 51.8426 53.7541 51.8465C53.4926 51.8457 53.2152 51.8253 52.9935 51.6661C52.6929 51.4693 52.5591 51.111 52.405 50.7958C51.4437 50.7958 50.4832 50.7951 49.5219 50.7966C49.5204 53.0712 49.5242 55.3465 49.5204 57.6211C49.5174 57.7849 49.5295 58.0256 49.7316 58.0452C50.0939 58.086 50.4599 58.0499 50.8229 58.0578C51.0537 58.0625 51.3288 58.0421 51.4971 58.2413C51.7316 58.4741 51.6985 58.9171 51.434 59.1116C51.1935 59.2919 50.8778 59.2245 50.6012 59.2378C50.1112 59.2135 49.5821 59.3217 49.1296 59.07C48.6726 58.8262 48.3818 58.3016 48.3961 57.7677C48.3931 55.3653 48.3938 52.9622 48.3953 50.5591Z"
      fill="#CC0D00" stroke="#CC0D00" stroke-width="0.6" />
  </g>
  <defs>
    <filter id="filter0_d_220_1626" x="0" y="0" width="84" height="84" filterUnits="userSpaceOnUse"
      color-interpolation-filters="sRGB">
      <feFlood flood-opacity="0" result="BackgroundImageFix" />
      <feColorMatrix in="SourceAlpha" type="matrix"
        values="0 0 0 0 0 0 0 0 0 0 0 0 0 0 0 0 0 0 127 0" result="hardAlpha" />
      <feOffset dx="4" dy="4" />
      <feComposite in2="hardAlpha" operator="out" />
      <feColorMatrix type="matrix"
        values="0 0 0 0 0.976471 0 0 0 0 0.827451 0 0 0 0 0.819608 0 0 0 0.3 0" />
      <feBlend mode="normal" in2="BackgroundImageFix" result="effect1_dropShadow_3701_5370" />
      <feBlend mode="normal" in="SourceGraphic" in2="effect1_dropShadow_3701_5370" result="shape" />
    </filter>
  </defs>
</svg>