<svg width="84" height="84" viewBox="0 0 84 84" fill="none" xmlns="http://www.w3.org/2000/svg">
  <g filter="url(#filter0_d_9000_32054)">
    <rect width="80" height="80" rx="16" fill="#FFF9F9" shape-rendering="crispEdges" />
    <circle cx="31" cy="34" r="10" fill="#F9D3D1" />
    <path
      d="M28.9034 20.8912H51.0957C51.7846 20.951 52.3885 21.5414 52.4198 22.24C52.4407 22.8611 52.4183 23.4836 52.4295 24.1061C53.7358 24.1069 55.0428 24.1039 56.3498 24.1076C57.2142 24.1091 58.0577 24.5503 58.5637 25.2489C58.8862 25.6796 59.0631 26.2066 59.1086 26.7403V41.1682C59.0497 41.4429 58.7996 41.6728 58.5078 41.6422C58.2099 41.6287 57.9688 41.3466 57.9912 41.051C57.986 36.5455 57.9905 32.0408 57.989 27.5353C57.9815 27.1076 58.0353 26.6567 57.8569 26.2536C57.6128 25.6572 56.9992 25.2318 56.3528 25.2273C55.0443 25.2228 53.7358 25.2273 52.428 25.2258C52.4265 25.5983 52.4265 25.9715 52.428 26.3447C53.6358 26.3492 54.8443 26.338 56.052 26.3499C56.5081 26.3537 56.8887 26.7791 56.8671 27.23C56.8716 33.6523 56.8686 40.0746 56.8686 46.4962C56.9104 46.9941 56.473 47.4547 55.9706 47.4233C45.472 47.427 34.9726 47.4218 24.4733 47.4255C24.159 47.4173 23.8112 47.4696 23.5328 47.2904C23.2625 47.1247 23.1155 46.8075 23.1312 46.4955C23.1289 40.2239 23.1319 33.9524 23.1297 27.6801C23.1386 27.3733 23.0841 27.0359 23.2551 26.7605C23.4103 26.4947 23.7156 26.335 24.0224 26.3462C25.2055 26.3417 26.3894 26.3492 27.5725 26.3425C27.5725 25.9707 27.5717 25.599 27.574 25.228C26.2655 25.2243 24.9562 25.2243 23.6484 25.2273C23.0005 25.2303 22.3862 25.6565 22.1421 26.2544C21.972 26.6321 22.0145 27.0568 22.0108 27.4599C22.0108 34.1024 22.0108 40.7457 22.0108 47.3882C22.016 47.8107 21.9667 48.2578 22.1511 48.6527C22.4101 49.2678 23.0603 49.682 23.7268 49.6634C34.5755 49.6641 45.4242 49.6641 56.2729 49.6634C57.1515 49.6999 57.9658 48.9468 57.9838 48.0652C57.9987 46.6209 57.9815 45.175 57.9912 43.7299C57.9651 43.4082 58.2555 43.1126 58.5779 43.1403C58.8422 43.144 59.0452 43.3605 59.1086 43.6045V48.225C59.0347 48.7729 58.8399 49.3125 58.4839 49.741C57.9569 50.4046 57.1164 50.7942 56.2707 50.783C51.9205 50.7845 47.5695 50.783 43.2193 50.7838C43.3596 51.84 43.5022 52.8969 43.6455 53.9539C44.0463 53.9643 44.486 53.8912 44.848 54.1099C45.1369 54.2704 45.3264 54.566 45.4063 54.8817C45.6616 55.817 45.9311 56.7493 46.1789 57.6861C46.3603 58.3377 45.8519 59.0296 45.1928 59.1088H34.8114C34.3613 59.0438 33.9552 58.7199 33.8321 58.2765C33.7313 57.9719 33.8186 57.654 33.9052 57.3584C34.1374 56.5351 34.3635 55.7095 34.5919 54.8847C34.6711 54.5674 34.8607 54.2726 35.151 54.1121C35.5116 53.8897 35.9527 53.9651 36.3543 53.9539C36.4969 52.8969 36.6402 51.84 36.7805 50.783C32.4288 50.783 28.0778 50.7845 23.7268 50.783C23.0438 50.789 22.3631 50.5412 21.851 50.0888C21.3054 49.6238 20.9807 48.9416 20.8911 48.2369V26.744C20.9389 26.1357 21.1673 25.5371 21.5726 25.0772C22.0847 24.4779 22.8595 24.1129 23.6477 24.1069C24.9562 24.1017 26.2647 24.1114 27.5732 24.1024C27.5784 23.4821 27.5605 22.8603 27.5799 22.24C27.6105 21.5421 28.2137 20.951 28.9034 20.8912ZM28.6936 22.3849C28.6899 23.3799 28.6929 24.3749 28.6929 25.3699C29.9021 25.3728 31.1128 25.3639 32.322 25.3736C32.6572 25.3661 32.9334 25.7125 32.8572 26.0372C32.8095 26.3201 32.5251 26.5149 32.2444 26.4895C31.0606 26.4903 29.8767 26.4888 28.6929 26.4895C28.6921 33.0947 28.6914 39.6992 28.6929 46.3044C36.2311 46.3051 43.7686 46.3051 51.3069 46.3044C51.3084 39.6999 51.3076 33.0947 51.3069 26.4895C45.846 26.4873 40.3835 26.494 34.9226 26.4865C34.5255 26.5067 34.2299 26.0364 34.418 25.6863C34.5292 25.4348 34.8196 25.3422 35.0764 25.3684C40.4866 25.3713 45.8967 25.3691 51.3076 25.3699C51.3069 24.3763 51.3099 23.3836 51.3061 22.3908C51.3367 22.1609 51.1188 21.9751 50.8978 22.0109C43.632 22.0109 36.3662 22.0109 29.1012 22.0109C28.8825 21.9758 28.6645 22.1572 28.6936 22.3849ZM24.2501 27.4651C24.2501 33.7449 24.2501 40.0246 24.2501 46.3044C25.357 46.3059 26.464 46.3044 27.571 46.3051C27.5784 40.0284 27.5628 33.7508 27.5792 27.4741C26.47 27.4532 25.36 27.4711 24.2501 27.4651ZM52.428 46.3051C53.535 46.3044 54.642 46.3051 55.7497 46.3044C55.7497 40.0246 55.7497 33.7449 55.7489 27.4651C54.6427 27.4644 53.5358 27.4658 52.4288 27.4644C52.4258 33.7441 52.4273 40.0246 52.428 46.3051ZM37.9158 50.7815C37.7643 51.8377 37.6277 52.8962 37.4859 53.9539C39.1616 53.9531 40.8374 53.9524 42.5139 53.9546C42.3698 52.8954 42.2392 51.8355 42.0802 50.7793C40.6918 50.7882 39.3042 50.783 37.9158 50.7815ZM35.6974 55.0802C35.4392 56.0506 35.1533 57.0143 34.9017 57.9869C38.3002 57.9906 41.6988 57.9906 45.0973 57.9869C44.8472 57.0143 44.5599 56.0506 44.3023 55.0802C41.4345 55.0683 38.566 55.0683 35.6974 55.0802Z"
      fill="#CC0D00" stroke="#CC0D00" stroke-width="0.318479" />
    <path
      d="M30.1716 23.1689C30.5598 22.9972 31.0248 23.3905 30.9188 23.8018C30.8569 24.193 30.3373 24.3885 30.0335 24.1347C29.6864 23.8966 29.773 23.301 30.1716 23.1689Z"
      fill="#CC0D00" stroke="#CC0D00" stroke-width="0.318479" />
    <path
      d="M32.4123 23.1681C32.7997 22.9987 33.2617 23.3891 33.1587 23.7996C33.0983 24.1908 32.5795 24.3886 32.2742 24.1363C31.9249 23.8989 32.0114 23.2995 32.4123 23.1681Z"
      fill="#CC0D00" stroke="#CC0D00" stroke-width="0.318479" />
    <path
      d="M34.6501 23.1688C35.0375 22.9978 35.5017 23.3882 35.3972 23.7995C35.3375 24.1944 34.812 24.3907 34.5075 24.1317C34.1649 23.8913 34.2537 23.3001 34.6501 23.1688Z"
      fill="#CC0D00" stroke="#CC0D00" stroke-width="0.318479" />
    <path
      d="M30.3963 29.2075C30.6613 29.0597 30.9748 29.0828 31.2674 29.0813C31.7877 29.088 32.308 29.0731 32.8282 29.0873C33.1104 29.0903 33.3522 29.3456 33.3552 29.6247C33.3701 29.9121 33.1283 30.1868 32.8387 30.1957C32.2035 30.2122 31.5675 30.1965 30.9323 30.2025C30.9271 31.5184 30.939 32.8337 30.9263 34.1496C32.2438 34.1735 33.562 34.1444 34.8794 34.1646C34.9011 33.6995 34.8765 33.2337 34.8906 32.7687C34.8891 32.4754 35.1534 32.2186 35.4452 32.2261C35.7349 32.2171 36.0028 32.4694 36.0028 32.7605C36.0118 33.2561 36.0103 33.7533 36.0028 34.2489C35.9879 34.8042 35.4855 35.2827 34.9309 35.276C33.5829 35.279 32.2356 35.279 30.8882 35.276C30.3053 35.2835 29.7917 34.7572 29.8134 34.175C29.8096 32.8575 29.8119 31.5393 29.8126 30.2219C29.7955 29.8083 30.0239 29.3941 30.3963 29.2075Z"
      fill="#CC0D00" stroke="#CC0D00" stroke-width="0.318479" />
    <path
      d="M37.4769 29.1236C37.5896 29.0781 37.7135 29.0848 37.8337 29.0803C41.7622 29.0855 45.6921 29.0773 49.6206 29.0848C49.9722 29.0654 50.2663 29.4349 50.1708 29.773C50.1118 30.0477 49.8296 30.2261 49.5564 30.2015C45.6227 30.2015 41.689 30.2015 37.7545 30.2015C37.506 30.2201 37.247 30.0798 37.1634 29.838C37.0529 29.5655 37.2022 29.2274 37.4769 29.1236Z"
      fill="#CC0D00" stroke="#CC0D00" stroke-width="0.318479" />
    <path
      d="M34.8367 29.9851C34.9449 29.8776 35.0658 29.7656 35.2248 29.747C35.5204 29.6888 35.8302 29.9149 35.8683 30.2128C35.9071 30.4135 35.8085 30.6061 35.6667 30.7412C35.0069 31.3973 34.3523 32.0587 33.6917 32.7141C33.4035 33.0276 32.8654 33.0388 32.5705 32.7297C32.2734 32.4319 31.9629 32.1453 31.6852 31.8303C31.3896 31.4548 31.7785 30.8532 32.2436 30.9652C32.6235 31.0749 32.8288 31.46 33.1221 31.7004C33.6946 31.1294 34.2672 30.5591 34.8367 29.9851Z"
      fill="#CC0D00" stroke="#CC0D00" stroke-width="0.318479" />
    <path
      d="M37.4762 31.363C37.568 31.3324 37.6628 31.3182 37.7613 31.3212C41.692 31.322 45.6228 31.3212 49.5535 31.3212C49.8722 31.2846 50.1902 31.5429 50.1865 31.8698C50.2029 32.2035 49.8834 32.4752 49.5595 32.4409C45.625 32.4409 41.6906 32.4409 37.7561 32.4409C37.4829 32.4655 37.2007 32.2864 37.1433 32.0109C37.0746 31.7512 37.2261 31.4593 37.4762 31.363Z"
      fill="#CC0D00" stroke="#CC0D00" stroke-width="0.318479" />
    <path
      d="M29.8155 38.5872C29.8088 38.0408 30.2776 37.5429 30.8247 37.5243C31.4696 37.5079 32.1146 37.5198 32.7595 37.5183C33.0349 37.4982 33.3021 37.7027 33.3462 37.9759C33.4134 38.2871 33.1603 38.62 32.8401 38.6305C32.2049 38.6469 31.5682 38.6312 30.9322 38.6372C30.9337 39.9457 30.9262 41.2542 30.9352 42.5627C31.021 42.6292 31.1591 42.5777 31.2644 42.5948C32.4751 42.5829 33.6858 42.609 34.8958 42.5814C34.8846 42.1067 34.8794 41.6312 34.895 41.1572C34.9152 40.7362 35.4743 40.5048 35.7915 40.7787C36.0856 40.9982 35.9945 41.4013 36.0072 41.7178C35.9901 42.1134 36.0468 42.5157 35.9684 42.9061C35.8527 43.3681 35.4026 43.7145 34.9264 43.7107C33.5821 43.7137 32.237 43.7137 30.8926 43.7107C30.3082 43.7212 29.7909 43.1935 29.8133 42.609C29.8118 41.2684 29.8081 39.9278 29.8155 38.5872Z"
      fill="#CC0D00" stroke="#CC0D00" stroke-width="0.318479" />
    <path
      d="M37.4783 37.5577C37.5903 37.5129 37.7142 37.5189 37.8336 37.5151C41.7643 37.5211 45.6958 37.5122 49.6273 37.5196C49.9766 37.5039 50.2655 37.8727 50.1707 38.2086C50.111 38.4825 49.8303 38.6602 49.5571 38.6363C45.6242 38.6363 41.6904 38.6363 37.7575 38.6363C37.5104 38.6557 37.2514 38.5183 37.1663 38.2787C37.0506 38.0048 37.2006 37.6614 37.4783 37.5577Z"
      fill="#CC0D00" stroke="#CC0D00" stroke-width="0.318479" />
    <path
      d="M34.9167 38.3445C35.0943 38.1556 35.4033 38.1176 35.6191 38.2631C35.9214 38.4438 35.9609 38.9088 35.6982 39.1424C35.0309 39.8127 34.3621 40.4815 33.6918 41.1489C33.4036 41.4624 32.8655 41.4736 32.5706 41.1645C32.2735 40.8667 31.9623 40.5801 31.6846 40.2643C31.392 39.8904 31.7757 39.2925 32.2385 39.3992C32.6214 39.5045 32.8274 39.8948 33.1222 40.1352C33.7224 39.5403 34.3158 38.9387 34.9167 38.3445Z"
      fill="#CC0D00" stroke="#CC0D00" stroke-width="0.318479" />
    <path
      d="M37.4733 39.7992C37.5644 39.7671 37.6584 39.7529 37.7562 39.7559C41.6877 39.7559 45.6192 39.7567 49.5506 39.7559C49.8432 39.7246 50.1433 39.9328 50.1799 40.2314C50.2403 40.5561 49.9589 40.883 49.6298 40.8726C45.6722 40.8801 41.7138 40.8741 37.7562 40.8756C37.5084 40.895 37.2486 40.7554 37.165 40.5151C37.0523 40.2433 37.2001 39.9045 37.4733 39.7992Z"
      fill="#CC0D00" stroke="#CC0D00" stroke-width="0.318479" />
  </g>
  <defs>
    <filter id="filter0_d_9000_32054" x="0" y="0" width="84" height="84"
      filterUnits="userSpaceOnUse" color-interpolation-filters="sRGB">
      <feFlood flood-opacity="0" result="BackgroundImageFix" />
      <feColorMatrix in="SourceAlpha" type="matrix"
        values="0 0 0 0 0 0 0 0 0 0 0 0 0 0 0 0 0 0 127 0" result="hardAlpha" />
      <feOffset dx="4" dy="4" />
      <feComposite in2="hardAlpha" operator="out" />
      <feColorMatrix type="matrix"
        values="0 0 0 0 0.976471 0 0 0 0 0.827451 0 0 0 0 0.819608 0 0 0 0.3 0" />
      <feBlend mode="normal" in2="BackgroundImageFix" result="effect1_dropShadow_9000_32054" />
      <feBlend mode="normal" in="SourceGraphic" in2="effect1_dropShadow_9000_32054" result="shape" />
    </filter>
  </defs>
</svg>