<svg width="84" height="85" viewBox="0 0 84 85" fill="none" xmlns="http://www.w3.org/2000/svg">
  <g filter="url(#filter0_d_196_129)">
    <rect y="0.722595" width="80" height="80" rx="16" fill="#FFF9F9" shape-rendering="crispEdges" />
    <circle cx="31" cy="34.7226" r="10" fill="#F9D3D1" />
    <path
      d="M39.461 20.2313C40.7485 19.9313 42.1586 20.7632 42.5282 22.0308C42.9316 23.2272 42.3293 24.6464 41.1926 25.1924C40.0799 25.7823 38.5844 25.4178 37.8619 24.3888C37.1047 23.3962 37.2058 21.8775 38.0856 20.9927C38.4527 20.6066 38.9398 20.3398 39.461 20.2313ZM39.7684 21.5204C39.1221 21.6223 38.6176 22.2595 38.6797 22.914C38.707 23.6199 39.3823 24.2106 40.0857 24.146C40.8247 24.1195 41.4312 23.3829 41.3119 22.6522C41.2357 21.9264 40.4834 21.3771 39.7684 21.5204Z"
      fill="#CC0D00" stroke="#CC0D00" stroke-width="0.0883752" />
    <path
      d="M29.4343 26.4319C31.2263 24.702 33.4484 23.4211 35.8445 22.7401C35.958 23.1684 36.1005 23.5893 36.1925 24.0226C33.4145 24.8022 30.9074 26.4916 29.1128 28.7476C27.967 30.1818 27.1128 31.8463 26.604 33.6102C26.1798 33.4884 25.7548 33.3691 25.3298 33.249C26.0672 30.6681 27.4972 28.2903 29.4343 26.4319Z"
      fill="#CC0D00" stroke="#CC0D00" stroke-width="0.0883752" />
    <path
      d="M44.1612 24.1205C44.2946 23.6996 44.4246 23.2779 44.5572 22.857C47.2366 23.6839 49.6716 25.2754 51.5085 27.394C52.9791 29.0808 54.0653 31.0983 54.6709 33.2524C54.2467 33.3742 53.8225 33.4943 53.3975 33.6128C52.6916 31.1107 51.274 28.814 49.3411 27.0741C47.8563 25.7286 46.0742 24.7154 44.1612 24.1205Z"
      fill="#CC0D00" stroke="#CC0D00" stroke-width="0.0883752" />
    <path
      d="M38.6474 30.9284C39.5306 30.7296 40.4635 30.7312 41.3467 30.9268C41.7585 31.0336 41.8562 31.5009 41.8156 31.8688C42.0932 31.9699 42.3674 32.0825 42.6342 32.2093C42.8098 32.0395 42.9847 31.8232 43.2465 31.7992C43.5331 31.7536 43.7684 31.9508 43.9822 32.1099C44.6003 32.5871 45.1678 33.1546 45.563 33.8315C45.7337 34.1969 45.4661 34.5474 45.2001 34.7744C45.3261 35.042 45.4387 35.3146 45.5398 35.5921C45.9077 35.5515 46.375 35.6501 46.4818 36.0619C46.6774 36.9459 46.6782 37.8788 46.4794 38.762C46.3683 39.168 45.9044 39.2633 45.5398 39.2244C45.4379 39.5011 45.3261 39.7745 45.2001 40.0413C45.3534 40.2045 45.5489 40.3578 45.597 40.5898C45.6425 40.7787 45.5912 40.98 45.4793 41.1366C45.0129 41.8218 44.4155 42.4199 43.7303 42.8864C43.5729 42.9983 43.3699 43.0513 43.1802 43.0041C42.949 42.956 42.7966 42.7613 42.6342 42.6072C42.3666 42.734 42.0932 42.8466 41.8156 42.9477C41.8554 43.3123 41.7609 43.7746 41.3558 43.8864C40.4718 44.0861 39.5372 44.0861 38.6523 43.8889C38.2422 43.7812 38.1436 43.3147 38.1851 42.9477C37.9075 42.8466 37.6341 42.7331 37.3665 42.6072C37.1917 42.7762 37.0177 42.9891 36.7584 43.0156C36.4518 43.0654 36.2057 42.8441 35.9779 42.676C35.3789 42.2045 34.8271 41.6494 34.4393 40.9899C34.262 40.6237 34.5313 40.2691 34.8022 40.0438C34.6755 39.7761 34.562 39.5027 34.4609 39.2244C34.093 39.2641 33.6257 39.1664 33.5189 38.7546C33.3308 37.9344 33.3333 37.0752 33.4758 36.2475C33.5031 36.0462 33.586 35.8407 33.7608 35.723C33.9596 35.5681 34.2248 35.6029 34.4609 35.5921C34.5611 35.3138 34.6746 35.0403 34.8022 34.7727C34.533 34.5474 34.2637 34.1969 34.4369 33.8307C34.8147 33.1836 35.3524 32.6376 35.9365 32.1728C36.1767 31.9955 36.4303 31.7511 36.7559 31.8C37.016 31.8249 37.1908 32.0395 37.3665 32.2093C37.6333 32.0825 37.9067 31.969 38.1851 31.8688C38.1453 31.5026 38.2389 31.0378 38.6474 30.9284ZM39.5099 32.1281C39.4138 32.5954 39.0699 32.9989 38.6043 33.1298C38.1561 33.2582 37.7584 33.5904 37.272 33.5523C37.0343 33.5465 36.8188 33.4388 36.6134 33.3295C36.3656 33.5424 36.1337 33.7735 35.9224 34.0221C36.0458 34.2466 36.1552 34.491 36.1461 34.7545C36.1585 35.1116 35.9497 35.4157 35.8254 35.7363C35.7128 36.0172 35.6357 36.3279 35.412 36.5458C35.2314 36.7463 34.9746 36.844 34.7219 36.9186C34.6978 37.2442 34.697 37.5723 34.7219 37.8987C35.1842 37.9948 35.586 38.3312 35.7169 38.7919C35.8462 39.2467 36.185 39.6486 36.1436 40.1424C36.1361 40.3777 36.0301 40.5914 35.9216 40.7944C36.1345 41.043 36.3656 41.2741 36.6134 41.4862C36.9638 41.2683 37.4121 41.1813 37.8015 41.3495C38.1088 41.4895 38.4179 41.6237 38.736 41.7381C39.1461 41.8864 39.4171 42.2733 39.5107 42.6884C39.8363 42.7149 40.1636 42.7149 40.49 42.6884C40.5869 42.2269 40.9217 41.8226 41.3823 41.6917C41.838 41.5633 42.2398 41.2227 42.7345 41.2642C42.9698 41.2716 43.1835 41.3785 43.3873 41.487C43.6342 41.2733 43.8646 41.0421 44.0791 40.7969C43.814 40.3893 43.7751 39.8532 44.0203 39.4273C44.2399 39.0338 44.2854 38.5383 44.6342 38.2252C44.8091 38.0503 45.0468 37.9675 45.278 37.8979C45.3029 37.5715 45.3029 37.2442 45.278 36.9178C44.8173 36.82 44.4155 36.4853 44.2838 36.0263C44.1554 35.5714 43.8165 35.1696 43.8554 34.6766C43.8621 34.4388 43.9698 34.2243 44.0791 34.0196C43.8654 33.7735 43.6342 33.5424 43.3865 33.3295C43.0352 33.5465 42.5878 33.6352 42.1984 33.4662C41.8919 33.327 41.5845 33.1919 41.268 33.0801C40.8579 32.9301 40.5836 32.544 40.49 32.1281C40.1636 32.1008 39.8363 32.1008 39.5099 32.1281Z"
      fill="#CC0D00" stroke="#CC0D00" stroke-width="0.0883752" />
    <path
      d="M39.5389 33.5604C40.5463 33.4386 41.5961 33.7302 42.3914 34.3607C43.249 35.0268 43.7991 36.0691 43.8646 37.1536C43.94 38.2133 43.5505 39.2954 42.8181 40.0651C42.041 40.8985 40.8786 41.3567 39.7419 41.2705C38.6176 41.2034 37.543 40.6069 36.8802 39.698C36.1734 38.751 35.9448 37.4701 36.2778 36.3367C36.6805 34.8678 38.0252 33.7252 39.5389 33.5604ZM39.5414 34.9017C39.2099 34.9622 38.8918 35.0898 38.6101 35.2737C37.567 35.9241 37.1478 37.374 37.688 38.4793C38.1967 39.6384 39.6391 40.2581 40.8289 39.8173C42.0576 39.4254 42.8206 38.0095 42.4668 36.7684C42.1694 35.509 40.8106 34.6366 39.5414 34.9017Z"
      fill="#CC0D00" stroke="#CC0D00" stroke-width="0.0883752" />
    <path
      d="M24.7034 34.7169C25.9785 34.3266 27.4525 35.0773 27.8965 36.33C28.3854 37.5396 27.8087 39.0426 26.6413 39.6209C25.5891 40.1917 24.179 39.9158 23.4126 38.9986C22.6081 38.1014 22.5543 36.6473 23.2883 35.692C23.6338 35.2214 24.1417 34.8743 24.7034 34.7169ZM25.1252 35.9762C24.4574 36.1129 23.9777 36.823 24.1144 37.4941C24.2171 38.2008 24.9628 38.7203 25.6612 38.5703C26.3671 38.4568 26.8783 37.702 26.7151 37.0036C26.5883 36.2968 25.8219 35.8022 25.1252 35.9762Z"
      fill="#CC0D00" stroke="#CC0D00" stroke-width="0.0883752" />
    <path
      d="M53.8681 34.718C55.1224 34.336 56.574 35.0527 57.0388 36.2756C57.555 37.4745 57.0115 38.9923 55.8549 39.5938C54.7803 40.2094 53.3038 39.9236 52.535 38.9534C51.7247 38.0064 51.7379 36.4852 52.5656 35.5531C52.9037 35.1538 53.3635 34.8588 53.8681 34.718ZM54.3702 35.9632C53.7239 36.0536 53.216 36.6799 53.2599 37.3311C53.2749 38.0171 53.9004 38.6137 54.5872 38.593C55.3039 38.6095 55.9402 37.955 55.9054 37.2392C55.9087 36.4678 55.1316 35.8116 54.3702 35.9632Z"
      fill="#CC0D00" stroke="#CC0D00" stroke-width="0.0883752" />
    <path
      d="M25.4441 41.4513C25.87 41.3345 26.295 41.2143 26.72 41.0917C27.2561 42.984 28.2006 44.7562 29.4674 46.2608C29.131 46.5467 28.793 46.8308 28.455 47.1142C27.0655 45.4671 26.0315 43.5242 25.4441 41.4513Z"
      fill="#CC0D00" stroke="#CC0D00" stroke-width="0.0883752" />
    <path
      d="M53.395 41.0909C53.8208 41.2077 54.2467 41.3261 54.6701 41.4521C54.0976 43.4637 53.11 45.3536 51.781 46.9692C51.4397 46.69 51.0975 46.4099 50.757 46.1282C51.9683 44.6518 52.8722 42.9277 53.395 41.0909Z"
      fill="#CC0D00" stroke="#CC0D00" stroke-width="0.0883752" />
    <path
      d="M37.7849 46.8774C38.4469 46.275 39.3607 45.9635 40.253 46.0372C41.0957 46.0952 41.9051 46.4971 42.4652 47.1276C43.0833 47.8103 43.3948 48.7597 43.2929 49.6769C43.2299 50.3041 42.9689 50.9015 42.5812 51.3961C43.437 51.6007 44.162 52.2403 44.4702 53.0647C44.669 52.962 44.8729 52.8717 45.0825 52.7938C44.6061 52.063 44.5025 51.1003 44.848 50.295C45.2648 49.2792 46.3601 48.594 47.4578 48.6819C48.5946 48.7357 49.6335 49.609 49.8697 50.7242C50.0403 51.4276 49.8879 52.1848 49.5043 52.793C50.4993 53.0647 51.2616 54.0167 51.2665 55.0548C51.2682 56.687 51.2723 58.3192 51.264 59.9514C51.2715 60.2993 50.9616 60.6092 50.6145 60.6026C48.6285 60.6125 46.6434 60.6034 44.6574 60.6067C44.6193 60.9489 44.3526 61.2745 43.9872 61.2654C41.3293 61.272 38.6706 61.272 36.0119 61.2654C35.6473 61.2745 35.3797 60.9489 35.3433 60.6067C33.3581 60.6034 31.3722 60.6125 29.387 60.6026C29.0416 60.6092 28.7309 60.3035 28.7367 59.9572C28.7259 58.378 28.7375 56.798 28.7309 55.2189C28.6671 54.1227 29.445 53.0755 30.4997 52.7913C30.0225 52.0614 29.9214 51.1003 30.2661 50.2958C30.6828 49.2784 31.7806 48.5924 32.8809 48.6827C34.0185 48.7382 35.0558 49.6139 35.2894 50.7308C35.4584 51.4342 35.3027 52.1881 34.9207 52.7963C35.1295 52.8725 35.3325 52.962 35.5297 53.0647C35.8387 52.2412 36.5637 51.5991 37.4195 51.3961C36.9241 50.7722 36.6465 49.9719 36.6929 49.1723C36.7302 48.3024 37.1345 47.4565 37.7849 46.8774ZM38.5438 47.9859C39.4966 47.7448 40.5041 47.7448 41.4569 47.9867C41.1155 47.6412 40.664 47.3968 40.1743 47.3595C39.5687 47.2974 38.963 47.5543 38.5438 47.9859ZM38.0268 49.6123C38.1221 50.1094 38.3665 50.5883 38.7741 50.8998C39.3856 51.3969 40.3011 51.4649 40.9813 51.0655C41.5182 50.7648 41.8786 50.2022 41.9689 49.5974C40.7493 48.9851 39.2365 48.9652 38.0268 49.6123ZM32.4749 50.0224C31.8287 50.1251 31.3258 50.7631 31.3887 51.4168C31.4177 52.0887 32.0308 52.6637 32.7036 52.6496C33.4443 52.6753 34.0997 51.9785 34.0301 51.2403C34.0027 50.4773 33.2223 49.8683 32.4749 50.0224ZM47.061 50.0216C46.4147 50.1227 45.9093 50.7598 45.9706 51.4135C45.9972 52.121 46.6749 52.7143 47.38 52.6471C48.0867 52.6181 48.6791 51.9412 48.6111 51.2362C48.5821 50.4773 47.8058 49.8708 47.061 50.0216ZM37.7269 52.6836C37.137 52.8037 36.678 53.3671 36.6879 53.9703C36.6838 55.9612 36.6871 57.9521 36.6863 59.9439C38.8959 59.9439 41.1048 59.9439 43.3144 59.9439C43.3128 57.9546 43.3169 55.9645 43.3128 53.9753C43.3244 53.3075 42.7535 52.6877 42.0832 52.6596C41.6822 52.6422 41.2804 52.6579 40.8794 52.6538C41.2357 53.9073 41.5977 55.1592 41.9515 56.4136C42.0269 56.6481 41.9706 56.9165 41.7949 57.093C41.3566 57.542 40.9117 57.9853 40.4635 58.4252C40.2207 58.6779 39.78 58.6788 39.5372 58.4252C39.0915 57.9836 38.6457 57.5412 38.2066 57.093C38.0152 56.9074 37.9746 56.6191 38.0583 56.3738C38.4129 55.1335 38.7675 53.8941 39.1213 52.6538C38.6565 52.667 38.1884 52.6181 37.7269 52.6836ZM30.059 55.1327C30.0565 56.5155 30.059 57.8983 30.0581 59.2811C31.8254 59.2811 33.5934 59.2811 35.3607 59.2811C35.3615 57.9265 35.359 56.571 35.3623 55.2164C35.4137 54.5055 34.731 53.8924 34.0317 53.9769C33.0938 53.9827 32.1551 53.9744 31.2172 53.9802C30.6091 53.9786 30.054 54.5204 30.059 55.1327ZM44.6409 55.131C44.6392 56.5147 44.6409 57.8975 44.64 59.2811C46.4073 59.2811 48.1753 59.2811 49.9426 59.2811C49.9434 57.9273 49.9409 56.5735 49.9442 55.2197C49.989 54.5784 49.4281 53.9769 48.7851 53.9802C47.7868 53.9777 46.7884 53.9769 45.79 53.9802C45.1852 53.9835 44.6367 54.5229 44.6409 55.131ZM39.9937 54.4425C39.7941 55.1045 39.6118 55.7715 39.4196 56.436C39.6126 56.6298 39.8057 56.8237 40.0004 57.0176C40.1951 56.8254 40.3881 56.6323 40.5811 56.4384C40.3831 55.774 40.2199 55.0979 39.9937 54.4425Z"
      fill="#CC0D00" stroke="#CC0D00" stroke-width="0.0883752" />
  </g>
  <defs>
    <filter id="filter0_d_196_129" x="0" y="0.722595" width="84" height="84"
      filterUnits="userSpaceOnUse" color-interpolation-filters="sRGB">
      <feFlood flood-opacity="0" result="BackgroundImageFix" />
      <feColorMatrix in="SourceAlpha" type="matrix"
        values="0 0 0 0 0 0 0 0 0 0 0 0 0 0 0 0 0 0 127 0" result="hardAlpha" />
      <feOffset dx="4" dy="4" />
      <feComposite in2="hardAlpha" operator="out" />
      <feColorMatrix type="matrix"
        values="0 0 0 0 0.976471 0 0 0 0 0.827451 0 0 0 0 0.819608 0 0 0 0.3 0" />
      <feBlend mode="normal" in2="BackgroundImageFix" result="effect1_dropShadow_3701_5370" />
      <feBlend mode="normal" in="SourceGraphic" in2="effect1_dropShadow_3701_5370" result="shape" />
    </filter>
  </defs>
</svg>