<svg width="84" height="85" viewBox="0 0 84 85" fill="none" xmlns="http://www.w3.org/2000/svg">
  <g filter="url(#filter0_d_275_159)">
    <rect y="0.722595" width="80" height="80" rx="16" fill="#FFF9F9" shape-rendering="crispEdges" />
    <circle cx="31" cy="34.7226" r="10" fill="#F9D3D1" />
    <path
      d="M34.1187 22.9006C34.9092 21.9714 36.1782 21.4798 37.3887 21.647C38.7579 21.8034 39.9761 22.8066 40.413 24.1103C40.6257 24.6921 40.6249 25.3177 40.6164 25.9287C42.3809 25.9287 44.1446 25.9295 45.9091 25.928C46.527 25.3123 47.1419 24.6928 47.7614 24.0787C49.3209 24.0787 50.8812 24.0826 52.4415 24.0764C52.6364 23.5586 53.0564 23.1233 53.5857 22.9484C54.1659 22.7411 54.8447 22.8613 55.3232 23.2473C55.8056 23.6233 56.0776 24.2498 56.0175 24.8593C55.9658 25.5119 55.5351 26.1144 54.938 26.3787C54.377 26.6407 53.6859 26.5852 53.1719 26.24C52.8337 26.0227 52.5887 25.6852 52.4407 25.3146C51.0499 25.3092 49.6592 25.3131 48.2684 25.3131C47.6489 25.9287 47.0356 26.5513 46.413 27.1639C44.4813 27.1585 42.5489 27.1631 40.6164 27.1616C40.6164 27.9837 40.6164 28.8051 40.6164 29.6272C43.3248 29.6257 46.0339 29.6303 48.7423 29.6249C48.9387 29.1079 49.3556 28.671 49.8857 28.4961C50.4474 28.2958 51.1023 28.4005 51.5778 28.7588C52.02 29.0832 52.3051 29.6141 52.3252 30.1635C52.356 30.7668 52.0639 31.3732 51.5762 31.7284C51.1016 32.0851 50.4482 32.1915 49.888 31.9911C49.3571 31.8162 48.9387 31.3801 48.7423 30.8623C46.0339 30.8569 43.3255 30.8616 40.6164 30.86C40.6164 31.6822 40.6164 32.5035 40.6164 33.3257C42.5481 33.3241 44.4798 33.3295 46.4115 33.3226C47.0356 33.9344 47.6481 34.5577 48.2676 35.1741C50.0699 35.1741 51.8721 35.178 53.6743 35.1726C53.8693 34.6548 54.2869 34.2195 54.8162 34.0446C55.3772 33.8435 56.0329 33.9475 56.5083 34.3058C57.0176 34.6772 57.3119 35.3221 57.2511 35.9508C57.2017 36.5849 56.7949 37.1744 56.2224 37.4502C55.6877 37.7191 55.0227 37.6976 54.5057 37.3971C54.1189 37.1821 53.833 36.8184 53.6743 36.41C51.7041 36.4054 49.7331 36.407 47.7629 36.4093C47.1419 35.7959 46.5286 35.1749 45.9091 34.5593C44.1454 34.5577 42.3809 34.5585 40.6164 34.5585C40.6164 36.8184 40.6164 39.0791 40.6164 41.339C45.5855 41.3375 50.5545 41.3421 55.5228 41.3367C55.7247 40.7974 56.1731 40.3505 56.7294 40.1879C57.3312 39.996 58.0262 40.1524 58.4908 40.5785C58.9215 40.9599 59.1558 41.5486 59.0995 42.1211C59.051 42.7144 58.6911 43.2676 58.1749 43.5604C57.6078 43.8902 56.865 43.884 56.3095 43.5327C55.9412 43.3185 55.6784 42.9617 55.5197 42.5718C50.5522 42.5726 45.5847 42.5711 40.6164 42.5718C40.6164 42.9825 40.6164 43.3932 40.6164 43.8047C41.1735 43.8054 41.7298 43.8031 42.2869 43.8054C42.4163 44.1791 42.5512 44.5521 42.6791 44.9265C42.7808 44.9666 42.8817 45.0082 42.9834 45.0498C43.3379 44.8741 43.6969 44.7093 44.0529 44.5359C45.1285 45.6146 46.2088 46.6879 47.2829 47.769C47.1088 48.125 46.9416 48.4855 46.7667 48.8415C46.8083 48.9402 46.8499 49.0388 46.8907 49.1389C47.2675 49.2622 47.6389 49.3994 48.0126 49.5319C48.0149 50.0882 48.0126 50.6445 48.0134 51.2016C48.7631 51.2024 49.5128 51.2008 50.2625 51.2016C50.8774 52.5808 51.4884 53.9616 52.104 55.3408C52.628 52.7288 53.1504 50.1167 53.6712 47.5047C55.4835 47.5016 57.2965 47.5039 59.1088 47.5031C59.1088 47.9138 59.1088 48.3245 59.1088 48.736C57.6325 48.7367 56.1569 48.7344 54.6814 48.7375C53.9725 52.2865 53.2629 55.8355 52.5525 59.3845C51.5207 57.0683 50.4936 54.7506 49.4627 52.4344C48.9796 52.4344 48.4965 52.4344 48.0134 52.4344C48.0126 52.9907 48.0149 53.5478 48.0126 54.1041C47.6389 54.2367 47.2675 54.3738 46.8915 54.4963C46.8499 54.5957 46.8083 54.6944 46.7659 54.7938C46.9416 55.1482 47.1049 55.5088 47.2837 55.8617C46.2127 56.9489 45.1285 58.0222 44.0491 59.1009C43.6962 58.9237 43.3363 58.7619 42.9834 58.5862C42.8825 58.6271 42.7823 58.6671 42.6814 58.7072C42.5504 59.0817 42.4179 59.4554 42.2869 59.8306C40.762 59.8314 39.238 59.8321 37.7131 59.8298C37.5829 59.4554 37.4473 59.0824 37.3202 58.7072C37.2023 58.671 37.0782 58.5569 36.9526 58.6248C36.6159 58.7758 36.2877 58.9453 35.9525 59.1009C34.8722 58.0253 33.795 56.9458 32.7179 55.8671C32.8905 55.5096 33.06 55.1505 33.2333 54.7938C33.191 54.6951 33.1501 54.5973 33.1101 54.4986C32.7371 54.3653 32.3627 54.2336 31.9874 54.1049C31.9851 53.5478 31.9874 52.9915 31.9866 52.4344C31.5035 52.4344 31.0204 52.4344 30.5381 52.4344C29.5071 54.7506 28.4793 57.0683 27.4491 59.3845C26.7364 55.8355 26.0275 52.2865 25.3186 48.7375C23.8431 48.7337 22.3675 48.7375 20.8912 48.736C20.8912 48.3245 20.8912 47.9138 20.8912 47.5031C22.7035 47.5039 24.5157 47.5016 26.328 47.5047C26.8496 50.1167 27.372 52.7288 27.896 55.34C28.5124 53.9616 29.1226 52.5808 29.7375 51.2016C30.4872 51.2008 31.2369 51.2024 31.9866 51.2016C31.9874 50.6445 31.9851 50.0875 31.9874 49.5311C32.3619 49.4025 32.7348 49.2699 33.1077 49.1389C33.1486 49.0388 33.191 48.9402 33.2333 48.8415C33.06 48.4832 32.8881 48.1249 32.7186 47.7651C33.7981 46.6895 34.8722 45.6092 35.9517 44.5351C36.3115 44.7039 36.6683 44.878 37.0258 45.0506C37.1237 45.0082 37.2215 44.9674 37.3202 44.9273C37.3826 44.7085 37.4974 44.502 37.5228 44.2747C37.4912 43.1513 36.9549 42.0333 36.0711 41.3383C35.1442 41.2635 34.2435 40.8567 33.6094 40.1709C32.9536 39.4829 32.5969 38.5367 32.5992 37.5889C31.5582 37.4109 30.6097 36.7691 30.0642 35.8645C29.4517 34.8783 29.3515 33.5969 29.803 32.5274C30.0542 31.911 30.4834 31.377 31.0096 30.9733C30.6467 30.0417 30.6721 28.9646 31.1021 28.06C31.5266 27.1407 32.3488 26.4249 33.3089 26.1098C33.0554 24.991 33.362 23.7636 34.1187 22.9006ZM35.1735 23.5733C34.3544 24.363 34.2173 25.7361 34.8637 26.6715C35.3083 27.3557 36.105 27.7749 36.9179 27.7826C36.9179 28.1933 36.9179 28.6032 36.9179 29.0139C35.6574 29.0177 34.4361 28.3273 33.775 27.2571C33.2172 27.4235 32.7156 27.7795 32.3958 28.2688C31.8526 29.0663 31.8541 30.1866 32.3966 30.9841C32.8404 31.6698 33.6386 32.089 34.4523 32.0975C34.4523 32.5082 34.4523 32.9188 34.4523 33.3288C33.3898 33.3241 32.3519 32.841 31.6546 32.0412C31.0774 32.522 30.7245 33.2671 30.7569 34.0222C30.7739 35.0439 31.5043 35.997 32.4798 36.2922C32.9837 36.4671 33.5215 36.3808 34.0424 36.3808C33.9538 36.8716 33.7935 37.3616 33.8474 37.8671C33.9176 38.717 34.47 39.4998 35.2398 39.8627C35.6281 40.0654 36.0688 40.1008 36.4972 40.1185C37.7355 40.9345 38.5553 42.3361 38.7279 43.8031C38.9459 43.8047 39.1648 43.8054 39.3836 43.8047C39.3828 37.6413 39.3851 31.4772 39.382 25.3139C39.3898 24.4617 38.9151 23.6287 38.1808 23.1973C37.247 22.6163 35.9355 22.7796 35.1735 23.5733ZM53.9748 24.1149C53.7329 24.1951 53.5587 24.4393 53.5626 24.6936C53.5518 25.0234 53.8477 25.3177 54.1767 25.3108C54.5327 25.3208 54.8417 24.9741 54.7877 24.6204C54.7538 24.2452 54.3285 23.977 53.9748 24.1149ZM50.2725 29.6642C49.8349 29.7967 49.7208 30.4393 50.0845 30.7152C50.4073 31.0095 50.9868 30.82 51.0754 30.3931C51.2125 29.9416 50.7102 29.4831 50.2725 29.6642ZM55.203 35.2119C54.8894 35.3151 54.7107 35.6935 54.8316 36.0009C54.9364 36.3106 55.3109 36.4894 55.6168 36.37C55.9281 36.2675 56.1076 35.8923 55.9897 35.5864C55.888 35.2735 55.5105 35.0917 55.203 35.2119ZM57.0553 41.3752C56.7633 41.47 56.5815 41.806 56.6624 42.1026C56.7333 42.4231 57.09 42.6404 57.4075 42.5518C57.728 42.4802 57.9445 42.1242 57.8559 41.8067C57.7812 41.4654 57.3828 41.2481 57.0553 41.3752ZM38.2887 45.8905C37.858 46.0376 37.435 46.2071 37.0304 46.4167C36.7554 46.2873 36.4818 46.1532 36.206 46.0253C35.5379 46.6895 34.8738 47.3575 34.2073 48.0232C34.3367 48.3006 34.4762 48.5734 34.5995 48.8546C34.386 49.246 34.2296 49.6629 34.0794 50.0813C33.8166 50.2323 33.5053 50.2916 33.2226 50.4026C33.2156 51.3449 33.221 52.2873 33.2195 53.2304C33.5053 53.329 33.7904 53.4292 34.0755 53.5309C34.215 53.9647 34.3937 54.3846 34.5987 54.7914C34.4685 55.065 34.3367 55.3377 34.2073 55.612C34.8738 56.2778 35.5379 56.9466 36.2068 57.6108C36.4818 57.4813 36.7546 57.3465 37.0304 57.2186C37.4334 57.4274 37.8557 57.5977 38.2856 57.7425C38.3858 58.0276 38.4859 58.3112 38.5853 58.5962C39.5315 58.5939 40.4785 58.6109 41.4247 58.5878C41.511 58.3027 41.6165 58.0245 41.7136 57.7425C42.1474 57.6023 42.5681 57.4266 42.9734 57.2193C43.2477 57.3496 43.5213 57.4813 43.7971 57.6092C44.4636 56.945 45.1293 56.2801 45.7935 55.6128C45.6625 55.3393 45.5308 55.0657 45.4005 54.7922C45.5993 54.39 45.7858 53.9785 45.9122 53.5463C46.1973 53.4299 46.4924 53.339 46.7805 53.2296C46.7805 52.2888 46.7805 51.3472 46.7805 50.4064C46.4939 50.2986 46.2026 50.2038 45.9168 50.0944C45.785 49.6644 45.6078 49.2507 45.4013 48.8515C45.5269 48.5734 45.6633 48.2999 45.7935 48.0232C45.1293 47.3567 44.4636 46.691 43.7971 46.0268C43.522 46.1555 43.2485 46.288 42.9734 46.4183C42.5712 46.2125 42.1551 46.0322 41.7221 45.9005C41.6111 45.6154 41.5164 45.3241 41.4116 45.0375C40.4708 45.0375 39.5292 45.0375 38.5884 45.0375C38.4867 45.321 38.3858 45.6054 38.2887 45.8905Z"
      fill="#CC0D00" stroke="#CC0D00" stroke-width="0.4" />
    <path
      d="M36.9195 24.0737C37.4203 24.0899 37.9196 24.2879 38.2609 24.6608C38.5869 24.9983 38.7571 25.4621 38.7726 25.9275C38.365 25.9306 37.9566 25.9291 37.5482 25.9291C37.5212 25.5931 37.2546 25.325 36.9179 25.298C36.9179 24.8904 36.9164 24.482 36.9195 24.0737Z"
      fill="#CC0D00" stroke="#CC0D00" stroke-width="0.4" />
    <path
      d="M36.2961 32.0912C36.2861 31.101 37.1591 30.2296 38.1492 30.2373C38.1523 30.6457 38.1507 31.0533 38.1507 31.4616C37.814 31.4886 37.5467 31.756 37.5197 32.0927C37.1121 32.0927 36.7037 32.0935 36.2961 32.0912Z"
      fill="#CC0D00" stroke="#CC0D00" stroke-width="0.4" />
    <path
      d="M35.6867 34.5527C36.1867 34.5681 36.6853 34.7661 37.0266 35.1375C37.3533 35.4757 37.5244 35.9404 37.5398 36.4065C37.1322 36.4096 36.7238 36.4081 36.3154 36.4081C36.2885 36.0721 36.0211 35.804 35.6851 35.777C35.6851 35.3686 35.6836 34.961 35.6867 34.5527Z"
      fill="#CC0D00" stroke="#CC0D00" stroke-width="0.4" />
    <path
      d="M39.2641 46.9413C40.1595 46.808 41.091 46.9212 41.924 47.278C43.1599 47.8035 44.1646 48.8521 44.6261 50.1142C45.0222 51.1783 45.0307 52.3803 44.6516 53.4506C44.2132 54.7073 43.2392 55.7644 42.0264 56.3115C40.9793 56.7892 39.7619 56.8778 38.6554 56.5611C37.495 56.2344 36.4718 55.4601 35.83 54.4407C35.1966 53.4583 34.95 52.2424 35.1226 51.0889C35.4062 49.0001 37.1768 47.2294 39.2641 46.9413ZM39.3435 48.181C37.9157 48.4222 36.7014 49.5818 36.3955 50.9972C36.1328 52.1222 36.4394 53.3612 37.2022 54.2296C37.9581 55.1164 39.1509 55.608 40.312 55.4994C41.3753 55.4185 42.3839 54.8406 43.0004 53.973C43.5705 53.1894 43.8071 52.1746 43.6468 51.2192C43.4812 50.1713 42.8339 49.215 41.9278 48.6649C41.165 48.191 40.2257 48.0192 39.3435 48.181Z"
      fill="#CC0D00" stroke="#CC0D00" stroke-width="0.4" />
    <path
      d="M39.7095 49.3705C40.9269 49.1986 42.1651 50.0824 42.4048 51.2859C42.7161 52.5334 41.8662 53.9111 40.6164 54.2031C39.4714 54.5275 38.1708 53.8733 37.7285 52.7738C37.2608 51.7197 37.6692 50.3806 38.6416 49.7626C38.9606 49.55 39.3296 49.4159 39.7095 49.3705ZM39.785 50.604C39.2403 50.6942 38.7972 51.1858 38.7703 51.7382C38.7055 52.4225 39.3158 53.0697 40.0015 53.0504C40.6865 53.0674 41.2945 52.4194 41.229 51.7359C41.2012 51.0317 40.4785 50.46 39.785 50.604Z"
      fill="#CC0D00" stroke="#CC0D00" stroke-width="0.4" />
  </g>
  <defs>
    <filter id="filter0_d_275_159" x="0" y="0.722595" width="84" height="84"
      filterUnits="userSpaceOnUse" color-interpolation-filters="sRGB">
      <feFlood flood-opacity="0" result="BackgroundImageFix" />
      <feColorMatrix in="SourceAlpha" type="matrix"
        values="0 0 0 0 0 0 0 0 0 0 0 0 0 0 0 0 0 0 127 0" result="hardAlpha" />
      <feOffset dx="4" dy="4" />
      <feComposite in2="hardAlpha" operator="out" />
      <feColorMatrix type="matrix"
        values="0 0 0 0 0.976471 0 0 0 0 0.827451 0 0 0 0 0.819608 0 0 0 0.3 0" />
      <feBlend mode="normal" in2="BackgroundImageFix" result="effect1_dropShadow_3701_5370" />
      <feBlend mode="normal" in="SourceGraphic" in2="effect1_dropShadow_3701_5370" result="shape" />
    </filter>
  </defs>
</svg>