<svg width="84" height="84" viewBox="0 0 84 84" fill="none" xmlns="http://www.w3.org/2000/svg">
  <g filter="url(#filter0_d_9077_32459)">
    <rect width="80" height="80" rx="16" fill="#FFF9F9" shape-rendering="crispEdges" />
    <circle cx="31" cy="34" r="10" fill="#F9D3D1" />
    <path
      d="M48.5814 38.9412H51.9793C52.3712 38.9814 52.7505 39.1656 53.0018 39.4727C53.1701 39.6726 53.2817 39.9179 53.3271 40.1751C53.3874 40.5213 53.4407 40.8694 53.5025 41.2156C53.5546 41.513 53.7351 41.7844 53.9886 41.9481C54.2671 42.1324 54.6292 42.1815 54.946 42.0747C55.1567 42.0025 55.3633 41.9191 55.5725 41.8428C55.8428 41.746 56.1093 41.6161 56.4015 41.6072C56.9465 41.5729 57.4914 41.8715 57.7613 42.3446C58.2255 43.1456 58.6874 43.9478 59.1505 44.7493C59.2786 44.9767 59.4304 45.1978 59.4885 45.4565C59.6195 45.9736 59.4416 46.5524 59.0426 46.9064C58.7619 47.1487 58.47 47.3773 58.1868 47.6163C57.9958 47.7756 57.8603 47.9997 57.8115 48.2439C57.7304 48.6198 57.8618 49.0334 58.1488 49.2906C58.3204 49.4418 58.5013 49.5821 58.6766 49.7288C58.8974 49.916 59.1449 50.0842 59.2979 50.3363C59.5905 50.7852 59.6069 51.3938 59.3411 51.8591C58.8166 52.7726 58.2884 53.6846 57.7613 54.5969C57.4847 55.0809 56.9208 55.3809 56.3646 55.331C56.04 55.3083 55.7475 55.1534 55.4445 55.0503C55.1482 54.9502 54.8578 54.786 54.5354 54.8117C54.053 54.8326 53.6115 55.2026 53.5125 55.6764C53.4422 56.0465 53.3897 56.4202 53.3219 56.7909C53.2557 57.1431 53.0576 57.4692 52.7736 57.688C52.5477 57.8682 52.2666 57.9642 51.9826 58H48.6704C48.0365 57.9814 47.4476 57.5164 47.2931 56.9C47.1985 56.4768 47.158 56.0431 47.063 55.6202C46.919 55.0582 46.2854 54.6893 45.7252 54.8426C45.3303 54.9666 44.9506 55.1345 44.5582 55.2666C44.0479 55.4334 43.4538 55.2912 43.0745 54.9115C42.8962 54.7436 42.7871 54.5214 42.665 54.3133C42.215 53.5346 41.7664 52.7555 41.316 51.9771C41.2162 51.8115 41.1306 51.6346 41.0926 51.444C40.9784 50.9371 41.1596 50.3787 41.5483 50.034C41.8356 49.7865 42.1357 49.5538 42.4238 49.307C42.6624 49.0997 42.8031 48.7866 42.8012 48.4706C42.8035 48.1627 42.6702 47.856 42.4409 47.6498C42.136 47.3836 41.8114 47.1402 41.5096 46.8707C41.0398 46.4288 40.9218 45.6702 41.2356 45.107C41.759 44.1924 42.2887 43.2811 42.815 42.3684C42.9464 42.1357 43.1385 41.937 43.3708 41.8037C43.7412 41.5874 44.2057 41.5454 44.6092 41.6909C44.9454 41.8126 45.2785 41.9433 45.615 42.0654C45.9307 42.1808 46.2966 42.141 46.5806 41.9615C46.8453 41.7985 47.0344 41.5204 47.088 41.2141C47.1498 40.8683 47.2026 40.521 47.2633 40.1751C47.3005 39.9619 47.3835 39.7567 47.5071 39.5792C47.7498 39.2207 48.1563 38.9974 48.5814 38.9412ZM48.7299 40.4305C48.6648 40.8031 48.6097 41.1772 48.5397 41.5491C48.3823 42.3409 47.8273 43.0369 47.0947 43.3742C46.4946 43.659 45.784 43.6995 45.156 43.4825C44.8076 43.3574 44.4629 43.2216 44.1149 43.0954C43.5934 43.9996 43.0681 44.9019 42.5507 45.8087C42.8411 46.0458 43.1322 46.2825 43.4184 46.5245C44.0464 47.0728 44.3736 47.9371 44.2746 48.7639C44.2046 49.4138 43.8766 50.0299 43.3778 50.452C43.1031 50.6806 42.8273 50.9073 42.5503 51.1332C43.0689 52.0389 43.593 52.942 44.1153 53.8458C44.464 53.7192 44.8099 53.5833 45.1594 53.4575C45.7866 53.2409 46.4961 53.2826 47.0954 53.5666C47.6315 53.816 48.0781 54.2537 48.3343 54.7868C48.5982 55.3236 48.6116 55.934 48.7299 56.5106C49.7733 56.511 50.8171 56.5114 51.8605 56.5106C51.9253 56.1377 51.9815 55.7632 52.0503 55.3909C52.213 54.5713 52.803 53.8562 53.5721 53.5323C54.1643 53.2732 54.8537 53.2505 55.4623 53.4679C55.8011 53.5911 56.1376 53.7203 56.4752 53.8461C56.9963 52.9408 57.5245 52.0393 58.0394 51.1306C57.7542 50.9006 57.4717 50.6675 57.1914 50.4327C56.5898 49.9179 56.2545 49.116 56.3028 48.3265C56.3375 47.6237 56.6736 46.9425 57.2126 46.4899C57.4873 46.2613 57.7632 46.0342 58.0401 45.8083C57.5234 44.9019 56.9967 44.0011 56.4771 43.0961C55.9187 43.2797 55.3853 43.5726 54.7897 43.6139C54.1829 43.6612 53.5635 43.4814 53.0714 43.1244C52.5395 42.7432 52.162 42.1536 52.0425 41.51C51.9781 41.1508 51.9227 40.7901 51.8605 40.4305C50.8171 40.4298 49.7733 40.4298 48.7299 40.4305Z"
      fill="#CC0D00" stroke="#CC0D00" stroke-width="0.3" />
    <path
      d="M50.0839 44.8043C50.9032 44.7548 51.7363 44.9912 52.4056 45.4662C53.1311 45.9746 53.663 46.753 53.8667 47.6155C54.068 48.4486 53.9653 49.3509 53.5778 50.1155C53.1836 50.9028 52.4983 51.5397 51.6823 51.8706C50.8694 52.2052 49.9343 52.2328 49.1042 51.9432C48.2142 51.6413 47.4544 50.9806 47.0267 50.1438C46.6265 49.3717 46.5201 48.4553 46.7244 47.6106C46.9392 46.7057 47.5166 45.8946 48.2979 45.3906C48.8287 45.044 49.4507 44.8389 50.0839 44.8043ZM50.1245 46.2937C49.4515 46.3447 48.815 46.7273 48.455 47.2983C48.1311 47.802 48.0262 48.4422 48.1836 49.0211C48.3217 49.559 48.6761 50.0366 49.15 50.3258C49.6398 50.6321 50.2552 50.733 50.8158 50.5901C51.2524 50.4836 51.6526 50.2372 51.9451 49.8966C52.3025 49.4864 52.4983 48.9384 52.4774 48.3946C52.4592 47.8213 52.2012 47.2611 51.7799 46.8725C51.3414 46.4593 50.7249 46.2438 50.1245 46.2937Z"
      fill="#CC0D00" stroke="#CC0D00" stroke-width="0.3" />
    <path
      d="M47.4118 56.1053H22V30.4706M48.0805 40V22H28.3529M28.3529 22L22 30.4706M28.3529 22V30.4706H22"
      stroke="#CC0D00" stroke-width="1.8" stroke-linecap="round" />
    <line x1="33.9851" y1="27.4436" x2="42.0146" y2="27.4436" stroke="#CC0D00" stroke-width="1.8" />
    <line x1="33.9999" y1="33.7874" x2="41.9999" y2="33.7874" stroke="#CC0D00" stroke-width="1.8" />
    <path d="M28.0004 39.4874L41.9999 39.4874" stroke="#CC0D00" stroke-width="1.8" />
    <path d="M27.9999 46.9999L31.9999 50.9999L37.9999 44.9999" stroke="#CC0D00" stroke-width="1.8" />
  </g>
  <defs>
    <filter id="filter0_d_9077_32459" x="0" y="0" width="84" height="84"
      filterUnits="userSpaceOnUse" color-interpolation-filters="sRGB">
      <feFlood flood-opacity="0" result="BackgroundImageFix" />
      <feColorMatrix in="SourceAlpha" type="matrix"
        values="0 0 0 0 0 0 0 0 0 0 0 0 0 0 0 0 0 0 127 0" result="hardAlpha" />
      <feOffset dx="4" dy="4" />
      <feComposite in2="hardAlpha" operator="out" />
      <feColorMatrix type="matrix"
        values="0 0 0 0 0.976471 0 0 0 0 0.827451 0 0 0 0 0.819608 0 0 0 0.3 0" />
      <feBlend mode="normal" in2="BackgroundImageFix" result="effect1_dropShadow_9077_32459" />
      <feBlend mode="normal" in="SourceGraphic" in2="effect1_dropShadow_9077_32459" result="shape" />
    </filter>
  </defs>
</svg>