<svg width="84" height="85" viewBox="0 0 84 85" fill="none" xmlns="http://www.w3.org/2000/svg">
  <g filter="url(#filter0_d_275_121)">
    <rect y="0.722595" width="80" height="80" rx="16" fill="#FFF9F9" shape-rendering="crispEdges" />
    <circle cx="31" cy="34.7226" r="10" fill="#F9D3D1" />
    <path
      d="M36.523 20.9225C36.8187 20.637 37.3218 20.6654 37.6026 20.958C40.6443 23.6755 43.6859 26.3947 46.7268 29.113C46.92 29.2715 47.0628 29.5042 47.0517 29.7613C47.0533 30.1627 46.7032 30.5238 46.3002 30.527C45.0739 30.5396 43.8468 30.527 42.6205 30.5325C42.6205 31.3243 42.6205 32.1153 42.6205 32.9062C44.387 33.0766 46.0865 33.8715 47.3356 35.1333C48.8048 36.5891 49.6447 38.6544 49.6005 40.7238C49.5792 42.6961 48.7575 44.6416 47.3656 46.0382C46.1196 47.3087 44.4209 48.1123 42.6521 48.2929C42.6473 49.4521 42.6576 50.6114 42.6473 51.7707C42.6473 52.1681 42.2948 52.5206 41.8974 52.5198C41.093 52.5301 40.2878 52.5198 39.4834 52.5238C41.8847 54.672 44.2908 56.8154 46.6945 58.9604C49.099 56.817 51.5019 54.6728 53.9024 52.5246C53.0902 52.5191 52.2779 52.5317 51.4664 52.5191C51.0453 52.508 50.7046 52.1066 50.7369 51.691C50.7369 46.6147 50.7338 41.5376 50.7385 36.4605C50.7188 36.041 51.0926 35.6561 51.5137 35.6695C51.9356 35.6585 52.3071 36.0441 52.2873 36.4645C52.2921 41.3002 52.2873 46.1368 52.2897 50.9726C53.5294 50.9773 54.7691 50.9647 56.008 50.9781C56.4615 50.9939 56.8132 51.4757 56.702 51.9134C56.6555 52.1658 56.4544 52.34 56.2706 52.4993C53.2644 55.1751 50.2598 57.8532 47.2536 60.5298C47.0651 60.708 46.7978 60.8105 46.5391 60.7514C46.2687 60.7017 46.0849 60.4801 45.8862 60.3106C42.8997 57.6419 39.9093 54.9772 36.9228 52.3085C36.6121 52.0412 36.5821 51.5286 36.8566 51.2257C37.0072 51.0475 37.2398 50.9529 37.4725 50.9584C38.6838 50.9544 39.8951 50.9592 41.1072 50.9568C41.108 50.0696 41.108 49.1832 41.1072 48.2968C39.153 48.1233 37.2824 47.1738 35.9946 45.6944C34.7407 44.2749 34.0396 42.3822 34.0767 40.4888C34.0925 38.5464 34.8858 36.6269 36.2391 35.235C37.5016 33.9133 39.2492 33.075 41.0677 32.9023C41.0693 31.855 41.0646 30.8077 41.0693 29.7613C41.0512 29.3551 41.4013 28.9742 41.8106 28.9742C42.6205 28.964 43.4312 28.975 44.2419 28.9695C41.839 26.8245 39.4353 24.6802 37.03 22.5391C34.6256 24.6849 32.2179 26.8268 29.8134 28.9718C30.6068 28.9703 31.4001 28.9695 32.1935 28.9711C32.5657 28.949 32.9269 29.2321 32.9845 29.602C33.0128 29.8141 33.0002 30.0286 33.0018 30.2415C33.0002 35.1806 33.0034 40.1197 33.0002 45.0588C33.0176 45.3924 32.807 45.7236 32.4892 45.8332C32.1627 45.9586 31.7645 45.8261 31.5776 45.5311C31.4025 45.2788 31.4553 44.957 31.4475 44.6684C31.4482 39.9564 31.449 35.2437 31.4467 30.5317C30.248 30.5317 29.0501 30.5325 27.8514 30.5317C27.5706 30.5443 27.2796 30.4205 27.1282 30.1761C26.9184 29.8669 26.9807 29.4143 27.2654 29.1722C30.3513 26.4223 33.4363 23.6708 36.523 20.9225ZM41.3643 34.4488C39.1861 34.6089 37.1594 36.0268 36.2643 38.0204C35.5963 39.4502 35.5159 41.1386 36.0372 42.6283C36.4654 43.8782 37.3116 44.9775 38.4054 45.7181C39.4471 46.4254 40.7081 46.8055 41.9676 46.7827C43.2853 46.7669 44.5936 46.3135 45.6362 45.5067C46.7016 44.6936 47.4871 43.5233 47.8356 42.2284C48.1629 41.0684 48.0927 39.8161 47.7276 38.6742C47.2773 37.2941 46.3199 36.0899 45.0818 35.3352C43.9785 34.6546 42.656 34.3384 41.3643 34.4488Z"
      fill="#CC0D00" stroke="#CC0D00" stroke-width="0.2" />
    <path
      d="M55.6255 28.2826C56.1026 28.0444 56.7272 28.4403 56.713 28.9734C56.7217 31.814 56.7162 34.6546 56.7154 37.4951C56.7446 37.9273 56.3637 38.3295 55.9284 38.3106C55.5009 38.3153 55.1366 37.9178 55.165 37.4944C55.1626 34.679 55.165 31.8629 55.1642 29.0475C55.1461 28.7289 55.329 28.4095 55.6255 28.2826Z"
      fill="#CC0D00" stroke="#CC0D00" stroke-width="0.2" />
    <path
      d="M41.4029 35.4324C41.6836 35.0925 42.2562 35.0814 42.5495 35.4111C42.7546 35.6098 42.7688 35.9071 42.7672 36.1744C43.4833 36.202 44.2033 36.4473 44.7379 36.9347C45.2474 37.3881 45.5802 38.06 45.5478 38.75C45.5258 39.1854 45.0802 39.5324 44.6528 39.4495C44.275 39.3975 43.9959 39.041 43.9982 38.6665C43.9572 38.0608 43.2995 37.7596 42.764 37.7256C42.7609 38.4449 42.7633 39.1641 42.7633 39.8833C43.141 39.9661 43.5227 40.0339 43.8996 40.1246C44.5408 40.2871 45.0912 40.7602 45.357 41.3651C45.6922 42.1103 45.5794 43.0275 45.0881 43.6781C44.5558 44.4076 43.6552 44.8011 42.7656 44.8295C42.7633 45.0976 42.7814 45.3981 42.5969 45.6173C42.3193 46.0006 41.6899 46.0124 41.3958 45.6417C41.1923 45.4249 41.2057 45.1126 41.2073 44.8366C40.4889 44.85 39.75 44.6717 39.1743 44.2278C38.5308 43.753 38.0844 42.947 38.1877 42.1348C38.2863 41.6033 38.996 41.3485 39.4116 41.6939C39.6908 41.8808 39.7097 42.2334 39.7571 42.5322C39.9716 43.104 40.6482 43.3098 41.2089 43.2806C41.2105 42.5693 41.2105 41.858 41.2089 41.1466C40.7428 41.0386 40.2665 40.9739 39.8028 40.8525C39.0694 40.6475 38.4669 40.0434 38.2563 39.3123C38.0387 38.5971 38.2271 37.7887 38.7058 37.2209C39.3028 36.4852 40.2728 36.1366 41.2042 36.1697C41.2034 35.9134 41.2144 35.6295 41.4029 35.4324ZM39.787 38.3865C39.5922 38.7508 39.8186 39.2248 40.201 39.3462C40.5323 39.4385 40.8737 39.489 41.2089 39.5631C41.2105 38.9488 41.2097 38.3337 41.2089 37.7193C40.6726 37.7028 40.0473 37.8707 39.787 38.3865ZM42.7625 41.4684C42.7633 42.0709 42.7609 42.6742 42.7633 43.2775C43.171 43.2404 43.6008 43.0914 43.8468 42.746C44.044 42.4762 44.0731 42.0417 43.8026 41.8107C43.518 41.5583 43.1126 41.5583 42.7625 41.4684Z"
      fill="#CC0D00" stroke="#CC0D00" stroke-width="0.2" />
    <path
      d="M27.4981 39.2783C27.909 39.093 28.4342 39.3493 28.5422 39.7846C28.6029 40.1758 28.5659 40.5748 28.5706 40.9691C28.5785 41.3074 28.338 41.6284 28.0131 41.7183C27.5825 41.8595 27.0809 41.5385 27.032 41.0882C27.0068 40.7294 27.0218 40.369 27.0226 40.0102C27.0123 39.6979 27.2095 39.3951 27.4981 39.2783Z"
      fill="#CC0D00" stroke="#CC0D00" stroke-width="0.2" />
    <path
      d="M55.6476 40.4611C56.1042 40.2537 56.6886 40.6085 56.7091 41.1101C56.7264 41.6408 56.7162 42.1724 56.7146 42.7031C56.7319 43.099 56.4062 43.468 56.0096 43.4933C55.5963 43.543 55.187 43.1999 55.1705 42.7827C55.1563 42.2536 55.165 41.7244 55.1665 41.1953C55.1563 40.8814 55.3558 40.577 55.6476 40.4611Z"
      fill="#CC0D00" stroke="#CC0D00" stroke-width="0.2" />
    <path
      d="M27.5785 43.456C28.0422 43.3141 28.5603 43.7037 28.5517 44.1887C28.5596 46.6357 28.5533 49.0836 28.5548 51.5306C28.5856 51.9147 28.3135 52.2995 27.9271 52.3658C27.4721 52.4699 26.9934 52.0787 27.0052 51.6127C26.9981 49.1648 27.0044 46.717 27.002 44.2699C26.976 43.9063 27.2205 43.5444 27.5785 43.456Z"
      fill="#CC0D00" stroke="#CC0D00" stroke-width="0.2" />
    <path
      d="M23.8641 44.7885C24.3562 44.6608 24.8633 45.1103 24.8105 45.6134C24.8097 47.0582 24.8128 48.5037 24.8089 49.9492C24.8294 50.3325 24.5337 50.6976 24.152 50.7465C23.6906 50.8333 23.2317 50.4216 23.2593 49.9548C23.2569 48.4832 23.2545 47.0109 23.2609 45.5393C23.2538 45.1868 23.5219 44.8619 23.8641 44.7885Z"
      fill="#CC0D00" stroke="#CC0D00" stroke-width="0.2" />
  </g>
  <defs>
    <filter id="filter0_d_275_121" x="0" y="0.722595" width="84" height="84"
      filterUnits="userSpaceOnUse" color-interpolation-filters="sRGB">
      <feFlood flood-opacity="0" result="BackgroundImageFix" />
      <feColorMatrix in="SourceAlpha" type="matrix"
        values="0 0 0 0 0 0 0 0 0 0 0 0 0 0 0 0 0 0 127 0" result="hardAlpha" />
      <feOffset dx="4" dy="4" />
      <feComposite in2="hardAlpha" operator="out" />
      <feColorMatrix type="matrix"
        values="0 0 0 0 0.976471 0 0 0 0 0.827451 0 0 0 0 0.819608 0 0 0 0.3 0" />
      <feBlend mode="normal" in2="BackgroundImageFix" result="effect1_dropShadow_3701_5370" />
      <feBlend mode="normal" in="SourceGraphic" in2="effect1_dropShadow_3701_5370" result="shape" />
    </filter>
  </defs>
</svg>