<svg width="84" height="84" viewBox="0 0 84 84" fill="none" xmlns="http://www.w3.org/2000/svg">
<g filter="url(#filter0_d_9001_2192)">
<rect width="80" height="80" rx="16" fill="#FFF9F9" shape-rendering="crispEdges"/>
<circle cx="31" cy="34" r="10" fill="#F9D3D1"/>
<path d="M33.0496 22H39.4262C40.1687 22.0696 40.8691 22.5091 41.2213 23.1707C41.6193 23.8548 41.4752 24.6705 41.4977 25.4228C42.0679 25.2302 42.6578 25.1057 43.2358 24.9384C44.7306 24.5432 46.2213 24.134 47.7175 23.743C48.8425 23.4723 50.0765 24.2345 50.3507 25.356C52.8658 34.7322 55.3752 44.1098 57.8903 53.4859C57.9367 53.6687 57.9775 53.8537 58 54.0421V54.3065C57.9543 55.2416 57.2807 56.1107 56.3716 56.3547C54.7227 56.8082 53.0676 57.2392 51.4173 57.6871C50.954 57.7982 50.5005 57.9677 50.0223 58H49.784C48.8537 57.9227 48.0051 57.2371 47.7787 56.3245C45.7164 48.6372 43.6605 40.9485 41.5982 33.2605C41.5595 33.1136 41.5272 32.9645 41.4955 32.8155C41.5061 40.4366 41.497 48.0578 41.5005 55.6783C41.5195 56.3652 41.2115 57.0515 40.6778 57.4853C40.3291 57.7792 39.8882 57.9416 39.4396 58H33.1459C32.6305 57.9747 32.1426 57.7602 31.7488 57.4326C31.3797 57.7469 30.9212 57.943 30.4396 58H24.1473C23.4759 57.9648 22.8283 57.6203 22.4338 57.074C22.1877 56.747 22.0563 56.3491 22 55.9469V33.0693C22.052 32.6425 22.1983 32.222 22.4655 31.8824C22.8824 31.3347 23.5588 30.9965 24.2486 31.0014C26.2173 30.9979 28.1868 31.0014 30.1555 30.9993C30.4417 30.9937 30.7258 31.0422 31 31.1223C30.9993 28.8534 31 26.5851 31 24.3161C30.9944 23.9237 31.0816 23.5279 31.2707 23.1827C31.6195 22.5224 32.312 22.0809 33.0496 22ZM32.4998 24.3126C32.5075 27.5252 32.4836 30.7377 32.5159 33.9503C32.5159 39.4663 32.5152 44.983 32.5159 50.4998C33.7703 50.5033 35.0247 50.4948 36.2791 50.504C36.6672 50.5068 37.0061 50.8598 36.9977 51.2479C37.0075 51.6388 36.6672 51.9932 36.277 51.996C35.0233 52.0052 33.7696 51.9967 32.5159 52.0002C32.5166 53.2722 32.5124 54.5441 32.518 55.8154C32.5173 56.1965 32.8837 56.5059 33.2535 56.4981C35.2455 56.5016 37.2367 56.5009 39.2287 56.4981C39.6653 56.5206 40.0408 56.1114 40 55.679C40 45.2263 40 34.773 40 24.3203C40.0408 23.8907 39.6695 23.4815 39.235 23.5019C37.2416 23.4991 35.2483 23.4991 33.2549 23.5019C32.826 23.4871 32.4632 23.89 32.4998 24.3126ZM42.5713 26.6716C42.314 26.7447 42.0152 26.7763 41.8295 26.9929C41.6355 27.1989 41.5933 27.5076 41.6798 27.7705C43.7455 35.4712 45.805 43.1725 47.8722 50.8717C49.0935 50.5553 50.3085 50.2115 51.5305 49.8986C51.9046 49.8037 52.3187 50.0554 52.4095 50.4302C52.5241 50.8112 52.2759 51.2493 51.8905 51.3463C50.6819 51.6775 49.4704 51.9981 48.2603 52.3223C48.576 53.5105 48.8959 54.6967 49.2138 55.885C49.2735 56.167 49.4929 56.4116 49.7784 56.4756C50.0167 56.5382 50.2551 56.4426 50.485 56.3849C52.2737 55.9054 54.0625 55.4273 55.8513 54.9463C56.1297 54.8901 56.3863 54.6939 56.4644 54.4127C56.5565 54.1349 56.4264 53.8551 56.3631 53.5865C53.9057 44.4156 51.4476 35.2448 48.9909 26.0739C48.9255 25.8398 48.8854 25.5754 48.697 25.4038C48.5036 25.2105 48.2034 25.1458 47.9453 25.2302C46.1538 25.709 44.3629 26.1927 42.5713 26.6716ZM23.5019 33.2521C23.4984 39.0016 23.4998 44.751 23.5012 50.5005C24.7605 50.5026 26.0191 50.4948 27.2784 50.5033C27.6686 50.5068 28.0089 50.8626 27.9977 51.2528C28.0054 51.643 27.6637 51.9946 27.2734 51.9967C26.0163 52.0045 24.7591 51.9981 23.5019 51.9995C23.4991 53.249 23.4984 54.4984 23.5019 55.7479C23.4913 56.1508 23.8513 56.5094 24.2542 56.4981C26.2455 56.5016 28.2374 56.5009 30.2294 56.4981C30.6653 56.5206 31.0401 56.1121 31 55.6804C31 48.2259 31 40.7713 31 33.3161C31.0394 32.8872 30.6667 32.4808 30.2329 32.5019C28.2402 32.4991 26.2469 32.4991 24.2535 32.5019C23.8506 32.4899 23.4906 32.8492 23.5019 33.2521Z" fill="#CC0D00" stroke="#CC0D00" stroke-width="0.4"/>
<path d="M36.0773 26.5218C36.386 26.4451 36.7354 26.5893 36.8922 26.867C37.0216 27.0709 36.9984 27.3219 37.0012 27.5519C36.997 33.9517 37.004 40.3522 36.997 46.7521C37.0096 47.1915 36.5758 47.5656 36.1434 47.4904C35.7581 47.444 35.4677 47.0664 35.5 46.6832C35.5014 40.2109 35.4979 33.7394 35.5014 27.2678C35.4881 26.924 35.7412 26.5949 36.0773 26.5218Z" fill="#CC0D00" stroke="#CC0D00" stroke-width="0.4"/>
<path d="M45.7852 28.922C46.0615 28.8081 46.399 28.884 46.6015 29.1027C46.7731 29.2771 46.8061 29.5302 46.8715 29.7545C48.3171 35.1482 49.7607 40.5418 51.2091 45.9348C51.2843 46.1703 51.3061 46.4432 51.1669 46.6604C50.9834 46.9881 50.5355 47.1266 50.2001 46.955C49.9962 46.8615 49.8492 46.6682 49.7944 46.4523C48.3122 40.9286 46.8328 35.4041 45.3528 29.8804C45.2157 29.5098 45.4104 29.0577 45.7852 28.922Z" fill="#CC0D00" stroke="#CC0D00" stroke-width="0.4"/>
<path d="M27.0816 35.521C27.391 35.4457 27.739 35.592 27.8951 35.8711C27.9963 36.0321 28.002 36.229 28.0013 36.4139C27.997 39.8578 28.0041 43.3017 27.9978 46.7457C28.0153 47.2069 27.5407 47.5922 27.0928 47.4811C26.7293 47.4108 26.4706 47.0466 26.5001 46.681C26.5015 43.211 26.498 39.7404 26.5015 36.2712C26.4874 35.9246 26.742 35.5927 27.0816 35.521Z" fill="#CC0D00" stroke="#CC0D00" stroke-width="0.4"/>
</g>
<defs>
<filter id="filter0_d_9001_2192" x="0" y="0" width="84" height="84" filterUnits="userSpaceOnUse" color-interpolation-filters="sRGB">
<feFlood flood-opacity="0" result="BackgroundImageFix"/>
<feColorMatrix in="SourceAlpha" type="matrix" values="0 0 0 0 0 0 0 0 0 0 0 0 0 0 0 0 0 0 127 0" result="hardAlpha"/>
<feOffset dx="4" dy="4"/>
<feComposite in2="hardAlpha" operator="out"/>
<feColorMatrix type="matrix" values="0 0 0 0 0.976471 0 0 0 0 0.827451 0 0 0 0 0.819608 0 0 0 0.3 0"/>
<feBlend mode="normal" in2="BackgroundImageFix" result="effect1_dropShadow_9001_2192"/>
<feBlend mode="normal" in="SourceGraphic" in2="effect1_dropShadow_9001_2192" result="shape"/>
</filter>
</defs>
</svg>
