<svg width="84" height="85" viewBox="0 0 84 85" fill="none" xmlns="http://www.w3.org/2000/svg">
  <g filter="url(#filter0_d_3701_5370)">
    <rect y="0.722595" width="80" height="80" rx="16" fill="#FFF9F9" shape-rendering="crispEdges" />
    <circle cx="31" cy="34.7226" r="10" fill="#F9D3D1" />
    <path
      d="M39.2247 28.7819C40.3035 28.6199 41.4304 28.7913 42.4117 29.2694C43.6078 29.8442 44.5758 30.8735 45.0782 32.101C45.5044 33.1288 45.6051 34.2879 45.3597 35.373C45.101 36.5518 44.4342 37.6361 43.5008 38.4013C42.6067 39.1412 41.4713 39.5823 40.3122 39.6398C39.1028 39.7082 37.8769 39.3527 36.8884 38.6529C35.9652 38.0049 35.2489 37.0652 34.8761 36.0005C34.3925 34.6488 34.4798 33.1076 35.1065 31.8164C35.8662 30.2059 37.4624 29.0327 39.2247 28.7819ZM39.102 30.246C38.145 30.4686 37.2816 31.056 36.7186 31.8604C36.1445 32.6696 35.8898 33.6942 36.0116 34.6779C36.1375 35.7481 36.7162 36.7554 37.5765 37.4049C38.4131 38.0466 39.5085 38.3399 40.5544 38.1976C41.6647 38.0592 42.7003 37.4301 43.3396 36.5124C44.0324 35.5382 44.2557 34.2485 43.9278 33.0989C43.6345 32.0248 42.8741 31.0914 41.8817 30.5865C41.0348 30.1454 40.0299 30.0266 39.102 30.246Z"
      fill="#CC0D00" stroke="#CC0D00" stroke-width="0.2" />
    <path
      d="M27.6173 33.8625C28.7489 33.7154 29.9323 34.0316 30.8359 34.7291C31.7811 35.4438 32.4101 36.5581 32.5336 37.7368C32.6531 38.7866 32.3724 39.8749 31.7622 40.7375C31.1189 41.6615 30.1046 42.3181 28.9966 42.5249C27.8226 42.7545 26.5605 42.4714 25.5964 41.7637C24.6284 41.0655 23.9663 39.9575 23.8224 38.7717C23.6754 37.6779 23.9679 36.5361 24.6166 35.6451C25.3141 34.6701 26.4292 34.0111 27.6173 33.8625ZM27.5135 35.318C26.6454 35.5115 25.8842 36.1185 25.4989 36.919C25.0963 37.7361 25.101 38.7394 25.5162 39.5509C25.8677 40.2563 26.5125 40.8091 27.2651 41.0458C28.0569 41.3061 28.9557 41.2054 29.6729 40.7824C30.6432 40.228 31.2377 39.0909 31.1355 37.9775C31.0678 37.0598 30.5433 36.1901 29.7617 35.7033C29.1028 35.2819 28.2755 35.1427 27.5135 35.318Z"
      fill="#CC0D00" stroke="#CC0D00" stroke-width="0.2" />
    <path
      d="M51.1032 33.8947C52.1161 33.7138 53.191 33.9041 54.078 34.4254C55.0751 35.0026 55.8245 35.9887 56.1107 37.1045C56.4056 38.2117 56.2397 39.4321 55.6593 40.4206C55.0971 41.3972 54.1425 42.1364 53.0581 42.4383C51.9258 42.7623 50.666 42.5995 49.6524 42.0003C48.6569 41.42 47.9052 40.4347 47.6205 39.3157C47.3185 38.1677 47.508 36.9009 48.1426 35.8959C48.7867 34.8485 49.893 34.1046 51.1032 33.8947ZM51.5137 35.2653C50.2052 35.4013 49.0807 36.5038 48.9227 37.8099C48.7395 39.0012 49.3748 40.2562 50.4364 40.8216C51.3612 41.3406 52.5627 41.3036 53.4536 40.7296C54.5907 40.0376 55.1301 38.5318 54.6866 37.276C54.2769 35.9667 52.8733 35.0742 51.5137 35.2653Z"
      fill="#CC0D00" stroke="#CC0D00" stroke-width="0.2" />
    <path
      d="M34.0347 40.8153C34.7008 40.5385 35.4352 40.4331 36.1524 40.5086C36.4276 40.529 36.621 40.7476 36.8279 40.9049C37.7204 41.6236 38.8275 42.1639 39.9984 42.1198C41.1701 42.1686 42.2788 41.6284 43.1721 40.9096C43.3797 40.7532 43.5708 40.533 43.846 40.5094C44.8722 40.3938 45.9275 40.6729 46.7822 41.247C47.4443 41.6803 47.983 42.2763 48.4273 42.9258C48.7072 42.9423 49.0249 42.9093 49.2537 43.1051C49.7562 43.5227 50.3067 43.908 50.9436 44.0865C51.9077 44.3444 52.9771 44.1706 53.7949 43.5919C54.1779 43.3819 54.4539 42.9361 54.9296 42.9384C56.0155 42.8527 57.0952 43.3237 57.8485 44.0951C58.8181 45.0844 59.3709 46.4329 59.5352 47.7973C59.6721 48.9854 59.5022 50.2648 58.7992 51.2611C58.1985 52.13 57.1786 52.6797 56.1264 52.7277C53.2932 52.7292 50.46 52.7269 47.6268 52.7285C47.2737 52.7403 46.9379 52.6239 46.5975 52.5539C46.2342 52.616 45.8772 52.7395 45.5044 52.7292C41.8345 52.7277 38.1639 52.7285 34.4932 52.7285C34.1228 52.7387 33.7697 52.6144 33.4088 52.5531C33.0927 52.6105 32.7845 52.7277 32.4589 52.7269C29.7051 52.7308 26.9513 52.7261 24.1983 52.7292C23.2791 52.7725 22.3496 52.4296 21.6749 51.8053C20.9137 51.1031 20.5221 50.0761 20.4411 49.0594C20.3334 47.6966 20.6605 46.3024 21.3557 45.1268C21.8566 44.2839 22.5879 43.547 23.5103 43.1822C24.0513 42.9683 24.6465 42.8818 25.2245 42.9565C25.4573 42.984 25.6263 43.1617 25.8032 43.2986C26.474 43.849 27.317 44.2438 28.2024 44.1966C29.1476 44.2249 30.0071 43.7318 30.7038 43.1358C30.9381 42.9117 31.2786 42.9376 31.5774 42.9313C32.1821 42.0207 33.0133 41.232 34.0347 40.8153ZM33.1029 43.2577C32.1223 44.4569 31.6427 46.0225 31.6348 47.5598C31.6403 48.5923 31.8888 49.6955 32.6272 50.4591C33.1061 50.9702 33.7878 51.2383 34.472 51.3264C34.4837 50.0989 34.4696 48.8714 34.4782 47.6447C34.4554 47.25 34.8085 46.8914 35.2033 46.915C35.5791 46.9142 35.9039 47.2578 35.889 47.6329C35.8968 48.8195 35.8874 50.0069 35.8921 51.1943C35.8433 51.3728 36.0564 51.2949 36.1477 51.3154C38.8039 51.3091 41.461 51.3162 44.1173 51.3115C44.1181 50.0871 44.1134 48.8635 44.1189 47.64C44.1032 47.294 44.3737 46.9661 44.7181 46.9221C45.1396 46.8434 45.5579 47.2193 45.5304 47.6471C45.5382 48.873 45.5249 50.0997 45.5359 51.3264C46.2554 51.236 46.971 50.9395 47.453 50.3828C48.1513 49.5988 48.377 48.5097 48.3715 47.4867C48.3526 46.0641 47.924 44.6291 47.0787 43.4763C46.4921 42.6813 45.6326 42.0231 44.6253 41.9162C44.4468 41.9099 44.2345 41.8501 44.0898 41.9893C43.4623 42.4894 42.7734 42.925 42.0162 43.1995C41.0545 43.5643 39.9968 43.6068 38.9864 43.4645C37.9775 43.2946 37.0355 42.8315 36.2208 42.2228C36.069 42.1151 35.9369 41.9736 35.7639 41.902C34.7142 41.8635 33.7493 42.4674 33.1029 43.2577ZM23.2688 44.9884C22.4896 45.7048 22.0594 46.7318 21.8959 47.7627C21.7677 48.6473 21.818 49.6184 22.315 50.3899C22.624 50.8782 23.154 51.1864 23.7131 51.2973C23.7179 50.4197 23.7116 49.543 23.7155 48.6654C23.6943 48.3501 23.8979 48.0371 24.2022 47.9435C24.6237 47.7863 25.1262 48.1315 25.1246 48.582C25.1388 49.4918 25.1246 50.4024 25.1309 51.313C27.2501 51.3122 29.3693 51.3138 31.4885 51.3122C30.9884 50.7382 30.6456 50.0399 30.4498 49.3063C30.07 47.872 30.1879 46.3378 30.6306 44.931C29.4244 45.6655 27.891 45.8227 26.5621 45.347C25.9212 45.1315 25.3692 44.7336 24.8219 44.3515C24.2439 44.342 23.6911 44.6063 23.2688 44.9884ZM53.3656 45.3729C52.0563 45.8149 50.5607 45.6545 49.378 44.9365C49.6996 45.9604 49.8474 47.0432 49.7601 48.1149C49.6705 49.2685 49.2876 50.43 48.5201 51.3138C50.6369 51.3115 52.753 51.313 54.8698 51.313C54.8753 50.404 54.8628 49.495 54.8753 48.586C54.8761 48.2203 55.2088 47.9011 55.5736 47.9081C55.9408 47.8963 56.2782 48.214 56.2806 48.5828C56.2955 49.4871 56.2798 50.3922 56.2868 51.2965C56.7728 51.1959 57.2423 50.9615 57.5536 50.5668C58.0687 49.9275 58.1961 49.0656 58.156 48.2675C58.0836 47.1493 57.6944 46.0185 56.9293 45.1834C56.4826 44.6983 55.8536 44.3428 55.1812 44.3515C54.6119 44.7478 54.0347 45.1591 53.3656 45.3729Z"
      fill="#CC0D00" stroke="#CC0D00" stroke-width="0.2" />
  </g>
  <defs>
    <filter id="filter0_d_3701_5370" x="0" y="0.722595" width="84" height="84"
      filterUnits="userSpaceOnUse" color-interpolation-filters="sRGB">
      <feFlood flood-opacity="0" result="BackgroundImageFix" />
      <feColorMatrix in="SourceAlpha" type="matrix"
        values="0 0 0 0 0 0 0 0 0 0 0 0 0 0 0 0 0 0 127 0" result="hardAlpha" />
      <feOffset dx="4" dy="4" />
      <feComposite in2="hardAlpha" operator="out" />
      <feColorMatrix type="matrix"
        values="0 0 0 0 0.976471 0 0 0 0 0.827451 0 0 0 0 0.819608 0 0 0 0.3 0" />
      <feBlend mode="normal" in2="BackgroundImageFix" result="effect1_dropShadow_3701_5370" />
      <feBlend mode="normal" in="SourceGraphic" in2="effect1_dropShadow_3701_5370" result="shape" />
    </filter>
  </defs>
</svg>