<svg width="84" height="85" viewBox="0 0 84 85" fill="none" xmlns="http://www.w3.org/2000/svg">
  <g filter="url(#filter0_d_275_170)">
    <rect y="0.722595" width="80" height="80" rx="16" fill="#FFF9F9" shape-rendering="crispEdges" />
    <circle cx="31" cy="34.7226" r="10" fill="#F9D3D1" />
    <path
      d="M41.5163 24.7151C41.5552 23.7576 42.2812 22.7534 43.299 22.7264C47.9509 22.7193 52.602 22.7256 57.254 22.7233C57.7327 22.7074 58.2043 22.9175 58.5301 23.2646C58.9573 23.7069 59.1634 24.3299 59.1563 24.9387C59.1563 27.1612 59.1563 29.3845 59.1563 31.607C59.169 32.2538 58.9391 32.9196 58.4627 33.3683C58.1425 33.6806 57.6994 33.8557 57.2524 33.8462C56.1538 33.8478 55.0552 33.8454 53.9566 33.847C53.9527 39.3859 53.963 44.9248 53.9511 50.4629C53.9305 51.938 52.6274 53.2426 51.1515 53.2625C48.0072 53.2704 44.8628 53.2632 41.7185 53.2656C41.7787 54.8509 42.0854 56.4393 42.7172 57.8985C43.3624 57.9025 44.0068 57.8977 44.652 57.9001C45.2726 57.893 45.8813 58.2021 46.2499 58.6999C46.6605 59.2413 46.7604 59.9982 46.502 60.6268C46.215 61.3671 45.4525 61.8863 44.6583 61.8783C39.5538 61.8807 34.4485 61.8791 29.3439 61.8791C28.7495 61.891 28.1558 61.6239 27.7769 61.1642C27.318 60.6315 27.1864 59.846 27.4385 59.1905C27.7365 58.3551 28.6314 57.8169 29.5088 57.8993C30.0835 57.9009 30.6581 57.9001 31.2328 57.9001C31.8463 56.4369 32.1189 54.8461 32.1657 53.2656C29.0633 53.2648 25.9602 53.2688 22.8579 53.264C21.6903 53.2593 20.5838 52.4682 20.1859 51.3728C20.0472 51.0098 19.9949 50.6182 20.0004 50.2314C20.0012 43.9927 19.9988 37.7539 20.0012 31.5159C19.9957 30.747 20.3088 29.9822 20.8565 29.4424C21.3962 28.8963 22.1588 28.5816 22.926 28.5887C29.1204 28.5879 35.3148 28.5903 41.5084 28.5879C41.514 27.2967 41.4981 26.0055 41.5163 24.7151ZM42.6221 24.8546C42.6157 27.1311 42.6181 29.4083 42.6205 31.6855C42.626 32.0945 42.8091 32.5812 43.2316 32.7159C43.6984 32.7714 44.1716 32.7096 44.6401 32.746C44.8874 32.7809 45.0903 33.0092 45.0951 33.2597C45.1069 33.9025 45.0943 34.5469 45.0998 35.1905C45.772 34.4423 46.4386 33.6893 47.1115 32.941C47.2256 32.8047 47.4 32.7262 47.5784 32.7373C50.8036 32.735 54.0296 32.7389 57.2548 32.7357C57.5552 32.754 57.7961 32.5194 57.9134 32.2633C58.0791 31.9352 58.0434 31.5587 58.0466 31.2036C58.0442 29.0889 58.0514 26.9733 58.0434 24.8586C58.0387 24.4123 57.7779 23.829 57.2619 23.8337C52.6337 23.8329 48.0056 23.8306 43.3782 23.8353C42.8757 23.848 42.6284 24.4171 42.6221 24.8546ZM21.2322 30.8501C21.0911 31.1885 21.1085 31.5611 21.1101 31.9209C21.1109 37.1031 21.1093 42.2861 21.1109 47.4691C31.6893 47.4691 42.2677 47.4699 52.8462 47.4683C52.847 42.9274 52.847 38.3872 52.8462 33.8462C51.1595 33.8478 49.4727 33.8446 47.7868 33.8478C46.8769 34.8711 45.9614 35.8888 45.0515 36.9113C44.9437 37.0318 44.8224 37.161 44.6536 37.1871C44.3381 37.2632 43.9957 37.0025 43.9933 36.6767C43.983 35.7335 43.9933 34.7902 43.9893 33.8462C43.5383 33.8391 43.0572 33.8977 42.6427 33.6766C41.9348 33.327 41.5306 32.5328 41.5124 31.7624C41.5037 31.0744 41.5116 30.3872 41.5092 29.6992C35.3156 29.6968 29.1228 29.6992 22.93 29.6984C22.196 29.6802 21.489 30.1645 21.2322 30.8501ZM21.1109 48.5788C21.1141 49.2097 21.1022 49.8407 21.1164 50.4708C21.1521 51.3982 22.0082 52.1892 22.9347 52.1567C32.3147 52.1551 41.6939 52.1583 51.0739 52.1552C51.9854 52.1615 52.8097 51.372 52.8406 50.4613C52.8557 49.8343 52.8414 49.2074 52.847 48.5804C42.2685 48.5764 31.6893 48.5804 21.1109 48.5788ZM33.2762 53.2664C33.2357 54.8414 32.9734 56.4163 32.4344 57.8993C35.4606 57.9001 38.4861 57.9017 41.5116 57.8985C40.9496 56.4203 40.6627 54.8437 40.6072 53.2656C38.1635 53.2664 35.7198 53.2648 33.2762 53.2664ZM28.9857 59.0685C28.6781 59.1866 28.4467 59.4878 28.4261 59.8191C28.369 60.3327 28.8398 60.8051 29.3511 60.7686C34.4263 60.7702 39.5015 60.7686 44.5767 60.7694C45.038 60.8083 45.4898 60.4484 45.5286 59.9824C45.5984 59.4798 45.1545 58.99 44.6472 59.0114C39.576 59.0066 34.5039 59.0122 29.4327 59.009C29.2821 59.0098 29.1275 59.0114 28.9857 59.0685Z"
      fill="#CC0D00" stroke="#CC0D00" stroke-width="0.338188" />
    <path
      d="M46.2642 27.5242C46.8262 27.3331 47.4294 27.9244 47.2463 28.4912C47.1179 29.0666 46.3039 29.2751 45.9147 28.8328C45.4986 28.4381 45.7078 27.6589 46.2642 27.5242Z"
      fill="#CC0D00" stroke="#CC0D00" stroke-width="0.338188" />
    <path
      d="M50.1481 27.5163C50.722 27.3451 51.303 27.972 51.0898 28.5308C50.9312 29.0984 50.1077 29.264 49.7423 28.8027C49.3499 28.3905 49.5917 27.6296 50.1481 27.5163Z"
      fill="#CC0D00" stroke="#CC0D00" stroke-width="0.338188" />
    <path
      d="M53.9535 27.5303C54.5218 27.3187 55.1488 27.9227 54.9546 28.4981C54.8246 29.0522 54.055 29.267 53.6555 28.8627C53.2116 28.4862 53.3923 27.6817 53.9535 27.5303Z"
      fill="#CC0D00" stroke="#CC0D00" stroke-width="0.338188" />
    <path
      d="M36.2858 31.1821C37.6483 30.8326 39.1725 31.5903 39.725 32.8799C40.3274 34.1529 39.8661 35.7992 38.6985 36.5831C38.0407 37.0444 37.1933 37.2259 36.4039 37.0674C35.5375 36.9057 34.7631 36.335 34.3407 35.5638C33.9111 34.7957 33.8492 33.8358 34.1734 33.0186C34.5214 32.1095 35.3386 31.4017 36.2858 31.1821ZM36.5838 32.2514C35.9339 32.3845 35.3759 32.8839 35.1721 33.5148C34.9764 34.0934 35.085 34.764 35.4551 35.2507C35.8031 35.7199 36.3761 36.0148 36.9611 36.014C37.5516 36.0243 38.1358 35.7358 38.4909 35.2649C38.8872 34.7545 38.991 34.0364 38.7556 33.4348C38.4465 32.5795 37.4716 32.0453 36.5838 32.2514Z"
      fill="#CC0D00" stroke="#CC0D00" stroke-width="0.338188" />
    <path
      d="M36.2628 37.4766C37.7126 37.2966 39.2265 37.6763 40.4067 38.5403C41.946 39.6365 42.9035 41.5118 42.8456 43.4046C42.8258 43.8422 42.6253 44.2575 42.3233 44.5706C41.8913 45.0216 41.3182 45.3062 40.7356 45.5099C39.7258 45.8586 38.6566 46.0029 37.5937 46.0496C36.3088 46.0964 35.0073 46.0084 33.7613 45.6755C32.8815 45.4274 31.9446 45.0644 31.404 44.2845C31.0743 43.8232 31.0751 43.2303 31.1369 42.6905C31.2717 41.3716 31.874 40.1089 32.8117 39.172C33.728 38.2407 34.9653 37.6319 36.2628 37.4766ZM36.0496 38.6338C35.7001 38.6988 35.364 38.8201 35.0382 38.9596C33.3285 39.707 32.1388 41.5372 32.2244 43.4102C32.3219 43.816 32.7071 44.0562 33.0527 44.2361C33.8715 44.6348 34.783 44.7941 35.681 44.8908C37.0087 45.0129 38.3617 44.9645 39.6632 44.6649C40.2323 44.5246 40.8086 44.3463 41.2905 44.0031C41.5092 43.8414 41.724 43.6163 41.7391 43.3293C41.7637 41.7148 40.8839 40.1319 39.5166 39.279C38.4996 38.6299 37.2322 38.3944 36.0496 38.6338Z"
      fill="#CC0D00" stroke="#CC0D00" stroke-width="0.338188" />
    <path
      d="M35.4757 49.8534C35.6224 49.7971 35.7833 49.8138 35.9378 49.809C36.7289 49.8169 37.5207 49.7995 38.3117 49.8169C38.632 49.8241 38.888 50.1578 38.8182 50.4701C38.7738 50.7395 38.5091 50.9401 38.238 50.9195C37.3891 50.9195 36.5402 50.9211 35.6913 50.9187C35.4282 50.9314 35.1777 50.7261 35.1373 50.4661C35.0857 50.2148 35.2363 49.9445 35.4757 49.8534Z"
      fill="#CC0D00" stroke="#CC0D00" stroke-width="0.338188" />
  </g>
  <defs>
    <filter id="filter0_d_275_170" x="0" y="0.722595" width="84" height="84"
      filterUnits="userSpaceOnUse" color-interpolation-filters="sRGB">
      <feFlood flood-opacity="0" result="BackgroundImageFix" />
      <feColorMatrix in="SourceAlpha" type="matrix"
        values="0 0 0 0 0 0 0 0 0 0 0 0 0 0 0 0 0 0 127 0" result="hardAlpha" />
      <feOffset dx="4" dy="4" />
      <feComposite in2="hardAlpha" operator="out" />
      <feColorMatrix type="matrix"
        values="0 0 0 0 0.976471 0 0 0 0 0.827451 0 0 0 0 0.819608 0 0 0 0.3 0" />
      <feBlend mode="normal" in2="BackgroundImageFix" result="effect1_dropShadow_3701_5370" />
      <feBlend mode="normal" in="SourceGraphic" in2="effect1_dropShadow_3701_5370" result="shape" />
    </filter>
  </defs>
</svg>