<svg width="951" height="143" viewBox="0 0 951 143" fill="none" xmlns="http://www.w3.org/2000/svg">
  <g clip-path="url(#clip0_11_387)">
    <path
      d="M71.8602 2.20453C78.5383 0.57934 85.7128 1.54911 91.878 4.50979C95.5342 6.60958 98.0555 10.2688 99.3985 14.1972C101.392 19.9891 101.473 26.233 100.997 32.2777C100.187 41.0755 98.0843 49.7315 95.079 58.0341C94.0223 60.853 92.9017 63.6678 91.3898 66.2813C91.087 66.8072 90.7574 67.3229 90.3289 67.7585C91.8471 63.7932 93.015 59.7024 93.9934 55.5748C95.3468 49.6822 96.2407 43.654 96.1748 37.597C96.1336 31.7928 95.1676 25.8365 92.3229 20.7041C89.3794 15.3416 84.1123 11.2345 78.0975 9.94214C73.0653 8.85526 67.8085 9.86818 63.1326 11.8509C56.8583 14.5177 51.3399 18.6721 46.353 23.2621C43.805 25.629 41.4155 28.1623 39.1538 30.8025C42.534 24.8298 46.7361 19.3091 51.583 14.4417C57.2126 8.83677 64.0184 4.05161 71.8602 2.20453Z"
      fill="#CC0D00" />
    <path
      d="M53.3565 10.353C44.7278 18.705 37.44 28.4027 31.5344 38.838C28.1253 44.934 25.2106 51.3114 22.9757 57.9293C20.8602 64.0787 19.3977 70.4438 18.4811 76.8788C17.6777 82.3687 17.3172 87.9367 17.6654 93.48C18.0608 99.0377 19.2185 104.665 21.9849 109.561C24.1271 113.305 27.3426 116.722 31.5529 118.063C31.3263 118.308 30.97 118.32 30.6692 118.421C26.7514 119.481 22.5225 119.812 18.5799 118.692C15.5375 117.841 12.8206 115.912 11.0326 113.313C8.67201 109.921 7.73065 105.773 7.36606 101.719C6.83049 94.6778 7.82952 87.6244 9.27555 80.7456C10.289 75.9789 11.562 71.2719 12.9874 66.6141C13.319 65.5827 13.5807 64.5225 14.0235 63.5301C16.8393 57.2061 20.0857 51.0772 23.6245 45.1271C28.2221 37.4573 33.3697 30.0936 39.2918 23.3771C43.531 18.5858 48.178 14.1253 53.3565 10.353Z"
      fill="#CC0D00" />
    <path
      d="M91.1016 68.8002C97.8188 68.7529 104.538 68.7899 111.257 68.7817C111.259 70.4028 111.257 72.0218 111.259 73.6429C108.755 73.6552 106.248 73.6326 103.743 73.6552C103.757 81.6086 103.739 89.5619 103.751 97.5173C102.052 97.5235 100.352 97.4947 98.6551 97.5317C98.5892 89.5722 98.6386 81.6086 98.6283 73.647C96.1194 73.6367 93.6105 73.6614 91.1016 73.6347C91.1242 72.0239 91.1242 70.411 91.1016 68.8002Z"
      fill="#CC0D00" />
    <path
      d="M25.845 69.1433C29.1099 69.1495 32.3768 69.1454 35.6438 69.1474C37.5018 69.1659 39.368 69.1823 41.2136 69.433C43.496 69.7679 45.5002 71.3006 46.596 73.2998C47.422 74.8161 47.6672 76.5768 47.628 78.2822C47.5786 79.9094 47.214 81.5716 46.285 82.9338C45.0161 84.9575 42.7585 86.2951 40.3938 86.556C37.475 86.9135 34.5294 86.7985 31.5982 86.8087C31.5961 90.3694 31.5714 93.932 31.6106 97.4947C29.6867 97.5358 27.7607 97.5153 25.8347 97.505C25.8636 88.0518 25.843 78.5965 25.845 69.1433ZM31.5838 73.9655C31.6003 76.6385 31.5941 79.3115 31.5879 81.9845C33.7487 82.0215 35.9218 82.0565 38.0765 81.8263C39.1311 81.7154 40.1775 81.2593 40.8593 80.4272C41.8378 79.2355 41.9758 77.4603 41.2878 76.0981C40.643 74.8674 39.2753 74.1463 37.9137 74.0641C35.8086 73.9244 33.6931 73.8977 31.5838 73.9655Z"
      fill="#CC0D00" />
    <path
      d="M48.4438 69.1721C55.1652 69.1289 61.8906 69.1577 68.614 69.1577C68.6119 70.7767 68.614 72.3937 68.6119 74.0127C66.0989 74.0456 63.5838 73.9696 61.0728 74.0518C61.1264 81.9969 61.0893 89.9461 61.0914 97.8933C59.3838 97.8728 57.6782 97.8892 55.9726 97.8851C55.9809 89.9297 55.9706 81.9743 55.9788 74.0189C53.472 74.0127 50.9651 74.0209 48.4583 74.0168C48.4583 72.3999 48.485 70.7849 48.4438 69.1721Z"
      fill="#CC0D00" />
    <path
      d="M76.7587 79.8971C78.7032 81.8264 80.6457 83.7577 82.5737 85.7054C82.5531 89.6421 82.5716 93.5807 82.5655 97.5173C80.6271 97.6447 78.6888 97.7536 76.7505 97.8872C76.7608 91.8898 76.7464 85.8945 76.7587 79.8971Z"
      fill="#CC0D00" />
    <path
      d="M70.404 90.9837C72.3732 88.2306 74.258 85.3069 75.1416 82.0072C75.2405 86.7985 75.1231 91.5898 75.1849 96.3832C75.1808 96.638 75.018 96.8496 74.913 97.0736C71.3515 103.751 65.8373 109.171 59.8513 113.71C55.746 116.802 51.34 119.485 46.7836 121.864C43.8668 123.403 40.7976 124.679 37.5884 125.464C33.4625 126.481 29.0832 126.656 24.9408 125.635C19.5666 124.326 14.7157 121.094 11.3354 116.742C13.8732 119.333 17.4182 120.745 20.9879 121.135C25.7009 121.673 30.4489 120.619 34.8384 118.943C41.6792 116.296 47.7867 112.113 53.5234 107.612C59.736 102.718 65.6766 97.353 70.404 90.9837Z"
      fill="#CC0D00" />
    <path
      d="M2.36474 128.854C18.6768 128.877 34.9908 128.862 51.3029 128.862C53.6635 128.821 56.2671 128.831 58.2508 130.294C60.1664 128.77 62.7619 128.825 65.0833 128.848C81.0946 128.856 97.1038 128.856 113.113 128.85C113.111 129.571 113.13 130.294 113.099 131.02C96.6878 131.022 80.2768 131.028 63.866 131.011C62.5415 131.026 61.1346 131.091 59.9584 131.759C59.6165 131.932 59.4167 132.263 59.2663 132.6C58.5659 132.626 57.8676 132.661 57.1694 132.71C57.1199 131.993 56.4175 131.652 55.814 131.461C53.8859 130.839 51.8343 131.069 49.8445 131.036C34.0186 131.044 18.1927 131.017 2.3668 131.048C2.35032 130.317 2.35444 129.585 2.36474 128.854Z"
      fill="#CC0D00" />
    <path
      d="M2.35449 132.608C19.0867 132.616 35.8169 132.61 52.5471 132.61C54.3206 132.727 56.0324 133.59 57.1261 134.997C57.1303 137.249 57.1282 139.503 57.1261 141.755C56.0324 139.791 53.61 139.152 51.5069 139.15C35.1248 139.199 18.7427 139.285 2.36273 139.39C2.35037 137.13 2.36479 134.868 2.35449 132.608Z"
      fill="#CC0D00" />
    <path
      d="M58.3333 135.018C59.4332 133.561 61.2068 132.702 63.0194 132.604C79.7064 132.612 96.3953 132.626 113.082 132.598C113.161 134.856 113.093 137.12 113.115 139.38C96.692 139.3 80.2687 139.189 63.8434 139.152C61.7773 139.17 59.4394 139.826 58.3415 141.726C58.3333 139.491 58.3539 137.253 58.3333 135.018Z"
      fill="#CC0D00" />
    <path
      d="M85.4964 54.5434C85.5644 54.2825 85.7127 54.0523 85.8445 53.8181C85.208 58.8313 84.4005 63.8261 83.7105 68.8352C82.3633 69.5009 81.0945 70.3268 79.7144 70.9267C81.2654 66.4662 82.9092 62.0386 84.4973 57.5904C84.8413 56.5774 85.2883 55.5974 85.4964 54.5434Z"
      fill="#B89C0E" />
    <path
      d="M70.6489 68.8639C72.7706 69.8008 74.8593 70.8137 76.9768 71.7588C77.259 71.8759 77.5186 72.0424 77.7554 72.2375C76.2929 72.782 74.8243 73.31 73.3618 73.8566C72.4513 72.1964 71.4955 70.5569 70.6489 68.8639Z"
      fill="#B89C0E" />
    <path
      d="M67.5469 84.0145C71.1949 80.4826 74.7976 76.9015 78.4682 73.3943C79.7989 76.7042 81.2161 79.9854 82.4376 83.3344C80.9071 81.6743 79.4549 79.9402 77.9862 78.2246C74.365 80.3018 70.8344 82.5475 67.1843 84.5713C67.2832 84.372 67.38 84.1665 67.5469 84.0145Z"
      fill="#B89C0E" />
    <path
      d="M77.706 68.7305C80.3035 64.0028 82.8371 59.2362 85.4964 54.5435C85.2883 55.5975 84.8414 56.5775 84.4974 57.5904C82.9092 62.0386 81.2654 66.4663 79.7144 70.9268C81.0945 70.3269 82.3633 69.5009 83.7105 68.8352C85.8589 68.7633 88.0115 68.8311 90.162 68.7448C90.1682 68.8003 90.1826 68.9092 90.1888 68.9647C90.1434 68.9729 90.0549 68.9893 90.0095 68.9996C89.6141 69.0715 89.2227 69.1516 88.8437 69.2831C85.6488 70.407 82.4396 71.4877 79.2447 72.6095C80.2952 73.2239 81.4735 73.5773 82.5673 74.1073C82.5508 77.2509 82.592 80.3965 82.5467 83.54C82.5178 83.4886 82.4643 83.3859 82.4375 83.3345C81.216 79.9855 79.7988 76.7043 78.4682 73.3944C74.7975 76.9016 71.1948 80.4828 67.5468 84.0146C67.3799 84.1666 67.2831 84.3721 67.1842 84.5714C67.0607 84.8015 66.7496 84.8426 66.5498 84.9864C68.8465 81.2943 71.0815 77.5611 73.3618 73.8567C74.8243 73.3102 76.2929 72.7821 77.7554 72.2377C77.5186 72.0425 77.259 71.876 76.9768 71.7589C74.8593 70.8138 72.7706 69.8009 70.6489 68.864L70.5707 68.8311C72.9477 68.7715 75.3269 68.79 77.706 68.7305Z"
      fill="#EFF003" />
    <path
      d="M88.8438 69.283C89.2228 69.1516 89.6142 69.0714 90.0097 68.9995C87.5523 70.7356 85.0475 72.406 82.5674 74.1072C81.4736 73.5772 80.2954 73.2238 79.2449 72.6094C82.4397 71.4876 85.649 70.4069 88.8438 69.283Z"
      fill="#B89C0D" />
  </g>
  <g clip-path="url(#clip1_11_387)">
    <mask id="mask0_11_387" style="mask-type:luminance" maskUnits="userSpaceOnUse" x="133" y="0"
      width="143" height="143">
      <path d="M276 0H133V143H276V0Z" fill="white" />
    </mask>
    <g mask="url(#mask0_11_387)">
      <path fill-rule="evenodd" clip-rule="evenodd"
        d="M204.5 143C243.988 143 276 110.989 276 71.5C276 32.0115 243.988 0 204.5 0C165.012 0 133 32.0115 133 71.5C133 110.989 165.012 143 204.5 143ZM204.5 140.617C236.091 140.617 261.7 115.008 261.7 83.4167C261.7 51.8258 236.091 26.2167 204.5 26.2167C172.909 26.2167 147.3 51.8258 147.3 83.4167C147.3 115.008 172.909 140.617 204.5 140.617Z"
        fill="#0033CD" />
      <path fill-rule="evenodd" clip-rule="evenodd"
        d="M204.5 100.1L199.644 59.5834H163C163 61.5148 157.3 77.2882 154.45 84.9337H197.35C198.855 95.3451 200.772 111.052 202.247 123.133C203.429 132.814 204.326 140.165 204.5 140.596V100.1Z"
        fill="#0033CD" />
      <path fill-rule="evenodd" clip-rule="evenodd"
        d="M204.5 100.1L209.356 59.5834H246C246 61.5148 251.7 77.2882 254.55 84.9337H211.65C210.145 95.3462 208.227 111.056 206.752 123.137C205.57 132.824 204.672 140.179 204.5 140.598V100.1Z"
        fill="#0033CD" />
    </g>
  </g>
  <path
    d="M322.143 54H319.34V44.7715H309.482V54H306.68V34.0117H309.482V42.3516H319.34V34.0117H322.143V54ZM345.057 43.9785C345.057 45.5189 344.861 46.9225 344.469 48.1895C344.077 49.4473 343.493 50.5319 342.719 51.4434C341.953 52.3457 340.992 53.043 339.834 53.5352C338.686 54.0273 337.341 54.2734 335.801 54.2734C334.233 54.2734 332.866 54.0273 331.699 53.5352C330.542 53.043 329.58 52.3411 328.814 51.4297C328.049 50.5182 327.475 49.429 327.092 48.1621C326.718 46.8952 326.531 45.4915 326.531 43.9512C326.531 41.9004 326.868 40.1048 327.543 38.5645C328.217 37.0241 329.243 35.8301 330.619 34.9824C332.005 34.1257 333.745 33.6973 335.842 33.6973C337.865 33.6973 339.561 34.1211 340.928 34.9688C342.295 35.8164 343.325 37.0104 344.018 38.5508C344.71 40.082 345.057 41.8913 345.057 43.9785ZM329.471 43.9785C329.471 45.6009 329.694 47.0046 330.141 48.1895C330.596 49.3652 331.289 50.2767 332.219 50.9238C333.158 51.5618 334.352 51.8809 335.801 51.8809C337.268 51.8809 338.467 51.5618 339.396 50.9238C340.326 50.2767 341.01 49.3652 341.447 48.1895C341.885 47.0046 342.104 45.6009 342.104 43.9785C342.104 41.5176 341.602 39.5944 340.6 38.209C339.597 36.8145 338.011 36.1172 335.842 36.1172C334.383 36.1172 333.185 36.4362 332.246 37.0742C331.307 37.7031 330.61 38.6055 330.154 39.7812C329.699 40.9479 329.471 42.347 329.471 43.9785ZM335.801 59.0723C335.363 59.0723 334.99 58.9401 334.68 58.6758C334.37 58.4206 334.215 58.0104 334.215 57.4453C334.215 56.862 334.37 56.4427 334.68 56.1875C334.99 55.9323 335.363 55.8047 335.801 55.8047C336.257 55.8047 336.639 55.9323 336.949 56.1875C337.259 56.4427 337.414 56.862 337.414 57.4453C337.414 58.0104 337.259 58.4206 336.949 58.6758C336.639 58.9401 336.257 59.0723 335.801 59.0723ZM357.949 36.1445C356.919 36.1445 355.994 36.3268 355.174 36.6914C354.363 37.0469 353.674 37.571 353.109 38.2637C352.544 38.9473 352.111 39.7721 351.811 40.7383C351.51 41.7044 351.359 42.7936 351.359 44.0059C351.359 45.6191 351.596 47.0137 352.07 48.1895C352.553 49.3652 353.278 50.2721 354.244 50.9102C355.21 51.5482 356.427 51.8672 357.895 51.8672C358.77 51.8672 359.604 51.7897 360.396 51.6348C361.199 51.4707 361.996 51.2611 362.789 51.0059V53.4121C362.023 53.7038 361.23 53.918 360.41 54.0547C359.599 54.2005 358.646 54.2734 357.553 54.2734C355.511 54.2734 353.811 53.8496 352.453 53.002C351.104 52.1543 350.097 50.9648 349.432 49.4336C348.766 47.8932 348.434 46.0794 348.434 43.9922C348.434 42.4792 348.643 41.0983 349.062 39.8496C349.482 38.5918 350.097 37.5072 350.908 36.5957C351.719 35.6751 352.713 34.9688 353.889 34.4766C355.074 33.9753 356.436 33.7246 357.977 33.7246C358.979 33.7246 359.954 33.834 360.902 34.0527C361.859 34.2624 362.739 34.5586 363.541 34.9414L362.502 37.2793C361.837 36.9785 361.121 36.7142 360.355 36.4863C359.599 36.2585 358.797 36.1445 357.949 36.1445ZM388.779 34.0117L381.697 54H378.785L371.703 34.0117H374.602L379.045 46.8633C379.209 47.3099 379.364 47.7839 379.51 48.2852C379.656 48.7773 379.792 49.2695 379.92 49.7617C380.048 50.2539 380.152 50.7051 380.234 51.1152C380.316 50.7051 380.417 50.2539 380.535 49.7617C380.663 49.2695 380.804 48.7728 380.959 48.2715C381.114 47.7611 381.269 47.278 381.424 46.8223L385.854 34.0117H388.779ZM391.473 54V34.0117H394.275V54H391.473ZM410.9 54H399.676V34.0117H410.9V36.418H402.479V42.3652H410.395V44.7441H402.479V51.5801H410.9V54ZM405.377 59.0723C404.939 59.0723 404.566 58.9401 404.256 58.6758C403.946 58.4206 403.791 58.0104 403.791 57.4453C403.791 56.862 403.946 56.4427 404.256 56.1875C404.566 55.9323 404.939 55.8047 405.377 55.8047C405.833 55.8047 406.215 55.9323 406.525 56.1875C406.835 56.4427 406.99 56.862 406.99 57.4453C406.99 58.0104 406.835 58.4206 406.525 58.6758C406.215 58.9401 405.833 59.0723 405.377 59.0723ZM407.018 27.627C407.255 28.0371 407.578 28.502 407.988 29.0215C408.408 29.5319 408.845 30.0332 409.301 30.5254C409.757 31.0085 410.158 31.4277 410.504 31.7832V32.0977H408.604C408.111 31.7878 407.596 31.4095 407.059 30.9629C406.53 30.5072 406.02 30.0286 405.527 29.5273C405.035 30.0286 404.529 30.5026 404.01 30.9492C403.49 31.3867 402.984 31.7695 402.492 32.0977H400.633V31.7832C400.979 31.4186 401.371 30.9948 401.809 30.5117C402.255 30.0195 402.684 29.5182 403.094 29.0078C403.504 28.4974 403.832 28.0371 404.078 27.627H407.018ZM431.422 54H428.059L417.709 37.6211H417.6C417.627 38.1133 417.659 38.6556 417.695 39.248C417.732 39.8314 417.759 40.4466 417.777 41.0938C417.805 41.7318 417.823 42.3789 417.832 43.0352V54H415.262V34.0117H418.598L428.906 50.3086H429.002C428.984 49.9076 428.961 49.4108 428.934 48.8184C428.906 48.2259 428.879 47.6016 428.852 46.9453C428.833 46.2799 428.824 45.651 428.824 45.0586V34.0117H431.422V54ZM452.586 36.1445C451.556 36.1445 450.631 36.3268 449.811 36.6914C448.999 37.0469 448.311 37.571 447.746 38.2637C447.181 38.9473 446.748 39.7721 446.447 40.7383C446.146 41.7044 445.996 42.7936 445.996 44.0059C445.996 45.6191 446.233 47.0137 446.707 48.1895C447.19 49.3652 447.915 50.2721 448.881 50.9102C449.847 51.5482 451.064 51.8672 452.531 51.8672C453.406 51.8672 454.24 51.7897 455.033 51.6348C455.835 51.4707 456.633 51.2611 457.426 51.0059V53.4121C456.66 53.7038 455.867 53.918 455.047 54.0547C454.236 54.2005 453.283 54.2734 452.189 54.2734C450.148 54.2734 448.448 53.8496 447.09 53.002C445.741 52.1543 444.734 50.9648 444.068 49.4336C443.403 47.8932 443.07 46.0794 443.07 43.9922C443.07 42.4792 443.28 41.0983 443.699 39.8496C444.118 38.5918 444.734 37.5072 445.545 36.5957C446.356 35.6751 447.35 34.9688 448.525 34.4766C449.71 33.9753 451.073 33.7246 452.613 33.7246C453.616 33.7246 454.591 33.834 455.539 34.0527C456.496 34.2624 457.376 34.5586 458.178 34.9414L457.139 37.2793C456.473 36.9785 455.758 36.7142 454.992 36.4863C454.236 36.2585 453.434 36.1445 452.586 36.1445ZM479.287 43.9785C479.287 45.5189 479.091 46.9225 478.699 48.1895C478.307 49.4473 477.724 50.5319 476.949 51.4434C476.184 52.3457 475.222 53.043 474.064 53.5352C472.916 54.0273 471.572 54.2734 470.031 54.2734C468.464 54.2734 467.096 54.0273 465.93 53.5352C464.772 53.043 463.811 52.3411 463.045 51.4297C462.279 50.5182 461.705 49.429 461.322 48.1621C460.949 46.8952 460.762 45.4915 460.762 43.9512C460.762 41.9004 461.099 40.1048 461.773 38.5645C462.448 37.0241 463.473 35.8301 464.85 34.9824C466.235 34.1257 467.976 33.6973 470.072 33.6973C472.096 33.6973 473.791 34.1211 475.158 34.9688C476.525 35.8164 477.555 37.0104 478.248 38.5508C478.941 40.082 479.287 41.8913 479.287 43.9785ZM463.701 43.9785C463.701 45.6009 463.924 47.0046 464.371 48.1895C464.827 49.3652 465.52 50.2767 466.449 50.9238C467.388 51.5618 468.582 51.8809 470.031 51.8809C471.499 51.8809 472.697 51.5618 473.627 50.9238C474.557 50.2767 475.24 49.3652 475.678 48.1895C476.115 47.0046 476.334 45.6009 476.334 43.9785C476.334 41.5176 475.833 39.5944 474.83 38.209C473.827 36.8145 472.242 36.1172 470.072 36.1172C468.614 36.1172 467.415 36.4362 466.477 37.0742C465.538 37.7031 464.84 38.6055 464.385 39.7812C463.929 40.9479 463.701 42.347 463.701 43.9785ZM471.535 27.627C471.772 28.0371 472.096 28.502 472.506 29.0215C472.925 29.5319 473.363 30.0332 473.818 30.5254C474.274 31.0085 474.675 31.4277 475.021 31.7832V32.0977H473.121C472.629 31.7878 472.114 31.4095 471.576 30.9629C471.048 30.5072 470.537 30.0286 470.045 29.5273C469.553 30.0286 469.047 30.5026 468.527 30.9492C468.008 31.3867 467.502 31.7695 467.01 32.0977H465.15V31.7832C465.497 31.4186 465.889 30.9948 466.326 30.5117C466.773 30.0195 467.201 29.5182 467.611 29.0078C468.021 28.4974 468.35 28.0371 468.596 27.627H471.535ZM499.809 54H496.445L486.096 37.6211H485.986C486.014 38.1133 486.046 38.6556 486.082 39.248C486.118 39.8314 486.146 40.4466 486.164 41.0938C486.191 41.7318 486.21 42.3789 486.219 43.0352V54H483.648V34.0117H486.984L497.293 50.3086H497.389C497.37 49.9076 497.348 49.4108 497.32 48.8184C497.293 48.2259 497.266 47.6016 497.238 46.9453C497.22 46.2799 497.211 45.651 497.211 45.0586V34.0117H499.809V54ZM513.48 43.3359H520.699V53.1934C519.651 53.5488 518.571 53.8177 517.459 54C516.347 54.1823 515.098 54.2734 513.713 54.2734C511.653 54.2734 509.917 53.8633 508.504 53.043C507.091 52.2227 506.016 51.0469 505.277 49.5156C504.548 47.9844 504.184 46.1432 504.184 43.9922C504.184 41.9232 504.589 40.1185 505.4 38.5781C506.212 37.0378 507.392 35.8438 508.941 34.9961C510.491 34.1484 512.359 33.7246 514.547 33.7246C515.641 33.7246 516.689 33.8294 517.691 34.0391C518.703 34.2487 519.633 34.5404 520.48 34.9141L519.469 37.2793C518.758 36.9603 517.969 36.6914 517.104 36.4727C516.247 36.2448 515.358 36.1309 514.438 36.1309C512.906 36.1309 511.589 36.4544 510.486 37.1016C509.393 37.7487 508.549 38.6602 507.957 39.8359C507.374 41.0117 507.082 42.4062 507.082 44.0195C507.082 45.5964 507.328 46.9727 507.82 48.1484C508.312 49.3242 509.083 50.2402 510.131 50.8965C511.179 51.5527 512.528 51.8809 514.178 51.8809C515.007 51.8809 515.714 51.8353 516.297 51.7441C516.889 51.653 517.432 51.5436 517.924 51.416V45.7832H513.48V43.3359ZM548.945 54H545.582L535.232 37.6211H535.123C535.15 38.1133 535.182 38.6556 535.219 39.248C535.255 39.8314 535.283 40.4466 535.301 41.0938C535.328 41.7318 535.346 42.3789 535.355 43.0352V54H532.785V34.0117H536.121L546.43 50.3086H546.525C546.507 49.9076 546.484 49.4108 546.457 48.8184C546.43 48.2259 546.402 47.6016 546.375 46.9453C546.357 46.2799 546.348 45.651 546.348 45.0586V34.0117H548.945V54ZM562.617 43.3359H569.836V53.1934C568.788 53.5488 567.708 53.8177 566.596 54C565.484 54.1823 564.235 54.2734 562.85 54.2734C560.79 54.2734 559.053 53.8633 557.641 53.043C556.228 52.2227 555.152 51.0469 554.414 49.5156C553.685 47.9844 553.32 46.1432 553.32 43.9922C553.32 41.9232 553.726 40.1185 554.537 38.5781C555.348 37.0378 556.529 35.8438 558.078 34.9961C559.628 34.1484 561.496 33.7246 563.684 33.7246C564.777 33.7246 565.826 33.8294 566.828 34.0391C567.84 34.2487 568.77 34.5404 569.617 34.9141L568.605 37.2793C567.895 36.9603 567.106 36.6914 566.24 36.4727C565.383 36.2448 564.495 36.1309 563.574 36.1309C562.043 36.1309 560.726 36.4544 559.623 37.1016C558.529 37.7487 557.686 38.6602 557.094 39.8359C556.51 41.0117 556.219 42.4062 556.219 44.0195C556.219 45.5964 556.465 46.9727 556.957 48.1484C557.449 49.3242 558.219 50.2402 559.268 50.8965C560.316 51.5527 561.665 51.8809 563.314 51.8809C564.144 51.8809 564.85 51.8353 565.434 51.7441C566.026 51.653 566.568 51.5436 567.061 51.416V45.7832H562.617V43.3359ZM590.111 54H587.309V44.7715H577.451V54H574.648V34.0117H577.451V42.3516H587.309V34.0117H590.111V54ZM606.709 54H595.484V34.0117H606.709V36.418H598.287V42.3652H606.203V44.7441H598.287V51.5801H606.709V54ZM601.186 59.0723C600.748 59.0723 600.374 58.9401 600.064 58.6758C599.755 58.4206 599.6 58.0104 599.6 57.4453C599.6 56.862 599.755 56.4427 600.064 56.1875C600.374 55.9323 600.748 55.8047 601.186 55.8047C601.641 55.8047 602.024 55.9323 602.334 56.1875C602.644 56.4427 602.799 56.862 602.799 57.4453C602.799 58.0104 602.644 58.4206 602.334 58.6758C602.024 58.9401 601.641 59.0723 601.186 59.0723ZM602.826 27.627C603.063 28.0371 603.387 28.502 603.797 29.0215C604.216 29.5319 604.654 30.0332 605.109 30.5254C605.565 31.0085 605.966 31.4277 606.312 31.7832V32.0977H604.412C603.92 31.7878 603.405 31.4095 602.867 30.9629C602.339 30.5072 601.828 30.0286 601.336 29.5273C600.844 30.0286 600.338 30.5026 599.818 30.9492C599.299 31.3867 598.793 31.7695 598.301 32.0977H596.441V31.7832C596.788 31.4186 597.18 30.9948 597.617 30.5117C598.064 30.0195 598.492 29.5182 598.902 29.0078C599.312 28.4974 599.641 28.0371 599.887 27.627H602.826ZM618.344 34.0117H624.141C626.684 34.0117 628.598 34.3854 629.883 35.1328C631.168 35.8802 631.811 37.1608 631.811 38.9746C631.811 39.7493 631.669 40.4421 631.387 41.0527C631.104 41.6634 630.694 42.1693 630.156 42.5703C629.618 42.9714 628.958 43.2448 628.174 43.3906V43.5273C628.994 43.6641 629.723 43.9102 630.361 44.2656C630.999 44.6211 631.501 45.127 631.865 45.7832C632.239 46.4303 632.426 47.2643 632.426 48.2852C632.426 49.5065 632.139 50.5456 631.564 51.4023C630.99 52.25 630.174 52.8971 629.117 53.3438C628.069 53.7812 626.82 54 625.371 54H618.344V34.0117ZM621.146 42.4199H624.633C626.246 42.4199 627.363 42.1556 627.982 41.627C628.602 41.0983 628.912 40.3281 628.912 39.3164C628.912 38.2682 628.543 37.5163 627.805 37.0605C627.066 36.5957 625.895 36.3633 624.291 36.3633H621.146V42.4199ZM621.146 44.7305V51.6348H624.961C626.611 51.6348 627.773 51.3112 628.447 50.6641C629.131 50.0169 629.473 49.1465 629.473 48.0527C629.473 47.36 629.318 46.7676 629.008 46.2754C628.707 45.7741 628.215 45.3913 627.531 45.127C626.848 44.8626 625.927 44.7305 624.77 44.7305H621.146ZM652.018 34.0117V36.7051C652.574 36.5866 653.007 36.3542 653.316 36.0078C653.626 35.6523 653.845 35.2012 653.973 34.6543C654.1 34.0983 654.164 33.4557 654.164 32.7266H656.98L657.172 33.0137C657.053 33.7064 656.885 34.3581 656.666 34.9688C656.447 35.5703 656.146 36.1126 655.764 36.5957C655.381 37.0788 654.884 37.4889 654.273 37.8262C653.672 38.1543 652.92 38.3913 652.018 38.5371V46.9453C652.018 48.349 651.74 49.6022 651.184 50.7051C650.637 51.8079 649.794 52.6784 648.654 53.3164C647.515 53.9544 646.057 54.2734 644.279 54.2734C641.727 54.2734 639.777 53.6035 638.428 52.2637C637.088 50.9147 636.418 49.1237 636.418 46.8906V34.0117H639.234V46.877C639.234 48.5085 639.663 49.7526 640.52 50.6094C641.376 51.457 642.652 51.8809 644.348 51.8809C645.496 51.8809 646.43 51.6758 647.15 51.2656C647.87 50.8555 648.395 50.2767 648.723 49.5293C649.06 48.7728 649.229 47.8932 649.229 46.8906V34.0117H652.018ZM674.439 34.0117V46.9453C674.439 48.349 674.148 49.6022 673.564 50.7051C672.99 51.8079 672.12 52.6784 670.953 53.3164C669.786 53.9544 668.319 54.2734 666.551 54.2734C664.044 54.2734 662.13 53.6035 660.809 52.2637C659.496 50.9147 658.84 49.1237 658.84 46.8906V34.0117H661.656V46.7812C661.656 48.4674 662.076 49.7389 662.914 50.5957C663.762 51.4525 665.02 51.8809 666.688 51.8809C667.836 51.8809 668.775 51.6758 669.504 51.2656C670.233 50.8464 670.771 50.2585 671.117 49.502C671.473 48.7363 671.65 47.8294 671.65 46.7812V34.0117H674.439ZM695.453 36.1445C694.423 36.1445 693.498 36.3268 692.678 36.6914C691.867 37.0469 691.178 37.571 690.613 38.2637C690.048 38.9473 689.615 39.7721 689.314 40.7383C689.014 41.7044 688.863 42.7936 688.863 44.0059C688.863 45.6191 689.1 47.0137 689.574 48.1895C690.057 49.3652 690.782 50.2721 691.748 50.9102C692.714 51.5482 693.931 51.8672 695.398 51.8672C696.273 51.8672 697.107 51.7897 697.9 51.6348C698.702 51.4707 699.5 51.2611 700.293 51.0059V53.4121C699.527 53.7038 698.734 53.918 697.914 54.0547C697.103 54.2005 696.15 54.2734 695.057 54.2734C693.015 54.2734 691.315 53.8496 689.957 53.002C688.608 52.1543 687.601 50.9648 686.936 49.4336C686.27 47.8932 685.938 46.0794 685.938 43.9922C685.938 42.4792 686.147 41.0983 686.566 39.8496C686.986 38.5918 687.601 37.5072 688.412 36.5957C689.223 35.6751 690.217 34.9688 691.393 34.4766C692.577 33.9753 693.94 33.7246 695.48 33.7246C696.483 33.7246 697.458 33.834 698.406 34.0527C699.363 34.2624 700.243 34.5586 701.045 34.9414L700.006 37.2793C699.34 36.9785 698.625 36.7142 697.859 36.4863C697.103 36.2585 696.301 36.1445 695.453 36.1445ZM720.076 54H717.273V44.7715H707.416V54H704.613V34.0117H707.416V42.3516H717.273V34.0117H720.076V54ZM725.449 54V34.0117H728.252V54H725.449ZM731.41 27.6133V27.8867C731.21 28.151 730.936 28.4701 730.59 28.8438C730.253 29.2083 729.879 29.5957 729.469 30.0059C729.059 30.4069 728.648 30.7897 728.238 31.1543C727.828 31.5189 727.454 31.8333 727.117 32.0977H725.285V31.7559C725.577 31.4095 725.9 30.9948 726.256 30.5117C726.62 30.0286 726.976 29.5319 727.322 29.0215C727.669 28.502 727.956 28.0326 728.184 27.6133H731.41ZM749.812 54H746.449L736.1 37.6211H735.99C736.018 38.1133 736.049 38.6556 736.086 39.248C736.122 39.8314 736.15 40.4466 736.168 41.0938C736.195 41.7318 736.214 42.3789 736.223 43.0352V54H733.652V34.0117H736.988L747.297 50.3086H747.393C747.374 49.9076 747.352 49.4108 747.324 48.8184C747.297 48.2259 747.27 47.6016 747.242 46.9453C747.224 46.2799 747.215 45.651 747.215 45.0586V34.0117H749.812V54ZM770.635 54H767.832V44.7715H757.975V54H755.172V34.0117H757.975V42.3516H767.832V34.0117H770.635V54ZM797.678 34.0117L790.596 54H787.684L780.602 34.0117H783.5L787.943 46.8633C788.107 47.3099 788.262 47.7839 788.408 48.2852C788.554 48.7773 788.691 49.2695 788.818 49.7617C788.946 50.2539 789.051 50.7051 789.133 51.1152C789.215 50.7051 789.315 50.2539 789.434 49.7617C789.561 49.2695 789.702 48.7728 789.857 48.2715C790.012 47.7611 790.167 47.278 790.322 46.8223L794.752 34.0117H797.678ZM800.371 54V34.0117H803.174V54H800.371ZM819.799 54H808.574V34.0117H819.799V36.418H811.377V42.3652H819.293V44.7441H811.377V51.5801H819.799V54ZM815.533 28.543C815.825 28.9531 816.144 29.3678 816.49 29.7871C816.846 30.1973 817.206 30.5983 817.57 30.9902C817.935 31.373 818.281 31.7422 818.609 32.0977V32.4121H817.188C816.686 32.1022 816.185 31.765 815.684 31.4004C815.182 31.0267 814.69 30.6165 814.207 30.1699C813.733 30.6165 813.236 31.0267 812.717 31.4004C812.206 31.765 811.71 32.1022 811.227 32.4121H809.791V32.0977C810.11 31.7513 810.452 31.3867 810.816 31.0039C811.19 30.612 811.555 30.2064 811.91 29.7871C812.266 29.3678 812.585 28.9531 812.867 28.543H815.533ZM818.76 24.6191C818.705 25.2025 818.568 25.7266 818.35 26.1914C818.131 26.6471 817.83 27.0072 817.447 27.2715C817.074 27.5267 816.622 27.6543 816.094 27.6543C815.738 27.6543 815.392 27.5905 815.055 27.4629C814.727 27.3262 814.408 27.1712 814.098 26.998C813.797 26.8249 813.501 26.6745 813.209 26.5469C812.926 26.4102 812.653 26.3418 812.389 26.3418C812.015 26.3418 811.728 26.4512 811.527 26.6699C811.327 26.8796 811.167 27.2168 811.049 27.6816H809.723C809.814 26.8066 810.087 26.082 810.543 25.5078C810.999 24.9245 811.614 24.6328 812.389 24.6328C812.762 24.6328 813.118 24.7012 813.455 24.8379C813.801 24.9655 814.125 25.1204 814.426 25.3027C814.736 25.4759 815.032 25.6309 815.314 25.7676C815.597 25.8952 815.87 25.959 816.135 25.959C816.508 25.959 816.791 25.8496 816.982 25.6309C817.183 25.403 817.338 25.0658 817.447 24.6191H818.76ZM840.32 54H836.957L826.607 37.6211H826.498C826.525 38.1133 826.557 38.6556 826.594 39.248C826.63 39.8314 826.658 40.4466 826.676 41.0938C826.703 41.7318 826.721 42.3789 826.73 43.0352V54H824.16V34.0117H827.496L837.805 50.3086H837.9C837.882 49.9076 837.859 49.4108 837.832 48.8184C837.805 48.2259 837.777 47.6016 837.75 46.9453C837.732 46.2799 837.723 45.651 837.723 45.0586V34.0117H840.32V54ZM859.488 54H856.672V36.4316H850.602V34.0117H865.545V36.4316H859.488V54ZM884.057 54H881.254V44.7715H871.396V54H868.594V34.0117H871.396V42.3516H881.254V34.0117H884.057V54ZM906.971 43.9785C906.971 45.5189 906.775 46.9225 906.383 48.1895C905.991 49.4473 905.408 50.5319 904.633 51.4434C903.867 52.3457 902.906 53.043 901.748 53.5352C900.6 54.0273 899.255 54.2734 897.715 54.2734C896.147 54.2734 894.78 54.0273 893.613 53.5352C892.456 53.043 891.494 52.3411 890.729 51.4297C889.963 50.5182 889.389 49.429 889.006 48.1621C888.632 46.8952 888.445 45.4915 888.445 43.9512C888.445 41.9004 888.783 40.1048 889.457 38.5645C890.132 37.0241 891.157 35.8301 892.533 34.9824C893.919 34.1257 895.66 33.6973 897.756 33.6973C899.779 33.6973 901.475 34.1211 902.842 34.9688C904.209 35.8164 905.239 37.0104 905.932 38.5508C906.624 40.082 906.971 41.8913 906.971 43.9785ZM891.385 43.9785C891.385 45.6009 891.608 47.0046 892.055 48.1895C892.51 49.3652 893.203 50.2767 894.133 50.9238C895.072 51.5618 896.266 51.8809 897.715 51.8809C899.182 51.8809 900.381 51.5618 901.311 50.9238C902.24 50.2767 902.924 49.3652 903.361 48.1895C903.799 47.0046 904.018 45.6009 904.018 43.9785C904.018 41.5176 903.516 39.5944 902.514 38.209C901.511 36.8145 899.925 36.1172 897.756 36.1172C896.298 36.1172 895.099 36.4362 894.16 37.0742C893.221 37.7031 892.524 38.6055 892.068 39.7812C891.613 40.9479 891.385 42.347 891.385 43.9785ZM899.219 27.627C899.456 28.0371 899.779 28.502 900.189 29.0215C900.609 29.5319 901.046 30.0332 901.502 30.5254C901.958 31.0085 902.359 31.4277 902.705 31.7832V32.0977H900.805C900.312 31.7878 899.798 31.4095 899.26 30.9629C898.731 30.5072 898.221 30.0286 897.729 29.5273C897.236 30.0286 896.73 30.5026 896.211 30.9492C895.691 31.3867 895.186 31.7695 894.693 32.0977H892.834V31.7832C893.18 31.4186 893.572 30.9948 894.01 30.5117C894.456 30.0195 894.885 29.5182 895.295 29.0078C895.705 28.4974 896.033 28.0371 896.279 27.627H899.219ZM927.492 54H924.129L913.779 37.6211H913.67C913.697 38.1133 913.729 38.6556 913.766 39.248C913.802 39.8314 913.829 40.4466 913.848 41.0938C913.875 41.7318 913.893 42.3789 913.902 43.0352V54H911.332V34.0117H914.668L924.977 50.3086H925.072C925.054 49.9076 925.031 49.4108 925.004 48.8184C924.977 48.2259 924.949 47.6016 924.922 46.9453C924.904 46.2799 924.895 45.651 924.895 45.0586V34.0117H927.492V54ZM941.164 43.3359H948.383V53.1934C947.335 53.5488 946.255 53.8177 945.143 54C944.031 54.1823 942.782 54.2734 941.396 54.2734C939.337 54.2734 937.6 53.8633 936.188 53.043C934.775 52.2227 933.699 51.0469 932.961 49.5156C932.232 47.9844 931.867 46.1432 931.867 43.9922C931.867 41.9232 932.273 40.1185 933.084 38.5781C933.895 37.0378 935.076 35.8438 936.625 34.9961C938.174 34.1484 940.043 33.7246 942.23 33.7246C943.324 33.7246 944.372 33.8294 945.375 34.0391C946.387 34.2487 947.316 34.5404 948.164 34.9141L947.152 37.2793C946.441 36.9603 945.653 36.6914 944.787 36.4727C943.93 36.2448 943.042 36.1309 942.121 36.1309C940.59 36.1309 939.273 36.4544 938.17 37.1016C937.076 37.7487 936.233 38.6602 935.641 39.8359C935.057 41.0117 934.766 42.4062 934.766 44.0195C934.766 45.5964 935.012 46.9727 935.504 48.1484C935.996 49.3242 936.766 50.2402 937.814 50.8965C938.863 51.5527 940.212 51.8809 941.861 51.8809C942.691 51.8809 943.397 51.8353 943.98 51.7441C944.573 51.653 945.115 51.5436 945.607 51.416V45.7832H941.164V43.3359Z"
    fill="#FFFFFF" />
  <path
    d="M326.43 82.3008L317.447 108H312.982L304 82.3008H308.324L313.738 98.4023C313.902 98.8711 314.078 99.4395 314.266 100.107C314.465 100.775 314.646 101.449 314.811 102.129C314.986 102.809 315.121 103.412 315.215 103.939C315.309 103.412 315.438 102.809 315.602 102.129C315.777 101.449 315.959 100.775 316.146 100.107C316.334 99.4395 316.51 98.8652 316.674 98.3848L322.105 82.3008H326.43ZM329.805 108V82.3008H334.023V108H329.805ZM355.363 108H340.809V82.3008H355.363V85.8516H345.027V92.8301H354.713V96.3633H345.027V104.432H355.363V108ZM348.262 114.855C347.605 114.855 347.049 114.68 346.592 114.328C346.146 113.988 345.924 113.408 345.924 112.588C345.924 111.756 346.146 111.17 346.592 110.83C347.049 110.49 347.605 110.32 348.262 110.32C348.906 110.32 349.457 110.49 349.914 110.83C350.371 111.17 350.6 111.756 350.6 112.588C350.6 113.408 350.371 113.988 349.914 114.328C349.457 114.68 348.906 114.855 348.262 114.855ZM350.705 74.1621C351.021 74.7012 351.443 75.2988 351.971 75.9551C352.51 76.6113 353.066 77.2559 353.641 77.8887C354.227 78.5098 354.742 79.043 355.188 79.4883V79.9277H352.375C351.742 79.5293 351.068 79.0547 350.354 78.5039C349.65 77.9414 348.988 77.3379 348.367 76.6934C347.734 77.3379 347.072 77.9355 346.381 78.4863C345.701 79.0371 345.051 79.5176 344.43 79.9277H341.635V79.4883C342.08 79.0312 342.59 78.4922 343.164 77.8711C343.738 77.25 344.289 76.6113 344.816 75.9551C345.344 75.2988 345.766 74.7012 346.082 74.1621H350.705ZM382.363 108H377.178L364.592 87.4863H364.434C364.48 88.1777 364.521 88.9102 364.557 89.6836C364.604 90.457 364.639 91.2539 364.662 92.0742C364.697 92.8945 364.727 93.7266 364.75 94.5703V108H360.918V82.3008H366.068L378.637 102.674H378.76C378.736 102.076 378.707 101.391 378.672 100.617C378.637 99.8438 378.602 99.0469 378.566 98.2266C378.543 97.3945 378.525 96.5918 378.514 95.8184V82.3008H382.363V108ZM418.064 108H413.213L405.215 96.3281L402.684 98.3848V108H398.465V82.3008H402.684V94.5879C403.199 93.9551 403.721 93.3223 404.248 92.6895C404.775 92.0566 405.303 91.4238 405.83 90.791L413.072 82.3008H417.836L408.238 93.5508L418.064 108ZM441.725 108H437.523V96.3984H425.676V108H421.457V82.3008H425.676V92.8125H437.523V82.3008H441.725V108ZM471.344 95.1152C471.344 97.0957 471.092 98.9004 470.588 100.529C470.096 102.146 469.352 103.541 468.355 104.713C467.359 105.873 466.111 106.77 464.611 107.402C463.111 108.035 461.354 108.352 459.338 108.352C457.287 108.352 455.506 108.035 453.994 107.402C452.494 106.77 451.246 105.867 450.25 104.695C449.266 103.523 448.527 102.123 448.035 100.494C447.543 98.8652 447.297 97.0605 447.297 95.0801C447.297 92.4316 447.73 90.123 448.598 88.1543C449.477 86.1738 450.807 84.6387 452.588 83.5488C454.381 82.4473 456.643 81.8965 459.373 81.8965C462.045 81.8965 464.266 82.4414 466.035 83.5312C467.805 84.6211 469.129 86.1562 470.008 88.1367C470.898 90.1055 471.344 92.4316 471.344 95.1152ZM451.727 95.1152C451.727 97.0957 451.996 98.8125 452.535 100.266C453.074 101.707 453.9 102.82 455.014 103.605C456.139 104.379 457.58 104.766 459.338 104.766C461.107 104.766 462.549 104.379 463.662 103.605C464.775 102.82 465.596 101.707 466.123 100.266C466.65 98.8125 466.914 97.0957 466.914 95.1152C466.914 92.1035 466.311 89.748 465.104 88.0488C463.908 86.3379 461.998 85.4824 459.373 85.4824C457.615 85.4824 456.168 85.8691 455.031 86.6426C453.906 87.416 453.074 88.5234 452.535 89.9648C451.996 91.3945 451.727 93.1113 451.727 95.1152ZM492.789 108L490.275 100.863H480.449L477.936 108H473.488L483.051 82.1953H487.727L497.271 108H492.789ZM489.186 97.2422L486.742 90.2109C486.648 89.9062 486.514 89.4785 486.338 88.9277C486.162 88.3652 485.986 87.7969 485.811 87.2227C485.635 86.6367 485.488 86.1445 485.371 85.7461C485.254 86.2266 485.107 86.7656 484.932 87.3633C484.768 87.9492 484.604 88.5 484.439 89.0156C484.287 89.5312 484.17 89.9297 484.088 90.2109L481.627 97.2422H489.186ZM530.283 108H526.082V96.3984H514.234V108H510.016V82.3008H514.234V92.8125H526.082V82.3008H530.283V108ZM559.902 95.1152C559.902 97.0957 559.65 98.9004 559.146 100.529C558.654 102.146 557.91 103.541 556.914 104.713C555.918 105.873 554.67 106.77 553.17 107.402C551.67 108.035 549.912 108.352 547.896 108.352C545.846 108.352 544.064 108.035 542.553 107.402C541.053 106.77 539.805 105.867 538.809 104.695C537.824 103.523 537.086 102.123 536.594 100.494C536.102 98.8652 535.855 97.0605 535.855 95.0801C535.855 92.4316 536.289 90.123 537.156 88.1543C538.035 86.1738 539.365 84.6387 541.146 83.5488C542.939 82.4473 545.201 81.8965 547.932 81.8965C550.604 81.8965 552.824 82.4414 554.594 83.5312C556.363 84.6211 557.688 86.1562 558.566 88.1367C559.457 90.1055 559.902 92.4316 559.902 95.1152ZM540.285 95.1152C540.285 97.0957 540.555 98.8125 541.094 100.266C541.633 101.707 542.459 102.82 543.572 103.605C544.697 104.379 546.139 104.766 547.896 104.766C549.666 104.766 551.107 104.379 552.221 103.605C553.334 102.82 554.154 101.707 554.682 100.266C555.209 98.8125 555.473 97.0957 555.473 95.1152C555.473 92.1035 554.869 89.748 553.662 88.0488C552.467 86.3379 550.557 85.4824 547.932 85.4824C546.174 85.4824 544.727 85.8691 543.59 86.6426C542.465 87.416 541.633 88.5234 541.094 89.9648C540.555 91.3945 540.285 93.1113 540.285 95.1152ZM547.896 114.855C547.24 114.855 546.684 114.68 546.227 114.328C545.781 113.988 545.559 113.408 545.559 112.588C545.559 111.756 545.781 111.17 546.227 110.83C546.684 110.49 547.24 110.32 547.896 110.32C548.541 110.32 549.092 110.49 549.549 110.83C550.006 111.17 550.234 111.756 550.234 112.588C550.234 113.408 550.006 113.988 549.549 114.328C549.092 114.68 548.541 114.855 547.896 114.855ZM576.373 85.5176C575.143 85.5176 574.041 85.7402 573.068 86.1855C572.107 86.6309 571.293 87.2754 570.625 88.1191C569.957 88.9512 569.447 89.9648 569.096 91.1602C568.744 92.3438 568.568 93.6797 568.568 95.168C568.568 97.1602 568.85 98.877 569.412 100.318C569.975 101.748 570.83 102.85 571.979 103.623C573.127 104.385 574.58 104.766 576.338 104.766C577.428 104.766 578.488 104.66 579.52 104.449C580.551 104.238 581.617 103.951 582.719 103.588V107.174C581.676 107.584 580.621 107.883 579.555 108.07C578.488 108.258 577.258 108.352 575.863 108.352C573.238 108.352 571.059 107.807 569.324 106.717C567.602 105.627 566.312 104.092 565.457 102.111C564.613 100.131 564.191 97.8105 564.191 95.1504C564.191 93.2051 564.461 91.4238 565 89.8066C565.539 88.1895 566.324 86.7949 567.355 85.623C568.387 84.4395 569.658 83.5312 571.17 82.8984C572.693 82.2539 574.434 81.9316 576.391 81.9316C577.68 81.9316 578.945 82.0781 580.188 82.3711C581.441 82.6523 582.602 83.0566 583.668 83.584L582.191 87.0645C581.301 86.6426 580.369 86.2793 579.396 85.9746C578.424 85.6699 577.416 85.5176 576.373 85.5176ZM617.189 108H612.338L604.34 96.3281L601.809 98.3848V108H597.59V82.3008H601.809V94.5879C602.324 93.9551 602.846 93.3223 603.373 92.6895C603.9 92.0566 604.428 91.4238 604.955 90.791L612.197 82.3008H616.961L607.363 93.5508L617.189 108ZM627.859 94.0254L633.959 82.3008H638.512L629.969 98.0156V108H625.768V98.1738L617.207 82.3008H621.795L627.859 94.0254ZM620.881 79.9102C620.951 79.0898 621.104 78.375 621.338 77.7656C621.572 77.1445 621.877 76.6289 622.252 76.2188C622.639 75.7969 623.078 75.4805 623.57 75.2695C624.074 75.0586 624.619 74.9531 625.205 74.9531C625.721 74.9531 626.213 75.0527 626.682 75.252C627.162 75.4512 627.625 75.6855 628.07 75.9551C628.527 76.2129 628.967 76.4414 629.389 76.6406C629.822 76.8398 630.238 76.9395 630.637 76.9395C631.094 76.9395 631.48 76.7754 631.797 76.4473C632.125 76.1191 632.371 75.6094 632.535 74.918H634.697C634.557 76.5352 634.094 77.7715 633.309 78.627C632.523 79.4707 631.545 79.8926 630.373 79.8926C629.881 79.8926 629.395 79.793 628.914 79.5938C628.445 79.3828 627.988 79.1484 627.543 78.8906C627.098 78.6328 626.658 78.4043 626.225 78.2051C625.791 78.0059 625.369 77.9062 624.959 77.9062C624.49 77.9062 624.092 78.0703 623.764 78.3984C623.447 78.7266 623.213 79.2305 623.061 79.9102H620.881ZM660.15 108H655.914V85.8867H648.391V82.3008H667.656V85.8867H660.15V108ZM691.861 108H687.66V96.3984H675.812V108H671.594V82.3008H675.812V92.8125H687.66V82.3008H691.861V108ZM718.844 82.3008V98.9297C718.844 100.723 718.463 102.328 717.701 103.746C716.951 105.164 715.814 106.289 714.291 107.121C712.768 107.941 710.852 108.352 708.543 108.352C705.25 108.352 702.742 107.49 701.02 105.768C699.309 104.033 698.453 101.73 698.453 98.8594V82.3008H702.672V98.4902C702.672 100.635 703.176 102.217 704.184 103.236C705.191 104.256 706.697 104.766 708.701 104.766C710.084 104.766 711.209 104.525 712.076 104.045C712.955 103.553 713.6 102.838 714.01 101.9C714.432 100.951 714.643 99.8086 714.643 98.4727V82.3008H718.844ZM741.344 108L738.83 100.863H729.004L726.49 108H722.043L731.605 82.1953H736.281L745.826 108H741.344ZM737.74 97.2422L735.297 90.2109C735.203 89.9062 735.068 89.4785 734.893 88.9277C734.717 88.3652 734.541 87.7969 734.365 87.2227C734.189 86.6367 734.043 86.1445 733.926 85.7461C733.809 86.2266 733.662 86.7656 733.486 87.3633C733.322 87.9492 733.158 88.5 732.994 89.0156C732.842 89.5312 732.725 89.9297 732.643 90.2109L730.182 97.2422H737.74ZM734.014 114.855C733.357 114.855 732.801 114.68 732.344 114.328C731.898 113.988 731.676 113.408 731.676 112.588C731.676 111.756 731.898 111.17 732.344 110.83C732.801 110.49 733.357 110.32 734.014 110.32C734.658 110.32 735.209 110.49 735.666 110.83C736.123 111.17 736.352 111.756 736.352 112.588C736.352 113.408 736.123 113.988 735.666 114.328C735.209 114.68 734.658 114.855 734.014 114.855ZM736.281 74.1621C736.598 74.7012 737.02 75.2988 737.547 75.9551C738.086 76.6113 738.643 77.2559 739.217 77.8887C739.803 78.5098 740.318 79.043 740.764 79.4883V79.9277H737.951C737.318 79.5293 736.645 79.0547 735.93 78.5039C735.227 77.9414 734.564 77.3379 733.943 76.6934C733.311 77.3379 732.648 77.9355 731.957 78.4863C731.277 79.0371 730.627 79.5176 730.006 79.9277H727.211V79.4883C727.656 79.0312 728.166 78.4922 728.74 77.8711C729.314 77.25 729.865 76.6113 730.393 75.9551C730.92 75.2988 731.342 74.7012 731.658 74.1621H736.281ZM758.131 108H753.895V85.8867H746.371V82.3008H765.637V85.8867H758.131V108ZM778.926 82.3008H786.572C789.889 82.3008 792.391 82.7812 794.078 83.7422C795.766 84.7031 796.609 86.3613 796.609 88.7168C796.609 89.7012 796.434 90.5918 796.082 91.3887C795.742 92.1738 795.244 92.8242 794.588 93.3398C793.932 93.8438 793.123 94.1836 792.162 94.3594V94.5352C793.158 94.7109 794.043 95.0215 794.816 95.4668C795.602 95.9121 796.217 96.5508 796.662 97.3828C797.119 98.2148 797.348 99.293 797.348 100.617C797.348 102.188 796.973 103.523 796.223 104.625C795.484 105.727 794.424 106.564 793.041 107.139C791.67 107.713 790.041 108 788.154 108H778.926V82.3008ZM783.145 92.9004H787.188C789.098 92.9004 790.422 92.5898 791.16 91.9688C791.898 91.3477 792.268 90.4395 792.268 89.2441C792.268 88.0254 791.828 87.1465 790.949 86.6074C790.082 86.0684 788.699 85.7988 786.801 85.7988H783.145V92.9004ZM783.145 96.3105V104.467H787.592C789.561 104.467 790.943 104.086 791.74 103.324C792.537 102.562 792.936 101.531 792.936 100.23C792.936 99.4336 792.754 98.7422 792.391 98.1562C792.039 97.5703 791.459 97.1191 790.65 96.8027C789.842 96.4746 788.752 96.3105 787.381 96.3105H783.145ZM822.836 82.3008V85.7109C823.516 85.5352 824.049 85.2246 824.436 84.7793C824.822 84.3223 825.098 83.7422 825.262 83.0391C825.438 82.3359 825.525 81.5391 825.525 80.6484H829.709L829.955 81.0176C829.779 81.9316 829.545 82.793 829.252 83.6016C828.959 84.4102 828.549 85.1367 828.021 85.7812C827.506 86.4258 826.826 86.9707 825.982 87.416C825.139 87.8496 824.09 88.166 822.836 88.3652V98.9297C822.836 100.723 822.467 102.328 821.729 103.746C821.002 105.164 819.889 106.289 818.389 107.121C816.889 107.941 814.979 108.352 812.658 108.352C809.33 108.352 806.793 107.49 805.047 105.768C803.312 104.033 802.445 101.73 802.445 98.8594V82.3008H806.664V98.7188C806.664 100.746 807.174 102.264 808.193 103.271C809.213 104.268 810.736 104.766 812.764 104.766C814.146 104.766 815.266 104.525 816.121 104.045C816.988 103.564 817.621 102.873 818.02 101.971C818.43 101.057 818.635 99.9668 818.635 98.7012V82.3008H822.836ZM852.684 82.3008V98.9297C852.684 100.723 852.303 102.328 851.541 103.746C850.791 105.164 849.654 106.289 848.131 107.121C846.607 107.941 844.691 108.352 842.383 108.352C839.09 108.352 836.582 107.49 834.859 105.768C833.148 104.033 832.293 101.73 832.293 98.8594V82.3008H836.512V98.4902C836.512 100.635 837.016 102.217 838.023 103.236C839.031 104.256 840.537 104.766 842.541 104.766C843.924 104.766 845.049 104.525 845.916 104.045C846.795 103.553 847.439 102.838 847.85 101.9C848.271 100.951 848.482 99.8086 848.482 98.4727V82.3008H852.684ZM876.52 82.3008C879.168 82.3008 881.459 82.7812 883.393 83.7422C885.338 84.6914 886.838 86.1035 887.893 87.9785C888.947 89.8418 889.475 92.1504 889.475 94.9043C889.475 97.7988 888.936 100.219 887.857 102.164C886.779 104.098 885.215 105.557 883.164 106.541C881.113 107.514 878.635 108 875.729 108H868.732V97.0488H866.166V93.5156H868.732V82.3008H876.52ZM876.414 85.7988H872.934V93.5156H878.295V97.0488H872.934V104.467H875.799C878.893 104.467 881.213 103.676 882.76 102.094C884.307 100.512 885.08 98.1562 885.08 95.0273C885.08 92.918 884.74 91.1836 884.061 89.8242C883.393 88.4648 882.414 87.457 881.125 86.8008C879.836 86.1328 878.266 85.7988 876.414 85.7988ZM895.012 108V82.3008H899.23V108H895.012ZM920.57 108H906.016V82.3008H920.57V85.8516H910.234V92.8301H919.92V96.3633H910.234V104.432H920.57V108ZM913.469 114.855C912.812 114.855 912.256 114.68 911.799 114.328C911.354 113.988 911.131 113.408 911.131 112.588C911.131 111.756 911.354 111.17 911.799 110.83C912.256 110.49 912.812 110.32 913.469 110.32C914.113 110.32 914.664 110.49 915.121 110.83C915.578 111.17 915.807 111.756 915.807 112.588C915.807 113.408 915.578 113.988 915.121 114.328C914.664 114.68 914.113 114.855 913.469 114.855ZM915.912 74.1621C916.229 74.7012 916.65 75.2988 917.178 75.9551C917.717 76.6113 918.273 77.2559 918.848 77.8887C919.434 78.5098 919.949 79.043 920.395 79.4883V79.9277H917.582C916.949 79.5293 916.275 79.0547 915.561 78.5039C914.857 77.9414 914.195 77.3379 913.574 76.6934C912.941 77.3379 912.279 77.9355 911.588 78.4863C910.908 79.0371 910.258 79.5176 909.637 79.9277H906.842V79.4883C907.287 79.0312 907.797 78.4922 908.371 77.8711C908.945 77.25 909.496 76.6113 910.023 75.9551C910.551 75.2988 910.973 74.7012 911.289 74.1621H915.912ZM947.57 108H942.385L929.799 87.4863H929.641C929.688 88.1777 929.729 88.9102 929.764 89.6836C929.811 90.457 929.846 91.2539 929.869 92.0742C929.904 92.8945 929.934 93.7266 929.957 94.5703V108H926.125V82.3008H931.275L943.844 102.674H943.967C943.943 102.076 943.914 101.391 943.879 100.617C943.844 99.8438 943.809 99.0469 943.773 98.2266C943.75 97.3945 943.732 96.5918 943.721 95.8184V82.3008H947.57V108Z"
    fill="#FFFFFF" />
  <defs>
    <clipPath id="clip0_11_387">
      <rect width="117" height="143" fill="white" />
    </clipPath>
    <clipPath id="clip1_11_387">
      <rect width="143" height="143" fill="white" transform="translate(133)" />
    </clipPath>
  </defs>
</svg>